# MagicaVoxel @ Ephtracy

# group
o 

# material
mtllib Bear.mtl
usemtl palette

# normals
vn -1 0 0
vn 1 0 0
vn 0 0 1
vn 0 0 -1
vn 0 -1 0
vn 0 1 0

# texcoords
vt 0.263672 0.5
vt 0.986328 0.5
vt 0.990234 0.5
vt 0.994141 0.5

# verts
v -0.8 1.1 0.2
v -0.8 1.1 -0.5
v -0.8 1.2 0.3
v -0.8 1.2 0.2
v -0.8 1.2 -0.5
v -0.8 1.2 -0.6
v -0.8 1.5 0.3
v -0.8 1.5 0.2
v -0.8 1.5 -0.5
v -0.8 1.5 -0.6
v -0.8 1.6 0.2
v -0.8 1.6 -0.5
v -0.7 0.9 0.3
v -0.7 0.9 -0.6
v -0.7 1 0.4
v -0.7 1 0.3
v -0.7 1 -0.6
v -0.7 1 -0.7
v -0.7 1.1 0.5
v -0.7 1.1 0.4
v -0.7 1.1 0.2
v -0.7 1.1 -0.5
v -0.7 1.1 -0.7
v -0.7 1.1 -0.8
v -0.7 1.2 0.3
v -0.7 1.2 0.2
v -0.7 1.2 -0.5
v -0.7 1.2 -0.6
v -0.7 1.5 0.3
v -0.7 1.5 0.2
v -0.7 1.5 -0.5
v -0.7 1.5 -0.6
v -0.7 1.6 0.5
v -0.7 1.6 0.4
v -0.7 1.6 0.2
v -0.7 1.6 -0.5
v -0.7 1.6 -0.7
v -0.7 1.6 -0.8
v -0.7 1.7 0.4
v -0.7 1.7 0.3
v -0.7 1.7 -0.6
v -0.7 1.7 -0.7
v -0.7 1.8 0.3
v -0.7 1.8 -0.6
v -0.6 0.8 0.5
v -0.6 0.8 -0.5
v -0.6 0.8 -0.7
v -0.6 0.8 -0.9
v -0.6 0.9 0.7
v -0.6 0.9 0.5
v -0.6 0.9 0.3
v -0.6 0.9 -0.5
v -0.6 0.9 -0.6
v -0.6 0.9 -0.7
v -0.6 0.9 -0.9
v -0.6 0.9 -1
v -0.6 1 0.4
v -0.6 1 0.3
v -0.6 1 -0.6
v -0.6 1 -0.7
v -0.6 1.1 0.8
v -0.6 1.1 0.7
v -0.6 1.1 0.5
v -0.6 1.1 0.4
v -0.6 1.1 -0.7
v -0.6 1.1 -0.8
v -0.6 1.1 -1
v -0.6 1.1 -1.1
v -0.6 1.5 0.8
v -0.6 1.5 0.7
v -0.6 1.6 0.5
v -0.6 1.6 0.4
v -0.6 1.6 -0.7
v -0.6 1.6 -0.8
v -0.6 1.6 -1
v -0.6 1.6 -1.1
v -0.6 1.7 0.7
v -0.6 1.7 0.6
v -0.6 1.7 0.4
v -0.6 1.7 0.3
v -0.6 1.7 -0.6
v -0.6 1.7 -0.7
v -0.6 1.7 -0.9
v -0.6 1.7 -1
v -0.6 1.8 0.6
v -0.6 1.8 0.4
v -0.6 1.8 0.3
v -0.6 1.8 -0.6
v -0.6 1.8 -0.7
v -0.6 1.8 -0.9
v -0.6 1.9 0.4
v -0.6 1.9 -0.7
v -0.5 0 0.9
v -0.5 0 0.5
v -0.5 0 -0.6
v -0.5 0 -1
v -0.5 0.1 0.9
v -0.5 0.1 0.8
v -0.5 0.1 0.7
v -0.5 0.1 -0.6
v -0.5 0.1 -0.7
v -0.5 0.1 -0.8
v -0.5 0.2 0.7
v -0.5 0.2 0.5
v -0.5 0.2 -0.8
v -0.5 0.2 -1
v -0.5 0.2 -1.1
v -0.5 0.3 0.5
v -0.5 0.3 0.4
v -0.5 0.6 0.5
v -0.5 0.6 0.4
v -0.5 0.7 -0.7
v -0.5 0.7 -0.8
v -0.5 0.7 -1
v -0.5 0.7 -1.1
v -0.5 0.8 0.5
v -0.5 0.8 -0.5
v -0.5 0.8 -0.7
v -0.5 0.8 -0.8
v -0.5 0.8 -0.9
v -0.5 0.9 0.8
v -0.5 0.9 0.7
v -0.5 0.9 0.5
v -0.5 0.9 -0.5
v -0.5 0.9 -0.7
v -0.5 0.9 -0.9
v -0.5 0.9 -1
v -0.5 0.9 -1.1
v -0.5 1 0.8
v -0.5 1 0.7
v -0.5 1.1 0.8
v -0.5 1.1 0.7
v -0.5 1.1 -1
v -0.5 1.1 -1.1
v -0.5 1.3 0.9
v -0.5 1.3 0.8
v -0.5 1.5 0.9
v -0.5 1.5 0.8
v -0.5 1.5 0.7
v -0.5 1.6 1
v -0.5 1.6 0.9
v -0.5 1.6 -1
v -0.5 1.6 -1.1
v -0.5 1.7 0.8
v -0.5 1.7 0.7
v -0.5 1.7 0.6
v -0.5 1.7 -0.9
v -0.5 1.7 -1
v -0.5 1.7 -1.1
v -0.5 1.8 1
v -0.5 1.8 0.9
v -0.5 1.8 0.7
v -0.5 1.8 0.6
v -0.5 1.8 0.4
v -0.5 1.8 -0.7
v -0.5 1.8 -0.9
v -0.5 1.8 -1
v -0.5 1.9 0.6
v -0.5 1.9 0.4
v -0.5 1.9 0.3
v -0.5 1.9 -0.6
v -0.5 1.9 -0.7
v -0.5 1.9 -0.9
v -0.5 2 0.3
v -0.5 2 -0.6
v -0.4 0 0.5
v -0.4 0 0.4
v -0.4 0 -1
v -0.4 0 -1.1
v -0.4 0.1 0.5
v -0.4 0.1 0.4
v -0.4 0.1 -1
v -0.4 0.1 -1.1
v -0.4 0.2 0.5
v -0.4 0.2 -1
v -0.4 0.2 -1.1
v -0.4 0.3 0.5
v -0.4 0.3 0.4
v -0.4 0.6 0.5
v -0.4 0.6 0.4
v -0.4 0.7 -0.7
v -0.4 0.7 -0.8
v -0.4 0.7 -1
v -0.4 0.7 -1.1
v -0.4 0.8 0.5
v -0.4 0.8 0.4
v -0.4 0.8 -0.7
v -0.4 0.8 -0.8
v -0.4 0.9 0.8
v -0.4 0.9 0.7
v -0.4 0.9 -1
v -0.4 0.9 -1.1
v -0.4 1 0.8
v -0.4 1 0.7
v -0.4 1.1 1
v -0.4 1.1 0.9
v -0.4 1.1 -1.1
v -0.4 1.1 -1.2
v -0.4 1.2 1.1
v -0.4 1.2 1
v -0.4 1.2 0.9
v -0.4 1.2 0.8
v -0.4 1.3 1.2
v -0.4 1.3 1.1
v -0.4 1.3 0.9
v -0.4 1.3 0.8
v -0.4 1.5 0.9
v -0.4 1.5 0.8
v -0.4 1.5 -1.1
v -0.4 1.5 -1.2
v -0.4 1.6 1.2
v -0.4 1.6 1.1
v -0.4 1.6 1
v -0.4 1.6 0.9
v -0.4 1.6 0.8
v -0.4 1.7 1.1
v -0.4 1.7 1
v -0.4 1.7 0.8
v -0.4 1.7 0.7
v -0.4 1.7 -1
v -0.4 1.7 -1.1
v -0.4 1.8 1
v -0.4 1.8 0.9
v -0.4 1.8 0.8
v -0.4 1.8 0.7
v -0.4 1.8 0.6
v -0.4 1.8 -0.9
v -0.4 1.8 -1
v -0.4 1.8 -1.1
v -0.4 1.9 1
v -0.4 1.9 0.9
v -0.4 1.9 0.7
v -0.4 1.9 0.6
v -0.4 1.9 0.4
v -0.4 1.9 0.3
v -0.4 1.9 -0.6
v -0.4 1.9 -0.7
v -0.4 1.9 -0.9
v -0.4 1.9 -1
v -0.4 2 0.4
v -0.4 2 0.3
v -0.4 2 -0.6
v -0.4 2 -0.7
v -0.3 0 0.9
v -0.3 0 0.8
v -0.3 0 -0.6
v -0.3 0 -0.7
v -0.3 0.1 0.9
v -0.3 0.1 0.8
v -0.3 0.1 -0.6
v -0.3 0.1 -0.7
v -0.3 1 -1.1
v -0.3 1 -1.2
v -0.3 1.1 1.1
v -0.3 1.1 1
v -0.3 1.1 0.9
v -0.3 1.1 0.8
v -0.3 1.1 -1.1
v -0.3 1.1 -1.2
v -0.3 1.2 1.2
v -0.3 1.2 1.1
v -0.3 1.2 1
v -0.3 1.2 0.9
v -0.3 1.2 0.8
v -0.3 1.3 1.2
v -0.3 1.3 1.1
v -0.3 1.5 -1.1
v -0.3 1.5 -1.2
v -0.3 1.6 1.2
v -0.3 1.6 1.1
v -0.3 1.6 0.9
v -0.3 1.6 0.8
v -0.3 1.6 -1.1
v -0.3 1.6 -1.2
v -0.3 1.7 1.2
v -0.3 1.7 1.1
v -0.3 1.7 0.9
v -0.3 1.7 0.8
v -0.3 1.9 0.5
v -0.3 1.9 0.4
v -0.3 1.9 -0.7
v -0.3 1.9 -0.8
v -0.3 2 0.5
v -0.3 2 0.4
v -0.3 2 0.2
v -0.3 2 -0.5
v -0.3 2 -0.7
v -0.3 2 -0.8
v -0.3 2.1 0.2
v -0.3 2.1 -0.5
v -0.2 0.9 -1.1
v -0.2 0.9 -1.2
v -0.2 1 -1.1
v -0.2 1 -1.2
v -0.2 1.1 1.2
v -0.2 1.1 1.1
v -0.2 1.2 1.3
v -0.2 1.2 1.2
v -0.2 1.2 1.1
v -0.2 1.2 -1.3
v -0.2 1.2 -1.4
v -0.2 1.3 -1.2
v -0.2 1.3 -1.3
v -0.2 1.3 -1.4
v -0.2 1.3 -1.5
v -0.2 1.4 1.3
v -0.2 1.4 1.2
v -0.2 1.4 -1.2
v -0.2 1.4 -1.3
v -0.2 1.4 -1.4
v -0.2 1.4 -1.5
v -0.2 1.5 -1.3
v -0.2 1.5 -1.4
v -0.2 1.6 -1.1
v -0.2 1.6 -1.2
v -0.2 1.7 0.9
v -0.2 1.7 0.8
v -0.2 1.7 -1.1
v -0.2 1.7 -1.2
v -0.2 1.8 0.9
v -0.2 1.8 0.8
v -0.2 1.8 0.7
v -0.2 1.8 -1
v -0.2 1.8 -1.1
v -0.2 1.9 0.8
v -0.2 1.9 0.7
v -0.2 1.9 0.6
v -0.2 1.9 0.5
v -0.2 1.9 -0.8
v -0.2 1.9 -0.9
v -0.2 1.9 -1
v -0.2 1.9 -1.1
v -0.2 2 0.6
v -0.2 2 0.5
v -0.2 2 0.3
v -0.2 2 0.2
v -0.2 2 -0.5
v -0.2 2 -0.6
v -0.2 2 -0.8
v -0.2 2 -0.9
v -0.2 2.1 0.3
v -0.2 2.1 0.2
v -0.2 2.1 -0.5
v -0.2 2.1 -0.6
v -0.1 1.2 1.5
v -0.1 1.2 1.3
v -0.1 1.2 -1.2
v -0.1 1.2 -1.3
v -0.1 1.2 -1.4
v -0.1 1.2 -1.5
v -0.1 1.3 1.5
v -0.1 1.3 1.4
v -0.1 1.3 -1.2
v -0.1 1.3 -1.3
v -0.1 1.3 -1.4
v -0.1 1.3 -1.5
v -0.1 1.4 1.5
v -0.1 1.4 1.4
v -0.1 1.4 1.3
v -0.1 1.4 1.2
v -0.1 1.4 -1.2
v -0.1 1.4 -1.3
v -0.1 1.4 -1.4
v -0.1 1.4 -1.5
v -0.1 1.5 1.3
v -0.1 1.5 1.2
v -0.1 1.5 -1.2
v -0.1 1.5 -1.3
v -0.1 1.5 -1.4
v -0.1 1.5 -1.5
v -0.1 1.7 1.1
v -0.1 1.7 1
v -0.1 1.8 1.1
v -0.1 1.8 1
v -0.1 2 0.4
v -0.1 2 0.3
v -0.1 2 -0.6
v -0.1 2 -0.7
v -0.1 2.1 0.4
v -0.1 2.1 0.3
v -0.1 2.1 -0.6
v -0.1 2.1 -0.7
v 0.1 0.9 0.8
v 0.1 0.9 0.7
v 0.1 1 0.8
v 0.1 1 0.7
v 0.2 0 0.9
v 0.2 0 0.5
v 0.2 0 -0.6
v 0.2 0 -1
v 0.2 0.1 0.9
v 0.2 0.1 0.8
v 0.2 0.1 0.7
v 0.2 0.1 -0.6
v 0.2 0.1 -0.7
v 0.2 0.1 -0.8
v 0.2 0.2 0.7
v 0.2 0.2 0.5
v 0.2 0.2 -0.8
v 0.2 0.2 -1
v 0.2 0.2 -1.1
v 0.2 0.3 0.5
v 0.2 0.3 0.4
v 0.2 0.6 0.5
v 0.2 0.6 0.4
v 0.2 0.8 0.7
v 0.2 0.8 0.5
v 0.2 0.8 -0.7
v 0.2 0.8 -1.1
v 0.2 0.9 0.8
v 0.2 0.9 0.7
v 0.2 1.8 1
v 0.2 1.8 0.9
v 0.2 1.9 1
v 0.2 1.9 0.9
v 0.3 0 0.5
v 0.3 0 0.4
v 0.3 0 -1
v 0.3 0 -1.1
v 0.3 0.1 0.5
v 0.3 0.1 0.4
v 0.3 0.1 -1
v 0.3 0.1 -1.1
v 0.3 0.2 0.5
v 0.3 0.2 -1
v 0.3 0.2 -1.1
v 0.3 0.3 0.5
v 0.3 0.3 0.4
v 0.3 0.6 0.5
v 0.3 0.6 0.4
v 0.3 0.8 0.5
v 0.3 0.8 0.4
v 0.4 0 0.9
v 0.4 0 0.8
v 0.4 0 -0.6
v 0.4 0 -0.7
v 0.4 0.1 0.9
v 0.4 0.1 0.8
v 0.4 0.1 -0.6
v 0.4 0.1 -0.7
v -0.4 0 0.9
v -0.4 0 0.8
v -0.4 0 -0.6
v -0.4 0 -0.7
v -0.4 0.1 0.9
v -0.4 0.1 0.8
v -0.4 0.1 -0.6
v -0.4 0.1 -0.7
v -0.3 0 0.5
v -0.3 0 0.4
v -0.3 0 -1
v -0.3 0 -1.1
v -0.3 0.1 0.5
v -0.3 0.1 0.4
v -0.3 0.1 -1
v -0.3 0.1 -1.1
v -0.3 0.2 0.5
v -0.3 0.2 -1
v -0.3 0.2 -1.1
v -0.3 0.3 0.5
v -0.3 0.3 0.4
v -0.3 0.6 0.5
v -0.3 0.6 0.4
v -0.3 0.8 0.5
v -0.3 0.8 0.4
v -0.2 0 0.9
v -0.2 0 0.5
v -0.2 0 -0.6
v -0.2 0 -1
v -0.2 0.1 0.9
v -0.2 0.1 0.8
v -0.2 0.1 0.7
v -0.2 0.1 -0.6
v -0.2 0.1 -0.7
v -0.2 0.1 -0.8
v -0.2 0.2 0.7
v -0.2 0.2 0.5
v -0.2 0.2 -0.8
v -0.2 0.2 -1
v -0.2 0.2 -1.1
v -0.2 0.3 0.5
v -0.2 0.3 0.4
v -0.2 0.6 0.5
v -0.2 0.6 0.4
v -0.2 0.8 0.7
v -0.2 0.8 0.5
v -0.2 0.8 -0.7
v -0.2 0.8 -1.1
v -0.2 0.9 0.8
v -0.2 0.9 0.7
v -0.2 1.8 1
v -0.2 1.8 0.9
v -0.2 1.9 1
v -0.2 1.9 0.9
v -0.1 0.9 0.8
v -0.1 0.9 0.7
v -0.1 1 0.8
v -0.1 1 0.7
v 0.1 1.2 1.5
v 0.1 1.2 1.3
v 0.1 1.2 -1.2
v 0.1 1.2 -1.3
v 0.1 1.2 -1.4
v 0.1 1.2 -1.5
v 0.1 1.3 1.5
v 0.1 1.3 1.4
v 0.1 1.3 -1.2
v 0.1 1.3 -1.3
v 0.1 1.3 -1.4
v 0.1 1.3 -1.5
v 0.1 1.4 1.5
v 0.1 1.4 1.4
v 0.1 1.4 1.3
v 0.1 1.4 1.2
v 0.1 1.4 -1.2
v 0.1 1.4 -1.3
v 0.1 1.4 -1.4
v 0.1 1.4 -1.5
v 0.1 1.5 1.3
v 0.1 1.5 1.2
v 0.1 1.5 -1.2
v 0.1 1.5 -1.3
v 0.1 1.5 -1.4
v 0.1 1.5 -1.5
v 0.1 1.7 1.1
v 0.1 1.7 1
v 0.1 1.8 1.1
v 0.1 1.8 1
v 0.1 2 0.4
v 0.1 2 0.3
v 0.1 2 -0.6
v 0.1 2 -0.7
v 0.1 2.1 0.4
v 0.1 2.1 0.3
v 0.1 2.1 -0.6
v 0.1 2.1 -0.7
v 0.2 0.9 -1.1
v 0.2 0.9 -1.2
v 0.2 1 -1.1
v 0.2 1 -1.2
v 0.2 1.1 1.2
v 0.2 1.1 1.1
v 0.2 1.2 1.3
v 0.2 1.2 1.2
v 0.2 1.2 1.1
v 0.2 1.2 -1.3
v 0.2 1.2 -1.4
v 0.2 1.3 -1.2
v 0.2 1.3 -1.3
v 0.2 1.3 -1.4
v 0.2 1.3 -1.5
v 0.2 1.4 1.3
v 0.2 1.4 1.2
v 0.2 1.4 -1.2
v 0.2 1.4 -1.3
v 0.2 1.4 -1.4
v 0.2 1.4 -1.5
v 0.2 1.5 -1.3
v 0.2 1.5 -1.4
v 0.2 1.6 -1.1
v 0.2 1.6 -1.2
v 0.2 1.7 0.9
v 0.2 1.7 0.8
v 0.2 1.7 -1.1
v 0.2 1.7 -1.2
v 0.2 1.8 0.9
v 0.2 1.8 0.8
v 0.2 1.8 0.7
v 0.2 1.8 -1
v 0.2 1.8 -1.1
v 0.2 1.9 0.8
v 0.2 1.9 0.7
v 0.2 1.9 0.6
v 0.2 1.9 0.5
v 0.2 1.9 -0.8
v 0.2 1.9 -0.9
v 0.2 1.9 -1
v 0.2 1.9 -1.1
v 0.2 2 0.6
v 0.2 2 0.5
v 0.2 2 0.3
v 0.2 2 0.2
v 0.2 2 -0.5
v 0.2 2 -0.6
v 0.2 2 -0.8
v 0.2 2 -0.9
v 0.2 2.1 0.3
v 0.2 2.1 0.2
v 0.2 2.1 -0.5
v 0.2 2.1 -0.6
v 0.3 0 0.9
v 0.3 0 0.8
v 0.3 0 -0.6
v 0.3 0 -0.7
v 0.3 0.1 0.9
v 0.3 0.1 0.8
v 0.3 0.1 -0.6
v 0.3 0.1 -0.7
v 0.3 1 -1.1
v 0.3 1 -1.2
v 0.3 1.1 1.1
v 0.3 1.1 1
v 0.3 1.1 0.9
v 0.3 1.1 0.8
v 0.3 1.1 -1.1
v 0.3 1.1 -1.2
v 0.3 1.2 1.2
v 0.3 1.2 1.1
v 0.3 1.2 1
v 0.3 1.2 0.9
v 0.3 1.2 0.8
v 0.3 1.3 1.2
v 0.3 1.3 1.1
v 0.3 1.5 -1.1
v 0.3 1.5 -1.2
v 0.3 1.6 1.2
v 0.3 1.6 1.1
v 0.3 1.6 0.9
v 0.3 1.6 0.8
v 0.3 1.6 -1.1
v 0.3 1.6 -1.2
v 0.3 1.7 1.2
v 0.3 1.7 1.1
v 0.3 1.7 0.9
v 0.3 1.7 0.8
v 0.3 1.9 0.5
v 0.3 1.9 0.4
v 0.3 1.9 -0.7
v 0.3 1.9 -0.8
v 0.3 2 0.5
v 0.3 2 0.4
v 0.3 2 0.2
v 0.3 2 -0.5
v 0.3 2 -0.7
v 0.3 2 -0.8
v 0.3 2.1 0.2
v 0.3 2.1 -0.5
v 0.4 0 0.5
v 0.4 0 0.4
v 0.4 0 -1
v 0.4 0 -1.1
v 0.4 0.1 0.5
v 0.4 0.1 0.4
v 0.4 0.1 -1
v 0.4 0.1 -1.1
v 0.4 0.2 0.5
v 0.4 0.2 -1
v 0.4 0.2 -1.1
v 0.4 0.3 0.5
v 0.4 0.3 0.4
v 0.4 0.6 0.5
v 0.4 0.6 0.4
v 0.4 0.7 -0.7
v 0.4 0.7 -0.8
v 0.4 0.7 -1
v 0.4 0.7 -1.1
v 0.4 0.8 0.5
v 0.4 0.8 0.4
v 0.4 0.8 -0.7
v 0.4 0.8 -0.8
v 0.4 0.9 0.8
v 0.4 0.9 0.7
v 0.4 0.9 -1
v 0.4 0.9 -1.1
v 0.4 1 0.8
v 0.4 1 0.7
v 0.4 1.1 1
v 0.4 1.1 0.9
v 0.4 1.1 -1.1
v 0.4 1.1 -1.2
v 0.4 1.2 1.1
v 0.4 1.2 1
v 0.4 1.2 0.9
v 0.4 1.2 0.8
v 0.4 1.3 1.2
v 0.4 1.3 1.1
v 0.4 1.3 0.9
v 0.4 1.3 0.8
v 0.4 1.5 1
v 0.4 1.5 0.9
v 0.4 1.5 0.8
v 0.4 1.5 -1.1
v 0.4 1.5 -1.2
v 0.4 1.6 1.2
v 0.4 1.6 1.1
v 0.4 1.6 0.9
v 0.4 1.6 0.8
v 0.4 1.7 1.1
v 0.4 1.7 1
v 0.4 1.7 0.8
v 0.4 1.7 0.7
v 0.4 1.7 -1
v 0.4 1.7 -1.1
v 0.4 1.8 1
v 0.4 1.8 0.9
v 0.4 1.8 0.8
v 0.4 1.8 0.7
v 0.4 1.8 0.6
v 0.4 1.8 -0.9
v 0.4 1.8 -1
v 0.4 1.8 -1.1
v 0.4 1.9 1
v 0.4 1.9 0.9
v 0.4 1.9 0.7
v 0.4 1.9 0.6
v 0.4 1.9 0.4
v 0.4 1.9 0.3
v 0.4 1.9 -0.6
v 0.4 1.9 -0.7
v 0.4 1.9 -0.9
v 0.4 1.9 -1
v 0.4 2 0.4
v 0.4 2 0.3
v 0.4 2 -0.6
v 0.4 2 -0.7
v 0.5 0 0.9
v 0.5 0 0.5
v 0.5 0 -0.6
v 0.5 0 -1
v 0.5 0.1 0.9
v 0.5 0.1 0.8
v 0.5 0.1 0.7
v 0.5 0.1 -0.6
v 0.5 0.1 -0.7
v 0.5 0.1 -0.8
v 0.5 0.2 0.7
v 0.5 0.2 0.5
v 0.5 0.2 -0.8
v 0.5 0.2 -1
v 0.5 0.2 -1.1
v 0.5 0.3 0.5
v 0.5 0.3 0.4
v 0.5 0.6 0.5
v 0.5 0.6 0.4
v 0.5 0.7 -0.7
v 0.5 0.7 -0.8
v 0.5 0.7 -1
v 0.5 0.7 -1.1
v 0.5 0.8 0.5
v 0.5 0.8 -0.5
v 0.5 0.8 -0.7
v 0.5 0.8 -0.8
v 0.5 0.8 -0.9
v 0.5 0.9 0.8
v 0.5 0.9 0.7
v 0.5 0.9 0.5
v 0.5 0.9 -0.5
v 0.5 0.9 -0.7
v 0.5 0.9 -0.9
v 0.5 0.9 -1
v 0.5 0.9 -1.1
v 0.5 1 0.8
v 0.5 1 0.7
v 0.5 1.1 0.8
v 0.5 1.1 0.7
v 0.5 1.1 -1
v 0.5 1.1 -1.1
v 0.5 1.3 0.9
v 0.5 1.3 0.8
v 0.5 1.5 1
v 0.5 1.5 0.9
v 0.5 1.5 0.8
v 0.5 1.5 0.7
v 0.5 1.6 -1
v 0.5 1.6 -1.1
v 0.5 1.7 0.8
v 0.5 1.7 0.7
v 0.5 1.7 0.6
v 0.5 1.7 -0.9
v 0.5 1.7 -1
v 0.5 1.7 -1.1
v 0.5 1.8 1
v 0.5 1.8 0.9
v 0.5 1.8 0.7
v 0.5 1.8 0.6
v 0.5 1.8 0.4
v 0.5 1.8 -0.7
v 0.5 1.8 -0.9
v 0.5 1.8 -1
v 0.5 1.9 0.6
v 0.5 1.9 0.4
v 0.5 1.9 0.3
v 0.5 1.9 -0.6
v 0.5 1.9 -0.7
v 0.5 1.9 -0.9
v 0.5 2 0.3
v 0.5 2 -0.6
v 0.6 0.8 0.5
v 0.6 0.8 -0.5
v 0.6 0.8 -0.7
v 0.6 0.8 -0.9
v 0.6 0.9 0.7
v 0.6 0.9 0.5
v 0.6 0.9 0.3
v 0.6 0.9 -0.5
v 0.6 0.9 -0.6
v 0.6 0.9 -0.7
v 0.6 0.9 -0.9
v 0.6 0.9 -1
v 0.6 1 0.4
v 0.6 1 0.3
v 0.6 1 -0.6
v 0.6 1 -0.7
v 0.6 1.1 0.8
v 0.6 1.1 0.7
v 0.6 1.1 0.5
v 0.6 1.1 0.4
v 0.6 1.1 -0.7
v 0.6 1.1 -0.8
v 0.6 1.1 -1
v 0.6 1.1 -1.1
v 0.6 1.5 0.8
v 0.6 1.5 0.7
v 0.6 1.6 0.5
v 0.6 1.6 0.4
v 0.6 1.6 -0.7
v 0.6 1.6 -0.8
v 0.6 1.6 -1
v 0.6 1.6 -1.1
v 0.6 1.7 0.7
v 0.6 1.7 0.6
v 0.6 1.7 0.4
v 0.6 1.7 0.3
v 0.6 1.7 -0.6
v 0.6 1.7 -0.7
v 0.6 1.7 -0.9
v 0.6 1.7 -1
v 0.6 1.8 0.6
v 0.6 1.8 0.4
v 0.6 1.8 0.3
v 0.6 1.8 -0.6
v 0.6 1.8 -0.7
v 0.6 1.8 -0.9
v 0.6 1.9 0.4
v 0.6 1.9 -0.7
v 0.7 0.9 0.3
v 0.7 0.9 -0.6
v 0.7 1 0.4
v 0.7 1 0.3
v 0.7 1 -0.6
v 0.7 1 -0.7
v 0.7 1.1 0.5
v 0.7 1.1 0.4
v 0.7 1.1 0.2
v 0.7 1.1 -0.5
v 0.7 1.1 -0.7
v 0.7 1.1 -0.8
v 0.7 1.2 0.3
v 0.7 1.2 0.2
v 0.7 1.2 -0.5
v 0.7 1.2 -0.6
v 0.7 1.5 0.3
v 0.7 1.5 0.2
v 0.7 1.5 -0.5
v 0.7 1.5 -0.6
v 0.7 1.6 0.5
v 0.7 1.6 0.4
v 0.7 1.6 0.2
v 0.7 1.6 -0.5
v 0.7 1.6 -0.7
v 0.7 1.6 -0.8
v 0.7 1.7 0.4
v 0.7 1.7 0.3
v 0.7 1.7 -0.6
v 0.7 1.7 -0.7
v 0.7 1.8 0.3
v 0.7 1.8 -0.6
v 0.8 1.1 0.2
v 0.8 1.1 -0.5
v 0.8 1.2 0.3
v 0.8 1.2 0.2
v 0.8 1.2 -0.5
v 0.8 1.2 -0.6
v 0.8 1.5 0.3
v 0.8 1.5 0.2
v 0.8 1.5 -0.5
v 0.8 1.5 -0.6
v 0.8 1.6 0.2
v 0.8 1.6 -0.5
v -0.1 1.2 1.5
v -0.1 1.3 1.5
v -0.1 1.4 1.5
v 0.1 1.2 1.5
v 0.1 1.3 1.5
v 0.1 1.4 1.5
v -0.2 1.2 1.3
v -0.2 1.4 1.3
v -0.1 1.2 1.3
v -0.1 1.4 1.3
v -0.1 1.5 1.3
v 0.1 1.2 1.3
v 0.1 1.4 1.3
v 0.1 1.5 1.3
v 0.2 1.2 1.3
v 0.2 1.4 1.3
v -0.4 1.3 1.2
v -0.4 1.6 1.2
v -0.3 1.2 1.2
v -0.3 1.3 1.2
v -0.3 1.5 1.2
v -0.3 1.6 1.2
v -0.3 1.7 1.2
v -0.2 1.1 1.2
v -0.2 1.2 1.2
v -0.2 1.4 1.2
v -0.2 1.5 1.2
v -0.1 1.4 1.2
v -0.1 1.5 1.2
v -0.1 1.6 1.2
v 0.1 1.4 1.2
v 0.1 1.5 1.2
v 0.1 1.6 1.2
v 0.2 1.1 1.2
v 0.2 1.2 1.2
v 0.2 1.4 1.2
v 0.2 1.5 1.2
v 0.3 1.2 1.2
v 0.3 1.3 1.2
v 0.3 1.5 1.2
v 0.3 1.6 1.2
v 0.3 1.7 1.2
v 0.4 1.3 1.2
v 0.4 1.6 1.2
v -0.4 1.2 1.1
v -0.4 1.3 1.1
v -0.4 1.6 1.1
v -0.4 1.7 1.1
v -0.3 1.1 1.1
v -0.3 1.2 1.1
v -0.3 1.3 1.1
v -0.3 1.6 1.1
v -0.3 1.7 1.1
v -0.2 1.1 1.1
v -0.2 1.2 1.1
v -0.1 1.7 1.1
v -0.1 1.8 1.1
v 0.1 1.7 1.1
v 0.1 1.8 1.1
v 0.2 1.1 1.1
v 0.2 1.2 1.1
v 0.3 1.1 1.1
v 0.3 1.2 1.1
v 0.3 1.3 1.1
v 0.3 1.6 1.1
v 0.3 1.7 1.1
v 0.4 1.2 1.1
v 0.4 1.3 1.1
v 0.4 1.6 1.1
v 0.4 1.7 1.1
v -0.5 1.6 1
v -0.5 1.8 1
v -0.4 1.1 1
v -0.4 1.2 1
v -0.4 1.6 1
v -0.4 1.7 1
v -0.4 1.8 1
v -0.4 1.9 1
v -0.3 1.1 1
v -0.3 1.2 1
v -0.2 1.7 1
v -0.2 1.8 1
v -0.2 1.9 1
v -0.1 1.7 1
v -0.1 1.8 1
v 0.1 1.7 1
v 0.1 1.8 1
v 0.2 1.7 1
v 0.2 1.8 1
v 0.2 1.9 1
v 0.3 1.1 1
v 0.3 1.2 1
v 0.4 1.1 1
v 0.4 1.2 1
v 0.4 1.5 1
v 0.4 1.7 1
v 0.4 1.8 1
v 0.4 1.9 1
v 0.5 1.5 1
v 0.5 1.8 1
v -0.5 0 0.9
v -0.5 0.1 0.9
v -0.5 1.3 0.9
v -0.5 1.5 0.9
v -0.4 0 0.9
v -0.4 0.1 0.9
v -0.4 1.3 0.9
v -0.4 1.5 0.9
v -0.3 0 0.9
v -0.3 0.1 0.9
v -0.2 0 0.9
v -0.2 0.1 0.9
v 0.2 0 0.9
v 0.2 0.1 0.9
v 0.3 0 0.9
v 0.3 0.1 0.9
v 0.4 0 0.9
v 0.4 0.1 0.9
v 0.4 1.3 0.9
v 0.4 1.5 0.9
v 0.5 0 0.9
v 0.5 0.1 0.9
v 0.5 1.3 0.9
v 0.5 1.5 0.9
v -0.6 1.1 0.8
v -0.6 1.5 0.8
v -0.5 0.1 0.8
v -0.5 0.9 0.8
v -0.5 1 0.8
v -0.5 1.1 0.8
v -0.5 1.3 0.8
v -0.5 1.5 0.8
v -0.5 1.7 0.8
v -0.4 0 0.8
v -0.4 0.1 0.8
v -0.4 0.2 0.8
v -0.4 0.9 0.8
v -0.4 1 0.8
v -0.4 1.2 0.8
v -0.4 1.3 0.8
v -0.4 1.5 0.8
v -0.4 1.6 0.8
v -0.4 1.7 0.8
v -0.4 1.8 0.8
v -0.3 0 0.8
v -0.3 0.1 0.8
v -0.3 0.2 0.8
v -0.3 1.1 0.8
v -0.3 1.2 0.8
v -0.3 1.6 0.8
v -0.3 1.7 0.8
v -0.2 0.1 0.8
v -0.2 0.9 0.8
v -0.2 1.7 0.8
v -0.2 1.8 0.8
v -0.2 1.9 0.8
v -0.1 0.9 0.8
v -0.1 1 0.8
v 0.1 0.9 0.8
v 0.1 1 0.8
v 0.2 0.1 0.8
v 0.2 0.9 0.8
v 0.2 1.7 0.8
v 0.2 1.8 0.8
v 0.2 1.9 0.8
v 0.3 0 0.8
v 0.3 0.1 0.8
v 0.3 0.2 0.8
v 0.3 1.1 0.8
v 0.3 1.2 0.8
v 0.3 1.6 0.8
v 0.3 1.7 0.8
v 0.4 0 0.8
v 0.4 0.1 0.8
v 0.4 0.2 0.8
v 0.4 0.9 0.8
v 0.4 1 0.8
v 0.4 1.2 0.8
v 0.4 1.3 0.8
v 0.4 1.5 0.8
v 0.4 1.6 0.8
v 0.4 1.7 0.8
v 0.4 1.8 0.8
v 0.5 0.1 0.8
v 0.5 0.9 0.8
v 0.5 1 0.8
v 0.5 1.1 0.8
v 0.5 1.3 0.8
v 0.5 1.5 0.8
v 0.5 1.7 0.8
v 0.6 1.1 0.8
v 0.6 1.5 0.8
v -0.6 0.9 0.7
v -0.6 1.1 0.7
v -0.6 1.5 0.7
v -0.6 1.7 0.7
v -0.5 0.9 0.7
v -0.5 1 0.7
v -0.5 1.1 0.7
v -0.5 1.5 0.7
v -0.5 1.7 0.7
v -0.5 1.8 0.7
v -0.4 0.9 0.7
v -0.4 1 0.7
v -0.4 1.7 0.7
v -0.4 1.8 0.7
v -0.4 1.9 0.7
v -0.2 0.8 0.7
v -0.2 0.9 0.7
v -0.2 1.8 0.7
v -0.2 1.9 0.7
v -0.1 0.9 0.7
v -0.1 1 0.7
v 0.1 0.9 0.7
v 0.1 1 0.7
v 0.2 0.8 0.7
v 0.2 0.9 0.7
v 0.2 1.8 0.7
v 0.2 1.9 0.7
v 0.4 0.9 0.7
v 0.4 1 0.7
v 0.4 1.7 0.7
v 0.4 1.8 0.7
v 0.4 1.9 0.7
v 0.5 0.9 0.7
v 0.5 1 0.7
v 0.5 1.1 0.7
v 0.5 1.5 0.7
v 0.5 1.7 0.7
v 0.5 1.8 0.7
v 0.6 0.9 0.7
v 0.6 1.1 0.7
v 0.6 1.5 0.7
v 0.6 1.7 0.7
v -0.6 1.7 0.6
v -0.6 1.8 0.6
v -0.5 1.7 0.6
v -0.5 1.8 0.6
v -0.5 1.9 0.6
v -0.4 1.8 0.6
v -0.4 1.9 0.6
v -0.2 1.9 0.6
v -0.2 2 0.6
v 0.2 1.9 0.6
v 0.2 2 0.6
v 0.4 1.8 0.6
v 0.4 1.9 0.6
v 0.5 1.7 0.6
v 0.5 1.8 0.6
v 0.5 1.9 0.6
v 0.6 1.7 0.6
v 0.6 1.8 0.6
v -0.7 1.1 0.5
v -0.7 1.6 0.5
v -0.6 0.8 0.5
v -0.6 0.9 0.5
v -0.6 1.1 0.5
v -0.6 1.6 0.5
v -0.5 0.8 0.5
v -0.5 0.9 0.5
v -0.3 1.9 0.5
v -0.3 2 0.5
v -0.2 1.9 0.5
v -0.2 2 0.5
v 0.2 1.9 0.5
v 0.2 2 0.5
v 0.3 1.9 0.5
v 0.3 2 0.5
v 0.5 0.8 0.5
v 0.5 0.9 0.5
v 0.6 0.8 0.5
v 0.6 0.9 0.5
v 0.6 1.1 0.5
v 0.6 1.6 0.5
v 0.7 1.1 0.5
v 0.7 1.6 0.5
v -0.7 1 0.4
v -0.7 1.1 0.4
v -0.7 1.6 0.4
v -0.7 1.7 0.4
v -0.6 1 0.4
v -0.6 1.1 0.4
v -0.6 1.6 0.4
v -0.6 1.7 0.4
v -0.6 1.8 0.4
v -0.6 1.9 0.4
v -0.5 1.8 0.4
v -0.5 1.9 0.4
v -0.4 1.9 0.4
v -0.4 2 0.4
v -0.3 1.9 0.4
v -0.3 2 0.4
v -0.1 2 0.4
v -0.1 2.1 0.4
v 0.1 2 0.4
v 0.1 2.1 0.4
v 0.3 1.9 0.4
v 0.3 2 0.4
v 0.4 1.9 0.4
v 0.4 2 0.4
v 0.5 1.8 0.4
v 0.5 1.9 0.4
v 0.6 1 0.4
v 0.6 1.1 0.4
v 0.6 1.6 0.4
v 0.6 1.7 0.4
v 0.6 1.8 0.4
v 0.6 1.9 0.4
v 0.7 1 0.4
v 0.7 1.1 0.4
v 0.7 1.6 0.4
v 0.7 1.7 0.4
v -0.8 1.2 0.3
v -0.8 1.5 0.3
v -0.7 0.9 0.3
v -0.7 1 0.3
v -0.7 1.2 0.3
v -0.7 1.5 0.3
v -0.7 1.7 0.3
v -0.7 1.8 0.3
v -0.6 0.9 0.3
v -0.6 1 0.3
v -0.6 1.7 0.3
v -0.6 1.8 0.3
v -0.5 1.9 0.3
v -0.5 2 0.3
v -0.4 1.9 0.3
v -0.4 2 0.3
v -0.2 2 0.3
v -0.2 2.1 0.3
v -0.1 2 0.3
v -0.1 2.1 0.3
v 0.1 2 0.3
v 0.1 2.1 0.3
v 0.2 2 0.3
v 0.2 2.1 0.3
v 0.4 1.9 0.3
v 0.4 2 0.3
v 0.5 1.9 0.3
v 0.5 2 0.3
v 0.6 0.9 0.3
v 0.6 1 0.3
v 0.6 1.7 0.3
v 0.6 1.8 0.3
v 0.7 0.9 0.3
v 0.7 1 0.3
v 0.7 1.2 0.3
v 0.7 1.5 0.3
v 0.7 1.7 0.3
v 0.7 1.8 0.3
v 0.8 1.2 0.3
v 0.8 1.5 0.3
v -0.8 1.1 0.2
v -0.8 1.2 0.2
v -0.8 1.5 0.2
v -0.8 1.6 0.2
v -0.7 1.1 0.2
v -0.7 1.2 0.2
v -0.7 1.5 0.2
v -0.7 1.6 0.2
v -0.3 2 0.2
v -0.3 2.1 0.2
v -0.2 2 0.2
v -0.2 2.1 0.2
v 0.2 2 0.2
v 0.2 2.1 0.2
v 0.3 2 0.2
v 0.3 2.1 0.2
v 0.7 1.1 0.2
v 0.7 1.2 0.2
v 0.7 1.5 0.2
v 0.7 1.6 0.2
v 0.8 1.1 0.2
v 0.8 1.2 0.2
v 0.8 1.5 0.2
v 0.8 1.6 0.2
v -0.5 0 -0.6
v -0.5 0.1 -0.6
v -0.4 0 -0.6
v -0.4 0.1 -0.6
v -0.3 0 -0.6
v -0.3 0.1 -0.6
v -0.2 0 -0.6
v -0.2 0.1 -0.6
v 0.2 0 -0.6
v 0.2 0.1 -0.6
v 0.3 0 -0.6
v 0.3 0.1 -0.6
v 0.4 0 -0.6
v 0.4 0.1 -0.6
v 0.5 0 -0.6
v 0.5 0.1 -0.6
v -0.6 0.8 -0.7
v -0.6 0.9 -0.7
v -0.5 0.1 -0.7
v -0.5 0.7 -0.7
v -0.5 0.8 -0.7
v -0.5 0.9 -0.7
v -0.4 0 -0.7
v -0.4 0.1 -0.7
v -0.4 0.2 -0.7
v -0.4 0.7 -0.7
v -0.4 0.8 -0.7
v -0.3 0 -0.7
v -0.3 0.1 -0.7
v -0.3 0.2 -0.7
v -0.2 0.1 -0.7
v -0.2 0.8 -0.7
v 0.2 0.1 -0.7
v 0.2 0.8 -0.7
v 0.3 0 -0.7
v 0.3 0.1 -0.7
v 0.3 0.2 -0.7
v 0.4 0 -0.7
v 0.4 0.1 -0.7
v 0.4 0.2 -0.7
v 0.4 0.7 -0.7
v 0.4 0.8 -0.7
v 0.5 0.1 -0.7
v 0.5 0.7 -0.7
v 0.5 0.8 -0.7
v 0.5 0.9 -0.7
v 0.6 0.8 -0.7
v 0.6 0.9 -0.7
v -0.5 0.7 -0.8
v -0.5 0.8 -0.8
v -0.4 0.7 -0.8
v -0.4 0.8 -0.8
v 0.4 0.7 -0.8
v 0.4 0.8 -0.8
v 0.5 0.7 -0.8
v 0.5 0.8 -0.8
v -0.2 1.2 -1.3
v -0.2 1.3 -1.3
v -0.2 1.4 -1.3
v -0.2 1.5 -1.3
v -0.1 1.2 -1.3
v -0.1 1.3 -1.3
v -0.1 1.4 -1.3
v -0.1 1.5 -1.3
v 0.1 1.2 -1.3
v 0.1 1.3 -1.3
v 0.1 1.4 -1.3
v 0.1 1.5 -1.3
v 0.2 1.2 -1.3
v 0.2 1.3 -1.3
v 0.2 1.4 -1.3
v 0.2 1.5 -1.3
v -0.5 1.6 0.9
v -0.5 1.8 0.9
v -0.4 1.1 0.9
v -0.4 1.2 0.9
v -0.4 1.6 0.9
v -0.4 1.7 0.9
v -0.4 1.8 0.9
v -0.4 1.9 0.9
v -0.3 1.1 0.9
v -0.3 1.2 0.9
v -0.3 1.6 0.9
v -0.3 1.7 0.9
v -0.2 1.7 0.9
v -0.2 1.8 0.9
v -0.2 1.9 0.9
v 0.2 1.7 0.9
v 0.2 1.8 0.9
v 0.2 1.9 0.9
v 0.3 1.1 0.9
v 0.3 1.2 0.9
v 0.3 1.6 0.9
v 0.3 1.7 0.9
v 0.4 1.1 0.9
v 0.4 1.2 0.9
v 0.4 1.5 0.9
v 0.4 1.6 0.9
v 0.4 1.7 0.9
v 0.4 1.8 0.9
v 0.4 1.9 0.9
v 0.5 1.5 0.9
v 0.5 1.8 0.9
v -0.5 0 0.5
v -0.5 0.2 0.5
v -0.5 0.3 0.5
v -0.5 0.6 0.5
v -0.5 0.8 0.5
v -0.4 0 0.5
v -0.4 0.1 0.5
v -0.4 0.2 0.5
v -0.4 0.3 0.5
v -0.4 0.6 0.5
v -0.4 0.8 0.5
v -0.3 0 0.5
v -0.3 0.1 0.5
v -0.3 0.2 0.5
v -0.3 0.3 0.5
v -0.3 0.6 0.5
v -0.3 0.8 0.5
v -0.2 0 0.5
v -0.2 0.2 0.5
v -0.2 0.3 0.5
v -0.2 0.6 0.5
v -0.2 0.8 0.5
v 0.2 0 0.5
v 0.2 0.2 0.5
v 0.2 0.3 0.5
v 0.2 0.6 0.5
v 0.2 0.8 0.5
v 0.3 0 0.5
v 0.3 0.1 0.5
v 0.3 0.2 0.5
v 0.3 0.3 0.5
v 0.3 0.6 0.5
v 0.3 0.8 0.5
v 0.4 0 0.5
v 0.4 0.1 0.5
v 0.4 0.2 0.5
v 0.4 0.3 0.5
v 0.4 0.6 0.5
v 0.4 0.8 0.5
v 0.5 0 0.5
v 0.5 0.2 0.5
v 0.5 0.3 0.5
v 0.5 0.6 0.5
v 0.5 0.8 0.5
v -0.5 0.3 0.4
v -0.5 0.6 0.4
v -0.4 0 0.4
v -0.4 0.1 0.4
v -0.4 0.3 0.4
v -0.4 0.6 0.4
v -0.4 0.8 0.4
v -0.3 0 0.4
v -0.3 0.1 0.4
v -0.3 0.3 0.4
v -0.3 0.6 0.4
v -0.3 0.8 0.4
v -0.2 0.3 0.4
v -0.2 0.6 0.4
v 0.2 0.3 0.4
v 0.2 0.6 0.4
v 0.3 0 0.4
v 0.3 0.1 0.4
v 0.3 0.3 0.4
v 0.3 0.6 0.4
v 0.3 0.8 0.4
v 0.4 0 0.4
v 0.4 0.1 0.4
v 0.4 0.3 0.4
v 0.4 0.6 0.4
v 0.4 0.8 0.4
v 0.5 0.3 0.4
v 0.5 0.6 0.4
v -0.8 1.1 -0.5
v -0.8 1.2 -0.5
v -0.8 1.5 -0.5
v -0.8 1.6 -0.5
v -0.7 1.1 -0.5
v -0.7 1.2 -0.5
v -0.7 1.5 -0.5
v -0.7 1.6 -0.5
v -0.6 0.8 -0.5
v -0.6 0.9 -0.5
v -0.5 0.8 -0.5
v -0.5 0.9 -0.5
v -0.3 2 -0.5
v -0.3 2.1 -0.5
v -0.2 2 -0.5
v -0.2 2.1 -0.5
v 0.2 2 -0.5
v 0.2 2.1 -0.5
v 0.3 2 -0.5
v 0.3 2.1 -0.5
v 0.5 0.8 -0.5
v 0.5 0.9 -0.5
v 0.6 0.8 -0.5
v 0.6 0.9 -0.5
v 0.7 1.1 -0.5
v 0.7 1.2 -0.5
v 0.7 1.5 -0.5
v 0.7 1.6 -0.5
v 0.8 1.1 -0.5
v 0.8 1.2 -0.5
v 0.8 1.5 -0.5
v 0.8 1.6 -0.5
v -0.8 1.2 -0.6
v -0.8 1.5 -0.6
v -0.7 0.9 -0.6
v -0.7 1 -0.6
v -0.7 1.2 -0.6
v -0.7 1.5 -0.6
v -0.7 1.7 -0.6
v -0.7 1.8 -0.6
v -0.6 0.9 -0.6
v -0.6 1 -0.6
v -0.6 1.7 -0.6
v -0.6 1.8 -0.6
v -0.5 1.9 -0.6
v -0.5 2 -0.6
v -0.4 1.9 -0.6
v -0.4 2 -0.6
v -0.2 2 -0.6
v -0.2 2.1 -0.6
v -0.1 2 -0.6
v -0.1 2.1 -0.6
v 0.1 2 -0.6
v 0.1 2.1 -0.6
v 0.2 2 -0.6
v 0.2 2.1 -0.6
v 0.4 1.9 -0.6
v 0.4 2 -0.6
v 0.5 1.9 -0.6
v 0.5 2 -0.6
v 0.6 0.9 -0.6
v 0.6 1 -0.6
v 0.6 1.7 -0.6
v 0.6 1.8 -0.6
v 0.7 0.9 -0.6
v 0.7 1 -0.6
v 0.7 1.2 -0.6
v 0.7 1.5 -0.6
v 0.7 1.7 -0.6
v 0.7 1.8 -0.6
v 0.8 1.2 -0.6
v 0.8 1.5 -0.6
v -0.7 1 -0.7
v -0.7 1.1 -0.7
v -0.7 1.6 -0.7
v -0.7 1.7 -0.7
v -0.6 1 -0.7
v -0.6 1.1 -0.7
v -0.6 1.6 -0.7
v -0.6 1.7 -0.7
v -0.6 1.8 -0.7
v -0.6 1.9 -0.7
v -0.5 1.8 -0.7
v -0.5 1.9 -0.7
v -0.4 1.9 -0.7
v -0.4 2 -0.7
v -0.3 1.9 -0.7
v -0.3 2 -0.7
v -0.1 2 -0.7
v -0.1 2.1 -0.7
v 0.1 2 -0.7
v 0.1 2.1 -0.7
v 0.3 1.9 -0.7
v 0.3 2 -0.7
v 0.4 1.9 -0.7
v 0.4 2 -0.7
v 0.5 1.8 -0.7
v 0.5 1.9 -0.7
v 0.6 1 -0.7
v 0.6 1.1 -0.7
v 0.6 1.6 -0.7
v 0.6 1.7 -0.7
v 0.6 1.8 -0.7
v 0.6 1.9 -0.7
v 0.7 1 -0.7
v 0.7 1.1 -0.7
v 0.7 1.6 -0.7
v 0.7 1.7 -0.7
v -0.7 1.1 -0.8
v -0.7 1.6 -0.8
v -0.6 1.1 -0.8
v -0.6 1.6 -0.8
v -0.3 1.9 -0.8
v -0.3 2 -0.8
v -0.2 1.9 -0.8
v -0.2 2 -0.8
v 0.2 1.9 -0.8
v 0.2 2 -0.8
v 0.3 1.9 -0.8
v 0.3 2 -0.8
v 0.6 1.1 -0.8
v 0.6 1.6 -0.8
v 0.7 1.1 -0.8
v 0.7 1.6 -0.8
v -0.6 0.8 -0.9
v -0.6 0.9 -0.9
v -0.6 1.7 -0.9
v -0.6 1.8 -0.9
v -0.5 0.8 -0.9
v -0.5 0.9 -0.9
v -0.5 1.7 -0.9
v -0.5 1.8 -0.9
v -0.5 1.9 -0.9
v -0.4 1.8 -0.9
v -0.4 1.9 -0.9
v -0.2 1.9 -0.9
v -0.2 2 -0.9
v 0.2 1.9 -0.9
v 0.2 2 -0.9
v 0.4 1.8 -0.9
v 0.4 1.9 -0.9
v 0.5 0.8 -0.9
v 0.5 0.9 -0.9
v 0.5 1.7 -0.9
v 0.5 1.8 -0.9
v 0.5 1.9 -0.9
v 0.6 0.8 -0.9
v 0.6 0.9 -0.9
v 0.6 1.7 -0.9
v 0.6 1.8 -0.9
v -0.6 0.9 -1
v -0.6 1.1 -1
v -0.6 1.6 -1
v -0.6 1.7 -1
v -0.5 0 -1
v -0.5 0.2 -1
v -0.5 0.7 -1
v -0.5 0.9 -1
v -0.5 1.1 -1
v -0.5 1.6 -1
v -0.5 1.7 -1
v -0.5 1.8 -1
v -0.4 0 -1
v -0.4 0.1 -1
v -0.4 0.2 -1
v -0.4 0.7 -1
v -0.4 0.9 -1
v -0.4 1.7 -1
v -0.4 1.8 -1
v -0.4 1.9 -1
v -0.3 0 -1
v -0.3 0.1 -1
v -0.3 0.2 -1
v -0.2 0 -1
v -0.2 0.2 -1
v -0.2 1.8 -1
v -0.2 1.9 -1
v 0.2 0 -1
v 0.2 0.2 -1
v 0.2 1.8 -1
v 0.2 1.9 -1
v 0.3 0 -1
v 0.3 0.1 -1
v 0.3 0.2 -1
v 0.4 0 -1
v 0.4 0.1 -1
v 0.4 0.2 -1
v 0.4 0.7 -1
v 0.4 0.9 -1
v 0.4 1.7 -1
v 0.4 1.8 -1
v 0.4 1.9 -1
v 0.5 0 -1
v 0.5 0.2 -1
v 0.5 0.7 -1
v 0.5 0.9 -1
v 0.5 1.1 -1
v 0.5 1.6 -1
v 0.5 1.7 -1
v 0.5 1.8 -1
v 0.6 0.9 -1
v 0.6 1.1 -1
v 0.6 1.6 -1
v 0.6 1.7 -1
v -0.6 1.1 -1.1
v -0.6 1.6 -1.1
v -0.5 0.2 -1.1
v -0.5 0.7 -1.1
v -0.5 0.9 -1.1
v -0.5 1.1 -1.1
v -0.5 1.6 -1.1
v -0.5 1.7 -1.1
v -0.4 0 -1.1
v -0.4 0.1 -1.1
v -0.4 0.2 -1.1
v -0.4 0.7 -1.1
v -0.4 0.9 -1.1
v -0.4 1.1 -1.1
v -0.4 1.5 -1.1
v -0.4 1.7 -1.1
v -0.4 1.8 -1.1
v -0.3 0 -1.1
v -0.3 0.1 -1.1
v -0.3 0.2 -1.1
v -0.3 1 -1.1
v -0.3 1.1 -1.1
v -0.3 1.5 -1.1
v -0.3 1.6 -1.1
v -0.2 0.2 -1.1
v -0.2 0.8 -1.1
v -0.2 0.9 -1.1
v -0.2 1 -1.1
v -0.2 1.6 -1.1
v -0.2 1.7 -1.1
v -0.2 1.8 -1.1
v -0.2 1.9 -1.1
v 0.2 0.2 -1.1
v 0.2 0.8 -1.1
v 0.2 0.9 -1.1
v 0.2 1 -1.1
v 0.2 1.6 -1.1
v 0.2 1.7 -1.1
v 0.2 1.8 -1.1
v 0.2 1.9 -1.1
v 0.3 0 -1.1
v 0.3 0.1 -1.1
v 0.3 0.2 -1.1
v 0.3 1 -1.1
v 0.3 1.1 -1.1
v 0.3 1.5 -1.1
v 0.3 1.6 -1.1
v 0.4 0 -1.1
v 0.4 0.1 -1.1
v 0.4 0.2 -1.1
v 0.4 0.7 -1.1
v 0.4 0.9 -1.1
v 0.4 1.1 -1.1
v 0.4 1.5 -1.1
v 0.4 1.7 -1.1
v 0.4 1.8 -1.1
v 0.5 0.2 -1.1
v 0.5 0.7 -1.1
v 0.5 0.9 -1.1
v 0.5 1.1 -1.1
v 0.5 1.6 -1.1
v 0.5 1.7 -1.1
v 0.6 1.1 -1.1
v 0.6 1.6 -1.1
v -0.4 1.1 -1.2
v -0.4 1.5 -1.2
v -0.3 1 -1.2
v -0.3 1.1 -1.2
v -0.3 1.5 -1.2
v -0.3 1.6 -1.2
v -0.2 0.9 -1.2
v -0.2 1 -1.2
v -0.2 1.3 -1.2
v -0.2 1.4 -1.2
v -0.2 1.6 -1.2
v -0.2 1.7 -1.2
v -0.1 1.2 -1.2
v -0.1 1.3 -1.2
v -0.1 1.4 -1.2
v -0.1 1.5 -1.2
v 0.1 1.2 -1.2
v 0.1 1.3 -1.2
v 0.1 1.4 -1.2
v 0.1 1.5 -1.2
v 0.2 0.9 -1.2
v 0.2 1 -1.2
v 0.2 1.3 -1.2
v 0.2 1.4 -1.2
v 0.2 1.6 -1.2
v 0.2 1.7 -1.2
v 0.3 1 -1.2
v 0.3 1.1 -1.2
v 0.3 1.5 -1.2
v 0.3 1.6 -1.2
v 0.4 1.1 -1.2
v 0.4 1.5 -1.2
v -0.2 1.2 -1.4
v -0.2 1.3 -1.4
v -0.2 1.4 -1.4
v -0.2 1.5 -1.4
v -0.1 1.2 -1.4
v -0.1 1.3 -1.4
v -0.1 1.4 -1.4
v -0.1 1.5 -1.4
v 0.1 1.2 -1.4
v 0.1 1.3 -1.4
v 0.1 1.4 -1.4
v 0.1 1.5 -1.4
v 0.2 1.2 -1.4
v 0.2 1.3 -1.4
v 0.2 1.4 -1.4
v 0.2 1.5 -1.4
v -0.2 1.3 -1.5
v -0.2 1.4 -1.5
v -0.1 1.2 -1.5
v -0.1 1.3 -1.5
v -0.1 1.4 -1.5
v -0.1 1.5 -1.5
v 0.1 1.2 -1.5
v 0.1 1.3 -1.5
v 0.1 1.4 -1.5
v 0.1 1.5 -1.5
v 0.2 1.3 -1.5
v 0.2 1.4 -1.5
v -0.5 0 0.9
v -0.4 0 0.9
v -0.3 0 0.9
v -0.2 0 0.9
v 0.2 0 0.9
v 0.3 0 0.9
v 0.4 0 0.9
v 0.5 0 0.9
v -0.4 0 0.8
v -0.3 0 0.8
v 0.3 0 0.8
v 0.4 0 0.8
v -0.4 0 0.7
v -0.3 0 0.7
v 0.3 0 0.7
v 0.4 0 0.7
v -0.5 0 0.5
v -0.4 0 0.5
v -0.3 0 0.5
v -0.2 0 0.5
v 0.2 0 0.5
v 0.3 0 0.5
v 0.4 0 0.5
v 0.5 0 0.5
v -0.4 0 0.4
v -0.3 0 0.4
v 0.3 0 0.4
v 0.4 0 0.4
v -0.5 0 -0.6
v -0.4 0 -0.6
v -0.3 0 -0.6
v -0.2 0 -0.6
v 0.2 0 -0.6
v 0.3 0 -0.6
v 0.4 0 -0.6
v 0.5 0 -0.6
v -0.4 0 -0.7
v -0.3 0 -0.7
v 0.3 0 -0.7
v 0.4 0 -0.7
v -0.4 0 -0.8
v -0.3 0 -0.8
v 0.3 0 -0.8
v 0.4 0 -0.8
v -0.5 0 -1
v -0.4 0 -1
v -0.3 0 -1
v -0.2 0 -1
v 0.2 0 -1
v 0.3 0 -1
v 0.4 0 -1
v 0.5 0 -1
v -0.4 0 -1.1
v -0.3 0 -1.1
v 0.3 0 -1.1
v 0.4 0 -1.1
v -0.5 0.2 -1
v -0.4 0.2 -1
v -0.3 0.2 -1
v -0.2 0.2 -1
v 0.2 0.2 -1
v 0.3 0.2 -1
v 0.4 0.2 -1
v 0.5 0.2 -1
v -0.5 0.2 -1.1
v -0.4 0.2 -1.1
v -0.3 0.2 -1.1
v -0.2 0.2 -1.1
v 0.2 0.2 -1.1
v 0.3 0.2 -1.1
v 0.4 0.2 -1.1
v 0.5 0.2 -1.1
v -0.5 0.3 0.5
v -0.4 0.3 0.5
v -0.3 0.3 0.5
v -0.2 0.3 0.5
v 0.2 0.3 0.5
v 0.3 0.3 0.5
v 0.4 0.3 0.5
v 0.5 0.3 0.5
v -0.5 0.3 0.4
v -0.4 0.3 0.4
v -0.3 0.3 0.4
v -0.2 0.3 0.4
v 0.2 0.3 0.4
v 0.3 0.3 0.4
v 0.4 0.3 0.4
v 0.5 0.3 0.4
v -0.2 0.8 0.7
v 0.2 0.8 0.7
v -0.6 0.8 0.5
v -0.5 0.8 0.5
v -0.4 0.8 0.5
v -0.3 0.8 0.5
v -0.2 0.8 0.5
v 0.2 0.8 0.5
v 0.3 0.8 0.5
v 0.4 0.8 0.5
v 0.5 0.8 0.5
v 0.6 0.8 0.5
v -0.4 0.8 0.4
v -0.3 0.8 0.4
v 0.3 0.8 0.4
v 0.4 0.8 0.4
v -0.6 0.8 -0.5
v -0.5 0.8 -0.5
v 0.5 0.8 -0.5
v 0.6 0.8 -0.5
v -0.6 0.8 -0.7
v -0.5 0.8 -0.7
v -0.4 0.8 -0.7
v -0.2 0.8 -0.7
v 0.2 0.8 -0.7
v 0.4 0.8 -0.7
v 0.5 0.8 -0.7
v 0.6 0.8 -0.7
v -0.5 0.8 -0.8
v -0.4 0.8 -0.8
v 0.4 0.8 -0.8
v 0.5 0.8 -0.8
v -0.6 0.8 -0.9
v -0.5 0.8 -0.9
v 0.5 0.8 -0.9
v 0.6 0.8 -0.9
v -0.2 0.8 -1.1
v 0.2 0.8 -1.1
v -0.2 0.9 0.8
v -0.1 0.9 0.8
v 0.1 0.9 0.8
v 0.2 0.9 0.8
v -0.6 0.9 0.7
v -0.5 0.9 0.7
v -0.2 0.9 0.7
v -0.1 0.9 0.7
v 0.1 0.9 0.7
v 0.2 0.9 0.7
v 0.5 0.9 0.7
v 0.6 0.9 0.7
v -0.6 0.9 0.5
v -0.5 0.9 0.5
v 0.5 0.9 0.5
v 0.6 0.9 0.5
v -0.7 0.9 0.3
v -0.6 0.9 0.3
v 0.6 0.9 0.3
v 0.7 0.9 0.3
v -0.6 0.9 -0.5
v -0.5 0.9 -0.5
v 0.5 0.9 -0.5
v 0.6 0.9 -0.5
v -0.7 0.9 -0.6
v -0.6 0.9 -0.6
v 0.6 0.9 -0.6
v 0.7 0.9 -0.6
v -0.6 0.9 -0.7
v -0.5 0.9 -0.7
v 0.5 0.9 -0.7
v 0.6 0.9 -0.7
v -0.6 0.9 -0.9
v -0.5 0.9 -0.9
v 0.5 0.9 -0.9
v 0.6 0.9 -0.9
v -0.6 0.9 -1
v -0.5 0.9 -1
v -0.4 0.9 -1
v 0.4 0.9 -1
v 0.5 0.9 -1
v 0.6 0.9 -1
v -0.5 0.9 -1.1
v -0.4 0.9 -1.1
v -0.2 0.9 -1.1
v 0.2 0.9 -1.1
v 0.4 0.9 -1.1
v 0.5 0.9 -1.1
v -0.2 0.9 -1.2
v 0.2 0.9 -1.2
v -0.5 1 0.8
v -0.4 1 0.8
v -0.1 1 0.8
v 0.1 1 0.8
v 0.4 1 0.8
v 0.5 1 0.8
v -0.5 1 0.7
v -0.4 1 0.7
v -0.1 1 0.7
v 0.1 1 0.7
v 0.4 1 0.7
v 0.5 1 0.7
v -0.7 1 0.4
v -0.6 1 0.4
v 0.6 1 0.4
v 0.7 1 0.4
v -0.7 1 0.3
v -0.6 1 0.3
v 0.6 1 0.3
v 0.7 1 0.3
v -0.7 1 -0.6
v -0.6 1 -0.6
v 0.6 1 -0.6
v 0.7 1 -0.6
v -0.7 1 -0.7
v -0.6 1 -0.7
v 0.6 1 -0.7
v 0.7 1 -0.7
v -0.3 1 -1.1
v -0.2 1 -1.1
v 0.2 1 -1.1
v 0.3 1 -1.1
v -0.3 1 -1.2
v -0.2 1 -1.2
v 0.2 1 -1.2
v 0.3 1 -1.2
v -0.2 1.1 1.2
v 0.2 1.1 1.2
v -0.3 1.1 1.1
v -0.2 1.1 1.1
v 0.2 1.1 1.1
v 0.3 1.1 1.1
v -0.4 1.1 1
v -0.3 1.1 1
v 0.3 1.1 1
v 0.4 1.1 1
v -0.4 1.1 0.9
v -0.3 1.1 0.9
v 0.3 1.1 0.9
v 0.4 1.1 0.9
v -0.6 1.1 0.8
v -0.5 1.1 0.8
v -0.3 1.1 0.8
v 0.3 1.1 0.8
v 0.5 1.1 0.8
v 0.6 1.1 0.8
v -0.6 1.1 0.7
v -0.5 1.1 0.7
v 0.5 1.1 0.7
v 0.6 1.1 0.7
v -0.7 1.1 0.5
v -0.6 1.1 0.5
v 0.6 1.1 0.5
v 0.7 1.1 0.5
v -0.7 1.1 0.4
v -0.6 1.1 0.4
v 0.6 1.1 0.4
v 0.7 1.1 0.4
v -0.8 1.1 0.2
v -0.7 1.1 0.2
v 0.7 1.1 0.2
v 0.8 1.1 0.2
v -0.8 1.1 -0.5
v -0.7 1.1 -0.5
v 0.7 1.1 -0.5
v 0.8 1.1 -0.5
v -0.7 1.1 -0.7
v -0.6 1.1 -0.7
v 0.6 1.1 -0.7
v 0.7 1.1 -0.7
v -0.7 1.1 -0.8
v -0.6 1.1 -0.8
v 0.6 1.1 -0.8
v 0.7 1.1 -0.8
v -0.6 1.1 -1
v -0.5 1.1 -1
v 0.5 1.1 -1
v 0.6 1.1 -1
v -0.6 1.1 -1.1
v -0.5 1.1 -1.1
v -0.4 1.1 -1.1
v -0.3 1.1 -1.1
v 0.3 1.1 -1.1
v 0.4 1.1 -1.1
v 0.5 1.1 -1.1
v 0.6 1.1 -1.1
v -0.4 1.1 -1.2
v -0.3 1.1 -1.2
v 0.3 1.1 -1.2
v 0.4 1.1 -1.2
v -0.1 1.2 1.5
v 0.1 1.2 1.5
v -0.2 1.2 1.3
v -0.1 1.2 1.3
v 0.1 1.2 1.3
v 0.2 1.2 1.3
v -0.3 1.2 1.2
v -0.2 1.2 1.2
v 0.2 1.2 1.2
v 0.3 1.2 1.2
v -0.4 1.2 1.1
v -0.3 1.2 1.1
v -0.2 1.2 1.1
v 0.2 1.2 1.1
v 0.3 1.2 1.1
v 0.4 1.2 1.1
v -0.4 1.2 1
v -0.3 1.2 1
v 0.3 1.2 1
v 0.4 1.2 1
v -0.4 1.2 0.9
v -0.3 1.2 0.9
v 0.3 1.2 0.9
v 0.4 1.2 0.9
v -0.4 1.2 0.8
v -0.3 1.2 0.8
v 0.3 1.2 0.8
v 0.4 1.2 0.8
v -0.8 1.2 0.3
v -0.7 1.2 0.3
v 0.7 1.2 0.3
v 0.8 1.2 0.3
v -0.8 1.2 0.2
v -0.7 1.2 0.2
v 0.7 1.2 0.2
v 0.8 1.2 0.2
v -0.8 1.2 -0.5
v -0.7 1.2 -0.5
v 0.7 1.2 -0.5
v 0.8 1.2 -0.5
v -0.8 1.2 -0.6
v -0.7 1.2 -0.6
v 0.7 1.2 -0.6
v 0.8 1.2 -0.6
v -0.1 1.2 -1.2
v 0.1 1.2 -1.2
v -0.2 1.2 -1.3
v -0.1 1.2 -1.3
v 0.1 1.2 -1.3
v 0.2 1.2 -1.3
v -0.2 1.2 -1.4
v -0.1 1.2 -1.4
v 0.1 1.2 -1.4
v 0.2 1.2 -1.4
v -0.1 1.2 -1.5
v 0.1 1.2 -1.5
v -0.4 1.3 1.2
v -0.3 1.3 1.2
v 0.3 1.3 1.2
v 0.4 1.3 1.2
v -0.4 1.3 1.1
v -0.3 1.3 1.1
v 0.3 1.3 1.1
v 0.4 1.3 1.1
v -0.5 1.3 0.9
v -0.4 1.3 0.9
v 0.4 1.3 0.9
v 0.5 1.3 0.9
v -0.5 1.3 0.8
v -0.4 1.3 0.8
v 0.4 1.3 0.8
v 0.5 1.3 0.8
v -0.2 1.3 -1.2
v -0.1 1.3 -1.2
v 0.1 1.3 -1.2
v 0.2 1.3 -1.2
v -0.2 1.3 -1.3
v -0.1 1.3 -1.3
v 0.1 1.3 -1.3
v 0.2 1.3 -1.3
v -0.2 1.3 -1.4
v -0.1 1.3 -1.4
v 0.1 1.3 -1.4
v 0.2 1.3 -1.4
v -0.2 1.3 -1.5
v -0.1 1.3 -1.5
v 0.1 1.3 -1.5
v 0.2 1.3 -1.5
v 0.4 1.5 1
v 0.5 1.5 1
v 0.4 1.5 0.9
v 0.5 1.5 0.9
v -0.5 1.6 1
v -0.4 1.6 1
v -0.5 1.6 0.9
v -0.4 1.6 0.9
v -0.5 0.1 0.9
v -0.4 0.1 0.9
v -0.3 0.1 0.9
v -0.2 0.1 0.9
v 0.2 0.1 0.9
v 0.3 0.1 0.9
v 0.4 0.1 0.9
v 0.5 0.1 0.9
v -0.5 0.1 0.8
v -0.4 0.1 0.8
v -0.3 0.1 0.8
v -0.2 0.1 0.8
v 0.2 0.1 0.8
v 0.3 0.1 0.8
v 0.4 0.1 0.8
v 0.5 0.1 0.8
v -0.5 0.1 -0.6
v -0.4 0.1 -0.6
v -0.3 0.1 -0.6
v -0.2 0.1 -0.6
v 0.2 0.1 -0.6
v 0.3 0.1 -0.6
v 0.4 0.1 -0.6
v 0.5 0.1 -0.6
v -0.5 0.1 -0.7
v -0.4 0.1 -0.7
v -0.3 0.1 -0.7
v -0.2 0.1 -0.7
v 0.2 0.1 -0.7
v 0.3 0.1 -0.7
v 0.4 0.1 -0.7
v 0.5 0.1 -0.7
v -0.5 0.6 0.5
v -0.4 0.6 0.5
v -0.3 0.6 0.5
v -0.2 0.6 0.5
v 0.2 0.6 0.5
v 0.3 0.6 0.5
v 0.4 0.6 0.5
v 0.5 0.6 0.5
v -0.5 0.6 0.4
v -0.4 0.6 0.4
v -0.3 0.6 0.4
v -0.2 0.6 0.4
v 0.2 0.6 0.4
v 0.3 0.6 0.4
v 0.4 0.6 0.4
v 0.5 0.6 0.4
v -0.5 0.7 -0.7
v -0.4 0.7 -0.7
v 0.4 0.7 -0.7
v 0.5 0.7 -0.7
v -0.5 0.7 -0.8
v -0.4 0.7 -0.8
v 0.4 0.7 -0.8
v 0.5 0.7 -0.8
v -0.5 0.7 -1
v -0.4 0.7 -1
v 0.4 0.7 -1
v 0.5 0.7 -1
v -0.5 0.7 -1.1
v -0.4 0.7 -1.1
v 0.4 0.7 -1.1
v 0.5 0.7 -1.1
v -0.5 0.9 0.8
v -0.4 0.9 0.8
v 0.4 0.9 0.8
v 0.5 0.9 0.8
v -0.5 0.9 0.7
v -0.4 0.9 0.7
v 0.4 0.9 0.7
v 0.5 0.9 0.7
v -0.1 1.4 1.5
v 0.1 1.4 1.5
v -0.1 1.4 1.4
v 0.1 1.4 1.4
v -0.2 1.4 1.3
v -0.1 1.4 1.3
v 0.1 1.4 1.3
v 0.2 1.4 1.3
v -0.2 1.4 1.2
v -0.1 1.4 1.2
v 0.1 1.4 1.2
v 0.2 1.4 1.2
v -0.2 1.4 -1.2
v -0.1 1.4 -1.2
v 0.1 1.4 -1.2
v 0.2 1.4 -1.2
v -0.2 1.4 -1.3
v -0.1 1.4 -1.3
v 0.1 1.4 -1.3
v 0.2 1.4 -1.3
v -0.2 1.4 -1.4
v -0.1 1.4 -1.4
v 0.1 1.4 -1.4
v 0.2 1.4 -1.4
v -0.2 1.4 -1.5
v -0.1 1.4 -1.5
v 0.1 1.4 -1.5
v 0.2 1.4 -1.5
v -0.1 1.5 1.3
v 0.1 1.5 1.3
v -0.1 1.5 1.2
v 0.1 1.5 1.2
v -0.5 1.5 0.9
v -0.4 1.5 0.9
v 0.4 1.5 0.9
v 0.5 1.5 0.9
v -0.6 1.5 0.8
v -0.5 1.5 0.8
v -0.4 1.5 0.8
v 0.4 1.5 0.8
v 0.5 1.5 0.8
v 0.6 1.5 0.8
v -0.6 1.5 0.7
v -0.5 1.5 0.7
v 0.5 1.5 0.7
v 0.6 1.5 0.7
v -0.8 1.5 0.3
v -0.7 1.5 0.3
v 0.7 1.5 0.3
v 0.8 1.5 0.3
v -0.8 1.5 0.2
v -0.7 1.5 0.2
v 0.7 1.5 0.2
v 0.8 1.5 0.2
v -0.8 1.5 -0.5
v -0.7 1.5 -0.5
v 0.7 1.5 -0.5
v 0.8 1.5 -0.5
v -0.8 1.5 -0.6
v -0.7 1.5 -0.6
v 0.7 1.5 -0.6
v 0.8 1.5 -0.6
v -0.4 1.5 -1.1
v -0.3 1.5 -1.1
v 0.3 1.5 -1.1
v 0.4 1.5 -1.1
v -0.4 1.5 -1.2
v -0.3 1.5 -1.2
v -0.1 1.5 -1.2
v 0.1 1.5 -1.2
v 0.3 1.5 -1.2
v 0.4 1.5 -1.2
v -0.2 1.5 -1.3
v -0.1 1.5 -1.3
v 0.1 1.5 -1.3
v 0.2 1.5 -1.3
v -0.2 1.5 -1.4
v -0.1 1.5 -1.4
v 0.1 1.5 -1.4
v 0.2 1.5 -1.4
v -0.1 1.5 -1.5
v 0.1 1.5 -1.5
v -0.4 1.6 1.2
v -0.3 1.6 1.2
v 0.3 1.6 1.2
v 0.4 1.6 1.2
v -0.4 1.6 1.1
v -0.3 1.6 1.1
v 0.3 1.6 1.1
v 0.4 1.6 1.1
v -0.4 1.6 0.9
v -0.3 1.6 0.9
v 0.3 1.6 0.9
v 0.4 1.6 0.9
v -0.4 1.6 0.8
v -0.3 1.6 0.8
v 0.3 1.6 0.8
v 0.4 1.6 0.8
v -0.7 1.6 0.5
v -0.6 1.6 0.5
v 0.6 1.6 0.5
v 0.7 1.6 0.5
v -0.7 1.6 0.4
v -0.6 1.6 0.4
v 0.6 1.6 0.4
v 0.7 1.6 0.4
v -0.8 1.6 0.2
v -0.7 1.6 0.2
v 0.7 1.6 0.2
v 0.8 1.6 0.2
v -0.8 1.6 -0.5
v -0.7 1.6 -0.5
v 0.7 1.6 -0.5
v 0.8 1.6 -0.5
v -0.7 1.6 -0.7
v -0.6 1.6 -0.7
v 0.6 1.6 -0.7
v 0.7 1.6 -0.7
v -0.7 1.6 -0.8
v -0.6 1.6 -0.8
v 0.6 1.6 -0.8
v 0.7 1.6 -0.8
v -0.6 1.6 -1
v -0.5 1.6 -1
v 0.5 1.6 -1
v 0.6 1.6 -1
v -0.6 1.6 -1.1
v -0.5 1.6 -1.1
v -0.3 1.6 -1.1
v -0.2 1.6 -1.1
v 0.2 1.6 -1.1
v 0.3 1.6 -1.1
v 0.5 1.6 -1.1
v 0.6 1.6 -1.1
v -0.3 1.6 -1.2
v -0.2 1.6 -1.2
v 0.2 1.6 -1.2
v 0.3 1.6 -1.2
v -0.3 1.7 1.2
v 0.3 1.7 1.2
v -0.4 1.7 1.1
v -0.3 1.7 1.1
v -0.1 1.7 1.1
v 0.1 1.7 1.1
v 0.3 1.7 1.1
v 0.4 1.7 1.1
v -0.4 1.7 1
v -0.2 1.7 1
v -0.1 1.7 1
v 0.1 1.7 1
v 0.2 1.7 1
v 0.4 1.7 1
v -0.3 1.7 0.9
v -0.2 1.7 0.9
v 0.2 1.7 0.9
v 0.3 1.7 0.9
v -0.5 1.7 0.8
v -0.4 1.7 0.8
v -0.3 1.7 0.8
v -0.2 1.7 0.8
v 0.2 1.7 0.8
v 0.3 1.7 0.8
v 0.4 1.7 0.8
v 0.5 1.7 0.8
v -0.6 1.7 0.7
v -0.5 1.7 0.7
v -0.4 1.7 0.7
v 0.4 1.7 0.7
v 0.5 1.7 0.7
v 0.6 1.7 0.7
v -0.6 1.7 0.6
v -0.5 1.7 0.6
v 0.5 1.7 0.6
v 0.6 1.7 0.6
v -0.7 1.7 0.4
v -0.6 1.7 0.4
v 0.6 1.7 0.4
v 0.7 1.7 0.4
v -0.7 1.7 0.3
v -0.6 1.7 0.3
v 0.6 1.7 0.3
v 0.7 1.7 0.3
v -0.7 1.7 -0.6
v -0.6 1.7 -0.6
v 0.6 1.7 -0.6
v 0.7 1.7 -0.6
v -0.7 1.7 -0.7
v -0.6 1.7 -0.7
v 0.6 1.7 -0.7
v 0.7 1.7 -0.7
v -0.6 1.7 -0.9
v -0.5 1.7 -0.9
v 0.5 1.7 -0.9
v 0.6 1.7 -0.9
v -0.6 1.7 -1
v -0.5 1.7 -1
v -0.4 1.7 -1
v 0.4 1.7 -1
v 0.5 1.7 -1
v 0.6 1.7 -1
v -0.5 1.7 -1.1
v -0.4 1.7 -1.1
v -0.2 1.7 -1.1
v 0.2 1.7 -1.1
v 0.4 1.7 -1.1
v 0.5 1.7 -1.1
v -0.2 1.7 -1.2
v 0.2 1.7 -1.2
v -0.1 1.8 1.1
v 0.1 1.8 1.1
v -0.5 1.8 1
v -0.4 1.8 1
v -0.2 1.8 1
v -0.1 1.8 1
v 0.1 1.8 1
v 0.2 1.8 1
v 0.4 1.8 1
v 0.5 1.8 1
v -0.5 1.8 0.9
v -0.4 1.8 0.9
v -0.2 1.8 0.9
v 0.2 1.8 0.9
v 0.4 1.8 0.9
v 0.5 1.8 0.9
v -0.4 1.8 0.8
v -0.2 1.8 0.8
v 0.2 1.8 0.8
v 0.4 1.8 0.8
v -0.5 1.8 0.7
v -0.4 1.8 0.7
v -0.2 1.8 0.7
v 0.2 1.8 0.7
v 0.4 1.8 0.7
v 0.5 1.8 0.7
v -0.6 1.8 0.6
v -0.5 1.8 0.6
v -0.4 1.8 0.6
v 0.4 1.8 0.6
v 0.5 1.8 0.6
v 0.6 1.8 0.6
v -0.6 1.8 0.4
v -0.5 1.8 0.4
v 0.5 1.8 0.4
v 0.6 1.8 0.4
v -0.7 1.8 0.3
v -0.6 1.8 0.3
v 0.6 1.8 0.3
v 0.7 1.8 0.3
v -0.7 1.8 -0.6
v -0.6 1.8 -0.6
v 0.6 1.8 -0.6
v 0.7 1.8 -0.6
v -0.6 1.8 -0.7
v -0.5 1.8 -0.7
v 0.5 1.8 -0.7
v 0.6 1.8 -0.7
v -0.6 1.8 -0.9
v -0.5 1.8 -0.9
v -0.4 1.8 -0.9
v 0.4 1.8 -0.9
v 0.5 1.8 -0.9
v 0.6 1.8 -0.9
v -0.5 1.8 -1
v -0.4 1.8 -1
v -0.2 1.8 -1
v 0.2 1.8 -1
v 0.4 1.8 -1
v 0.5 1.8 -1
v -0.4 1.8 -1.1
v -0.2 1.8 -1.1
v 0.2 1.8 -1.1
v 0.4 1.8 -1.1
v -0.4 1.9 1
v -0.2 1.9 1
v 0.2 1.9 1
v 0.4 1.9 1
v -0.4 1.9 0.9
v -0.2 1.9 0.9
v 0.2 1.9 0.9
v 0.4 1.9 0.9
v -0.2 1.9 0.8
v 0.2 1.9 0.8
v -0.4 1.9 0.7
v -0.2 1.9 0.7
v 0.2 1.9 0.7
v 0.4 1.9 0.7
v -0.5 1.9 0.6
v -0.4 1.9 0.6
v -0.2 1.9 0.6
v 0.2 1.9 0.6
v 0.4 1.9 0.6
v 0.5 1.9 0.6
v -0.3 1.9 0.5
v -0.2 1.9 0.5
v 0.2 1.9 0.5
v 0.3 1.9 0.5
v -0.6 1.9 0.4
v -0.5 1.9 0.4
v -0.4 1.9 0.4
v -0.3 1.9 0.4
v 0.3 1.9 0.4
v 0.4 1.9 0.4
v 0.5 1.9 0.4
v 0.6 1.9 0.4
v -0.5 1.9 0.3
v -0.4 1.9 0.3
v 0.4 1.9 0.3
v 0.5 1.9 0.3
v -0.5 1.9 -0.6
v -0.4 1.9 -0.6
v 0.4 1.9 -0.6
v 0.5 1.9 -0.6
v -0.6 1.9 -0.7
v -0.5 1.9 -0.7
v -0.4 1.9 -0.7
v -0.3 1.9 -0.7
v 0.3 1.9 -0.7
v 0.4 1.9 -0.7
v 0.5 1.9 -0.7
v 0.6 1.9 -0.7
v -0.3 1.9 -0.8
v -0.2 1.9 -0.8
v 0.2 1.9 -0.8
v 0.3 1.9 -0.8
v -0.5 1.9 -0.9
v -0.4 1.9 -0.9
v -0.2 1.9 -0.9
v 0.2 1.9 -0.9
v 0.4 1.9 -0.9
v 0.5 1.9 -0.9
v -0.4 1.9 -1
v -0.2 1.9 -1
v 0.2 1.9 -1
v 0.4 1.9 -1
v -0.2 1.9 -1.1
v 0.2 1.9 -1.1
v -0.2 2 0.6
v 0.2 2 0.6
v -0.3 2 0.5
v -0.2 2 0.5
v 0.2 2 0.5
v 0.3 2 0.5
v -0.4 2 0.4
v -0.3 2 0.4
v -0.1 2 0.4
v 0.1 2 0.4
v 0.3 2 0.4
v 0.4 2 0.4
v -0.5 2 0.3
v -0.4 2 0.3
v -0.2 2 0.3
v -0.1 2 0.3
v 0.1 2 0.3
v 0.2 2 0.3
v 0.4 2 0.3
v 0.5 2 0.3
v -0.3 2 0.2
v -0.2 2 0.2
v 0.2 2 0.2
v 0.3 2 0.2
v -0.3 2 -0.5
v -0.2 2 -0.5
v 0.2 2 -0.5
v 0.3 2 -0.5
v -0.5 2 -0.6
v -0.4 2 -0.6
v -0.2 2 -0.6
v -0.1 2 -0.6
v 0.1 2 -0.6
v 0.2 2 -0.6
v 0.4 2 -0.6
v 0.5 2 -0.6
v -0.4 2 -0.7
v -0.3 2 -0.7
v -0.1 2 -0.7
v 0.1 2 -0.7
v 0.3 2 -0.7
v 0.4 2 -0.7
v -0.3 2 -0.8
v -0.2 2 -0.8
v 0.2 2 -0.8
v 0.3 2 -0.8
v -0.2 2 -0.9
v 0.2 2 -0.9
v -0.1 2.1 0.4
v 0.1 2.1 0.4
v -0.2 2.1 0.3
v -0.1 2.1 0.3
v 0.1 2.1 0.3
v 0.2 2.1 0.3
v -0.3 2.1 0.2
v -0.2 2.1 0.2
v 0.2 2.1 0.2
v 0.3 2.1 0.2
v -0.3 2.1 -0.5
v -0.2 2.1 -0.5
v 0.2 2.1 -0.5
v 0.3 2.1 -0.5
v -0.2 2.1 -0.6
v -0.1 2.1 -0.6
v 0.1 2.1 -0.6
v 0.2 2.1 -0.6
v -0.1 2.1 -0.7
v 0.1 2.1 -0.7

# faces
f 4/1/1 2/1/1 1/1/1
f 5/1/1 2/1/1 4/1/1
f 7/1/1 4/1/1 3/1/1
f 7/1/1 6/1/1 5/1/1
f 7/1/1 5/1/1 4/1/1
f 8/1/1 6/1/1 7/1/1
f 9/1/1 6/1/1 8/1/1
f 10/1/1 6/1/1 9/1/1
f 11/1/1 9/1/1 8/1/1
f 12/1/1 9/1/1 11/1/1
f 16/1/1 14/1/1 13/1/1
f 17/1/1 14/1/1 16/1/1
f 20/1/1 16/1/1 15/1/1
f 20/1/1 18/1/1 17/1/1
f 20/1/1 17/1/1 16/1/1
f 21/1/1 18/1/1 20/1/1
f 22/1/1 18/1/1 21/1/1
f 23/1/1 18/1/1 22/1/1
f 25/1/1 20/1/1 19/1/1
f 25/1/1 21/1/1 20/1/1
f 26/1/1 21/1/1 25/1/1
f 27/1/1 24/1/1 23/1/1
f 27/1/1 23/1/1 22/1/1
f 28/1/1 24/1/1 27/1/1
f 29/1/1 25/1/1 19/1/1
f 32/1/1 24/1/1 28/1/1
f 33/1/1 30/1/1 29/1/1
f 33/1/1 29/1/1 19/1/1
f 34/1/1 30/1/1 33/1/1
f 35/1/1 30/1/1 34/1/1
f 36/1/1 32/1/1 31/1/1
f 37/1/1 24/1/1 32/1/1
f 37/1/1 32/1/1 36/1/1
f 38/1/1 24/1/1 37/1/1
f 39/1/1 35/1/1 34/1/1
f 39/1/1 36/1/1 35/1/1
f 39/1/1 37/1/1 36/1/1
f 40/1/1 37/1/1 39/1/1
f 41/1/1 37/1/1 40/1/1
f 42/1/1 37/1/1 41/1/1
f 43/1/1 41/1/1 40/1/1
f 44/1/1 41/1/1 43/1/1
f 50/1/1 46/1/1 45/1/1
f 51/1/1 46/1/1 50/1/1
f 52/1/1 46/1/1 51/1/1
f 54/1/1 48/1/1 47/1/1
f 55/1/1 48/1/1 54/1/1
f 57/1/1 50/1/1 49/1/1
f 57/1/1 51/1/1 50/1/1
f 58/1/1 51/1/1 57/1/1
f 59/1/1 56/1/1 55/1/1
f 59/1/1 55/1/1 54/1/1
f 59/1/1 54/1/1 53/1/1
f 60/1/1 56/1/1 59/1/1
f 62/1/1 57/1/1 49/1/1
f 63/1/1 57/1/1 62/1/1
f 64/1/1 57/1/1 63/1/1
f 65/1/1 56/1/1 60/1/1
f 66/1/1 56/1/1 65/1/1
f 67/1/1 56/1/1 66/1/1
f 69/1/1 62/1/1 61/1/1
f 69/1/1 63/1/1 62/1/1
f 70/1/1 63/1/1 69/1/1
f 71/1/1 63/1/1 70/1/1
f 74/1/1 68/1/1 67/1/1
f 74/1/1 67/1/1 66/1/1
f 75/1/1 68/1/1 74/1/1
f 76/1/1 68/1/1 75/1/1
f 77/1/1 72/1/1 71/1/1
f 77/1/1 71/1/1 70/1/1
f 78/1/1 72/1/1 77/1/1
f 79/1/1 72/1/1 78/1/1
f 82/1/1 75/1/1 74/1/1
f 82/1/1 74/1/1 73/1/1
f 83/1/1 75/1/1 82/1/1
f 84/1/1 75/1/1 83/1/1
f 85/1/1 80/1/1 79/1/1
f 85/1/1 79/1/1 78/1/1
f 86/1/1 80/1/1 85/1/1
f 87/1/1 80/1/1 86/1/1
f 88/1/1 83/1/1 82/1/1
f 88/1/1 82/1/1 81/1/1
f 89/1/1 83/1/1 88/1/1
f 90/1/1 83/1/1 89/1/1
f 91/1/1 87/1/1 86/1/1
f 91/1/1 89/1/1 88/1/1
f 91/1/1 88/1/1 87/1/1
f 92/1/1 89/1/1 91/1/1
f 97/3/1 94/3/1 93/3/1
f 98/3/1 94/3/1 97/3/1
f 99/3/1 94/3/1 98/3/1
f 100/3/1 96/3/1 95/3/1
f 101/3/1 96/3/1 100/3/1
f 102/3/1 96/3/1 101/3/1
f 103/3/1 94/3/1 99/3/1
f 103/1/1 99/1/1 98/1/1
f 104/3/1 94/3/1 103/3/1
f 105/3/1 96/3/1 102/3/1
f 105/1/1 102/1/1 101/1/1
f 106/3/1 96/3/1 105/3/1
f 108/1/1 104/1/1 103/1/1
f 110/1/1 108/1/1 103/1/1
f 110/1/1 109/1/1 108/1/1
f 111/1/1 109/1/1 110/1/1
f 112/1/1 107/1/1 106/1/1
f 112/1/1 105/1/1 101/1/1
f 112/1/1 106/1/1 105/1/1
f 113/1/1 107/1/1 112/1/1
f 114/1/1 107/1/1 113/1/1
f 115/1/1 107/1/1 114/1/1
f 116/1/1 110/1/1 103/1/1
f 119/1/1 114/1/1 113/1/1
f 120/1/1 114/1/1 119/1/1
f 121/1/1 103/1/1 98/1/1
f 121/1/1 116/1/1 103/1/1
f 122/1/1 116/1/1 121/1/1
f 123/1/1 116/1/1 122/1/1
f 124/1/1 118/1/1 117/1/1
f 125/1/1 118/1/1 124/1/1
f 126/1/1 114/1/1 120/1/1
f 127/1/1 114/1/1 126/1/1
f 131/1/1 130/1/1 129/1/1
f 132/1/1 130/1/1 131/1/1
f 133/1/1 128/1/1 127/1/1
f 134/1/1 128/1/1 133/1/1
f 137/1/1 136/1/1 135/1/1
f 138/1/1 136/1/1 137/1/1
f 144/1/1 139/1/1 138/1/1
f 145/1/1 139/1/1 144/1/1
f 148/1/1 143/1/1 142/1/1
f 149/1/1 143/1/1 148/1/1
f 150/1/1 141/1/1 140/1/1
f 151/1/1 141/1/1 150/1/1
f 152/1/1 146/1/1 145/1/1
f 153/1/1 146/1/1 152/1/1
f 156/1/1 148/1/1 147/1/1
f 157/1/1 148/1/1 156/1/1
f 158/1/1 154/1/1 153/1/1
f 159/1/1 154/1/1 158/1/1
f 162/1/1 156/1/1 155/1/1
f 163/1/1 156/1/1 162/1/1
f 164/1/1 161/1/1 160/1/1
f 165/1/1 161/1/1 164/1/1
f 170/3/1 167/3/1 166/3/1
f 171/3/1 167/3/1 170/3/1
f 172/3/1 169/3/1 168/3/1
f 173/3/1 169/3/1 172/3/1
f 174/1/1 171/1/1 170/1/1
f 175/1/1 173/1/1 172/1/1
f 176/1/1 173/1/1 175/1/1
f 177/1/1 171/1/1 174/1/1
f 178/1/1 171/1/1 177/1/1
f 185/1/1 180/1/1 179/1/1
f 186/1/1 180/1/1 185/1/1
f 187/1/1 182/1/1 181/1/1
f 188/1/1 182/1/1 187/1/1
f 191/1/1 184/1/1 183/1/1
f 192/1/1 184/1/1 191/1/1
f 193/1/1 190/1/1 189/1/1
f 194/1/1 190/1/1 193/1/1
f 200/1/1 196/1/1 195/1/1
f 201/1/1 196/1/1 200/1/1
f 204/1/1 200/1/1 199/1/1
f 204/1/1 202/1/1 201/1/1
f 204/1/1 201/1/1 200/1/1
f 205/1/1 202/1/1 204/1/1
f 206/1/1 202/1/1 205/1/1
f 207/1/1 204/1/1 203/1/1
f 207/1/1 205/1/1 204/1/1
f 209/1/1 198/1/1 197/1/1
f 210/1/1 198/1/1 209/1/1
f 211/1/1 208/1/1 207/1/1
f 211/1/1 207/1/1 203/1/1
f 212/1/1 208/1/1 211/1/1
f 213/1/1 208/1/1 212/1/1
f 214/1/1 208/1/1 213/1/1
f 215/1/1 208/1/1 214/1/1
f 216/1/1 213/1/1 212/1/1
f 217/1/1 213/1/1 216/1/1
f 224/1/1 219/1/1 218/1/1
f 225/1/1 219/1/1 224/1/1
f 228/1/1 221/1/1 220/1/1
f 229/1/1 221/1/1 228/1/1
f 230/1/1 223/1/1 222/1/1
f 231/1/1 223/1/1 230/1/1
f 232/1/1 226/1/1 225/1/1
f 233/1/1 226/1/1 232/1/1
f 238/1/1 228/1/1 227/1/1
f 239/1/1 228/1/1 238/1/1
f 240/1/1 235/1/1 234/1/1
f 241/1/1 235/1/1 240/1/1
f 242/1/1 237/1/1 236/1/1
f 243/1/1 237/1/1 242/1/1
f 248/3/1 245/3/1 244/3/1
f 249/3/1 245/3/1 248/3/1
f 250/3/1 247/3/1 246/3/1
f 251/3/1 247/3/1 250/3/1
f 258/1/1 253/1/1 252/1/1
f 259/1/1 253/1/1 258/1/1
f 261/1/1 255/1/1 254/1/1
f 262/1/1 255/1/1 261/1/1
f 263/1/1 257/1/1 256/1/1
f 264/1/1 257/1/1 263/1/1
f 265/1/1 261/1/1 260/1/1
f 266/1/1 261/1/1 265/1/1
f 273/1/1 268/1/1 267/1/1
f 274/1/1 268/1/1 273/1/1
f 275/1/1 270/1/1 269/1/1
f 276/1/1 270/1/1 275/1/1
f 277/1/1 272/1/1 271/1/1
f 278/1/1 272/1/1 277/1/1
f 283/1/1 280/1/1 279/1/1
f 284/1/1 280/1/1 283/1/1
f 287/1/1 282/1/1 281/1/1
f 288/1/1 282/1/1 287/1/1
f 289/1/1 286/1/1 285/1/1
f 290/1/1 286/1/1 289/1/1
f 293/1/1 292/1/1 291/1/1
f 294/1/1 292/1/1 293/1/1
f 298/1/1 296/1/1 295/1/1
f 299/1/1 296/1/1 298/1/1
f 303/1/1 301/1/1 300/1/1
f 304/1/1 301/1/1 303/1/1
f 306/1/1 298/1/1 297/1/1
f 307/1/1 298/1/1 306/1/1
f 308/1/1 305/1/1 304/1/1
f 308/1/1 303/1/1 302/1/1
f 308/1/1 304/1/1 303/1/1
f 309/1/1 305/1/1 308/1/1
f 310/1/1 305/1/1 309/1/1
f 311/1/1 305/1/1 310/1/1
f 312/1/1 310/1/1 309/1/1
f 313/1/1 310/1/1 312/1/1
f 318/1/1 315/1/1 314/1/1
f 319/1/1 315/1/1 318/1/1
f 320/1/1 317/1/1 316/1/1
f 321/1/1 317/1/1 320/1/1
f 325/1/1 322/1/1 321/1/1
f 326/1/1 322/1/1 325/1/1
f 331/1/1 324/1/1 323/1/1
f 332/1/1 324/1/1 331/1/1
f 333/1/1 328/1/1 327/1/1
f 334/1/1 328/1/1 333/1/1
f 339/1/1 330/1/1 329/1/1
f 340/1/1 330/1/1 339/1/1
f 341/1/1 336/1/1 335/1/1
f 342/1/1 336/1/1 341/1/1
f 343/1/1 338/1/1 337/1/1
f 344/1/1 338/1/1 343/1/1
f 351/1/1 346/1/1 345/1/1
f 352/1/1 346/1/1 351/1/1
f 353/1/1 348/1/1 347/1/1
f 354/1/1 348/1/1 353/1/1
f 355/1/1 350/1/1 349/1/1
f 356/1/1 350/1/1 355/1/1
f 357/2/1 352/2/1 351/2/1
f 358/1/1 346/1/1 352/1/1
f 358/2/1 352/2/1 357/2/1
f 359/1/1 346/1/1 358/1/1
f 365/1/1 360/1/1 359/1/1
f 366/1/1 360/1/1 365/1/1
f 367/1/1 362/1/1 361/1/1
f 368/1/1 362/1/1 367/1/1
f 369/1/1 364/1/1 363/1/1
f 370/1/1 364/1/1 369/1/1
f 373/1/1 372/1/1 371/1/1
f 374/1/1 372/1/1 373/1/1
f 379/1/1 376/1/1 375/1/1
f 380/1/1 376/1/1 379/1/1
f 381/1/1 378/1/1 377/1/1
f 382/1/1 378/1/1 381/1/1
f 385/1/1 384/1/1 383/1/1
f 386/1/1 384/1/1 385/1/1
f 391/3/1 388/3/1 387/3/1
f 392/3/1 388/3/1 391/3/1
f 393/3/1 388/3/1 392/3/1
f 394/3/1 390/3/1 389/3/1
f 395/3/1 390/3/1 394/3/1
f 396/3/1 390/3/1 395/3/1
f 397/3/1 388/3/1 393/3/1
f 397/1/1 393/1/1 392/1/1
f 398/3/1 388/3/1 397/3/1
f 399/3/1 390/3/1 396/3/1
f 399/1/1 396/1/1 395/1/1
f 400/3/1 390/3/1 399/3/1
f 402/1/1 398/1/1 397/1/1
f 404/1/1 402/1/1 397/1/1
f 404/1/1 403/1/1 402/1/1
f 405/1/1 403/1/1 404/1/1
f 406/1/1 397/1/1 392/1/1
f 406/1/1 404/1/1 397/1/1
f 407/1/1 404/1/1 406/1/1
f 408/1/1 401/1/1 400/1/1
f 408/1/1 399/1/1 395/1/1
f 408/1/1 400/1/1 399/1/1
f 409/1/1 401/1/1 408/1/1
f 410/1/1 406/1/1 392/1/1
f 411/1/1 406/1/1 410/1/1
f 414/1/1 413/1/1 412/1/1
f 415/1/1 413/1/1 414/1/1
f 420/3/1 417/3/1 416/3/1
f 421/3/1 417/3/1 420/3/1
f 422/3/1 419/3/1 418/3/1
f 423/3/1 419/3/1 422/3/1
f 424/1/1 421/1/1 420/1/1
f 425/1/1 423/1/1 422/1/1
f 426/1/1 423/1/1 425/1/1
f 427/1/1 421/1/1 424/1/1
f 428/1/1 421/1/1 427/1/1
f 431/1/1 430/1/1 429/1/1
f 432/1/1 430/1/1 431/1/1
f 437/3/1 434/3/1 433/3/1
f 438/3/1 434/3/1 437/3/1
f 439/3/1 436/3/1 435/3/1
f 440/3/1 436/3/1 439/3/1
f 441/3/2 442/3/2 445/3/2
f 445/3/2 442/3/2 446/3/2
f 443/3/2 444/3/2 447/3/2
f 447/3/2 444/3/2 448/3/2
f 449/3/2 450/3/2 453/3/2
f 453/3/2 450/3/2 454/3/2
f 451/3/2 452/3/2 455/3/2
f 455/3/2 452/3/2 456/3/2
f 453/1/2 454/1/2 457/1/2
f 455/1/2 456/1/2 458/1/2
f 458/1/2 456/1/2 459/1/2
f 457/1/2 454/1/2 460/1/2
f 460/1/2 454/1/2 461/1/2
f 462/1/2 463/1/2 464/1/2
f 464/1/2 463/1/2 465/1/2
f 466/3/2 467/3/2 470/3/2
f 470/3/2 467/3/2 471/3/2
f 471/3/2 467/3/2 472/3/2
f 468/3/2 469/3/2 473/3/2
f 473/3/2 469/3/2 474/3/2
f 474/3/2 469/3/2 475/3/2
f 472/3/2 467/3/2 476/3/2
f 471/1/2 472/1/2 476/1/2
f 476/3/2 467/3/2 477/3/2
f 475/3/2 469/3/2 478/3/2
f 474/1/2 475/1/2 478/1/2
f 478/3/2 469/3/2 479/3/2
f 476/1/2 477/1/2 481/1/2
f 476/1/2 481/1/2 483/1/2
f 481/1/2 482/1/2 483/1/2
f 483/1/2 482/1/2 484/1/2
f 471/1/2 476/1/2 485/1/2
f 476/1/2 483/1/2 485/1/2
f 485/1/2 483/1/2 486/1/2
f 479/1/2 480/1/2 487/1/2
f 474/1/2 478/1/2 487/1/2
f 478/1/2 479/1/2 487/1/2
f 487/1/2 480/1/2 488/1/2
f 471/1/2 485/1/2 489/1/2
f 489/1/2 485/1/2 490/1/2
f 491/1/2 492/1/2 493/1/2
f 493/1/2 492/1/2 494/1/2
f 495/1/2 496/1/2 497/1/2
f 497/1/2 496/1/2 498/1/2
f 499/1/2 500/1/2 505/1/2
f 505/1/2 500/1/2 506/1/2
f 501/1/2 502/1/2 507/1/2
f 507/1/2 502/1/2 508/1/2
f 503/1/2 504/1/2 509/1/2
f 509/1/2 504/1/2 510/1/2
f 505/2/2 506/2/2 511/2/2
f 506/1/2 500/1/2 512/1/2
f 511/2/2 506/2/2 512/2/2
f 512/1/2 500/1/2 513/1/2
f 513/1/2 514/1/2 519/1/2
f 519/1/2 514/1/2 520/1/2
f 515/1/2 516/1/2 521/1/2
f 521/1/2 516/1/2 522/1/2
f 517/1/2 518/1/2 523/1/2
f 523/1/2 518/1/2 524/1/2
f 525/1/2 526/1/2 527/1/2
f 527/1/2 526/1/2 528/1/2
f 529/1/2 530/1/2 533/1/2
f 533/1/2 530/1/2 534/1/2
f 531/1/2 532/1/2 535/1/2
f 535/1/2 532/1/2 536/1/2
f 537/1/2 538/1/2 539/1/2
f 539/1/2 538/1/2 540/1/2
f 541/1/2 542/1/2 544/1/2
f 544/1/2 542/1/2 545/1/2
f 546/1/2 547/1/2 549/1/2
f 549/1/2 547/1/2 550/1/2
f 543/1/2 544/1/2 552/1/2
f 552/1/2 544/1/2 553/1/2
f 550/1/2 551/1/2 554/1/2
f 548/1/2 549/1/2 554/1/2
f 549/1/2 550/1/2 554/1/2
f 554/1/2 551/1/2 555/1/2
f 555/1/2 551/1/2 556/1/2
f 556/1/2 551/1/2 557/1/2
f 555/1/2 556/1/2 558/1/2
f 558/1/2 556/1/2 559/1/2
f 560/1/2 561/1/2 564/1/2
f 564/1/2 561/1/2 565/1/2
f 562/1/2 563/1/2 566/1/2
f 566/1/2 563/1/2 567/1/2
f 567/1/2 568/1/2 571/1/2
f 571/1/2 568/1/2 572/1/2
f 569/1/2 570/1/2 577/1/2
f 577/1/2 570/1/2 578/1/2
f 573/1/2 574/1/2 579/1/2
f 579/1/2 574/1/2 580/1/2
f 575/1/2 576/1/2 585/1/2
f 585/1/2 576/1/2 586/1/2
f 581/1/2 582/1/2 587/1/2
f 587/1/2 582/1/2 588/1/2
f 583/1/2 584/1/2 589/1/2
f 589/1/2 584/1/2 590/1/2
f 591/3/2 592/3/2 595/3/2
f 595/3/2 592/3/2 596/3/2
f 593/3/2 594/3/2 597/3/2
f 597/3/2 594/3/2 598/3/2
f 599/1/2 600/1/2 605/1/2
f 605/1/2 600/1/2 606/1/2
f 601/1/2 602/1/2 608/1/2
f 608/1/2 602/1/2 609/1/2
f 603/1/2 604/1/2 610/1/2
f 610/1/2 604/1/2 611/1/2
f 607/1/2 608/1/2 612/1/2
f 612/1/2 608/1/2 613/1/2
f 614/1/2 615/1/2 620/1/2
f 620/1/2 615/1/2 621/1/2
f 616/1/2 617/1/2 622/1/2
f 622/1/2 617/1/2 623/1/2
f 618/1/2 619/1/2 624/1/2
f 624/1/2 619/1/2 625/1/2
f 626/1/2 627/1/2 630/1/2
f 630/1/2 627/1/2 631/1/2
f 628/1/2 629/1/2 634/1/2
f 634/1/2 629/1/2 635/1/2
f 632/1/2 633/1/2 636/1/2
f 636/1/2 633/1/2 637/1/2
f 638/3/2 639/3/2 642/3/2
f 642/3/2 639/3/2 643/3/2
f 640/3/2 641/3/2 644/3/2
f 644/3/2 641/3/2 645/3/2
f 642/1/2 643/1/2 646/1/2
f 644/1/2 645/1/2 647/1/2
f 647/1/2 645/1/2 648/1/2
f 646/1/2 643/1/2 649/1/2
f 649/1/2 643/1/2 650/1/2
f 651/1/2 652/1/2 657/1/2
f 657/1/2 652/1/2 658/1/2
f 653/1/2 654/1/2 659/1/2
f 659/1/2 654/1/2 660/1/2
f 655/1/2 656/1/2 663/1/2
f 663/1/2 656/1/2 664/1/2
f 661/1/2 662/1/2 665/1/2
f 665/1/2 662/1/2 666/1/2
f 667/1/2 668/1/2 672/1/2
f 672/1/2 668/1/2 673/1/2
f 671/1/2 672/1/2 676/1/2
f 673/1/2 674/1/2 676/1/2
f 672/1/2 673/1/2 676/1/2
f 676/1/2 674/1/2 677/1/2
f 677/1/2 674/1/2 678/1/2
f 675/1/2 676/1/2 679/1/2
f 676/1/2 677/1/2 679/1/2
f 679/1/2 677/1/2 680/1/2
f 669/1/2 670/1/2 682/1/2
f 682/1/2 670/1/2 683/1/2
f 675/1/2 679/1/2 684/1/2
f 684/1/2 679/1/2 685/1/2
f 680/1/2 681/1/2 686/1/2
f 686/1/2 681/1/2 687/1/2
f 685/1/2 679/1/2 688/1/2
f 688/1/2 679/1/2 689/1/2
f 690/1/2 691/1/2 696/1/2
f 696/1/2 691/1/2 697/1/2
f 692/1/2 693/1/2 700/1/2
f 700/1/2 693/1/2 701/1/2
f 694/1/2 695/1/2 702/1/2
f 702/1/2 695/1/2 703/1/2
f 697/1/2 698/1/2 704/1/2
f 704/1/2 698/1/2 705/1/2
f 699/1/2 700/1/2 710/1/2
f 710/1/2 700/1/2 711/1/2
f 706/1/2 707/1/2 712/1/2
f 712/1/2 707/1/2 713/1/2
f 708/1/2 709/1/2 714/1/2
f 714/1/2 709/1/2 715/1/2
f 716/3/2 717/3/2 720/3/2
f 720/3/2 717/3/2 721/3/2
f 721/3/2 717/3/2 722/3/2
f 718/3/2 719/3/2 723/3/2
f 723/3/2 719/3/2 724/3/2
f 724/3/2 719/3/2 725/3/2
f 722/3/2 717/3/2 726/3/2
f 721/1/2 722/1/2 726/1/2
f 726/3/2 717/3/2 727/3/2
f 725/3/2 719/3/2 728/3/2
f 724/1/2 725/1/2 728/1/2
f 728/3/2 719/3/2 729/3/2
f 726/1/2 727/1/2 731/1/2
f 726/1/2 731/1/2 733/1/2
f 731/1/2 732/1/2 733/1/2
f 733/1/2 732/1/2 734/1/2
f 729/1/2 730/1/2 735/1/2
f 724/1/2 728/1/2 735/1/2
f 728/1/2 729/1/2 735/1/2
f 735/1/2 730/1/2 736/1/2
f 736/1/2 730/1/2 737/1/2
f 737/1/2 730/1/2 738/1/2
f 726/1/2 733/1/2 739/1/2
f 736/1/2 737/1/2 742/1/2
f 742/1/2 737/1/2 743/1/2
f 721/1/2 726/1/2 744/1/2
f 726/1/2 739/1/2 744/1/2
f 744/1/2 739/1/2 745/1/2
f 745/1/2 739/1/2 746/1/2
f 740/1/2 741/1/2 747/1/2
f 747/1/2 741/1/2 748/1/2
f 743/1/2 737/1/2 749/1/2
f 749/1/2 737/1/2 750/1/2
f 752/1/2 753/1/2 754/1/2
f 754/1/2 753/1/2 755/1/2
f 750/1/2 751/1/2 756/1/2
f 756/1/2 751/1/2 757/1/2
f 758/1/2 759/1/2 761/1/2
f 761/1/2 759/1/2 762/1/2
f 762/1/2 763/1/2 766/1/2
f 766/1/2 763/1/2 767/1/2
f 764/1/2 765/1/2 770/1/2
f 770/1/2 765/1/2 771/1/2
f 760/1/2 761/1/2 772/1/2
f 772/1/2 761/1/2 773/1/2
f 767/1/2 768/1/2 774/1/2
f 774/1/2 768/1/2 775/1/2
f 769/1/2 770/1/2 778/1/2
f 778/1/2 770/1/2 779/1/2
f 775/1/2 776/1/2 780/1/2
f 780/1/2 776/1/2 781/1/2
f 777/1/2 778/1/2 784/1/2
f 784/1/2 778/1/2 785/1/2
f 782/1/2 783/1/2 786/1/2
f 786/1/2 783/1/2 787/1/2
f 788/1/2 789/1/2 793/1/2
f 793/1/2 789/1/2 794/1/2
f 794/1/2 789/1/2 795/1/2
f 790/1/2 791/1/2 797/1/2
f 797/1/2 791/1/2 798/1/2
f 792/1/2 793/1/2 800/1/2
f 793/1/2 794/1/2 800/1/2
f 800/1/2 794/1/2 801/1/2
f 798/1/2 799/1/2 802/1/2
f 797/1/2 798/1/2 802/1/2
f 796/1/2 797/1/2 802/1/2
f 802/1/2 799/1/2 803/1/2
f 792/1/2 800/1/2 805/1/2
f 805/1/2 800/1/2 806/1/2
f 806/1/2 800/1/2 807/1/2
f 803/1/2 799/1/2 808/1/2
f 808/1/2 799/1/2 809/1/2
f 809/1/2 799/1/2 810/1/2
f 804/1/2 805/1/2 812/1/2
f 805/1/2 806/1/2 812/1/2
f 812/1/2 806/1/2 813/1/2
f 813/1/2 806/1/2 814/1/2
f 810/1/2 811/1/2 817/1/2
f 809/1/2 810/1/2 817/1/2
f 817/1/2 811/1/2 818/1/2
f 818/1/2 811/1/2 819/1/2
f 814/1/2 815/1/2 820/1/2
f 813/1/2 814/1/2 820/1/2
f 820/1/2 815/1/2 821/1/2
f 821/1/2 815/1/2 822/1/2
f 817/1/2 818/1/2 825/1/2
f 816/1/2 817/1/2 825/1/2
f 825/1/2 818/1/2 826/1/2
f 826/1/2 818/1/2 827/1/2
f 822/1/2 823/1/2 828/1/2
f 821/1/2 822/1/2 828/1/2
f 828/1/2 823/1/2 829/1/2
f 829/1/2 823/1/2 830/1/2
f 825/1/2 826/1/2 831/1/2
f 824/1/2 825/1/2 831/1/2
f 831/1/2 826/1/2 832/1/2
f 832/1/2 826/1/2 833/1/2
f 829/1/2 830/1/2 834/1/2
f 831/1/2 832/1/2 834/1/2
f 830/1/2 831/1/2 834/1/2
f 834/1/2 832/1/2 835/1/2
f 836/1/2 837/1/2 839/1/2
f 839/1/2 837/1/2 840/1/2
f 838/1/2 839/1/2 843/1/2
f 840/1/2 841/1/2 843/1/2
f 839/1/2 840/1/2 843/1/2
f 843/1/2 841/1/2 844/1/2
f 844/1/2 841/1/2 845/1/2
f 845/1/2 841/1/2 846/1/2
f 842/1/2 843/1/2 848/1/2
f 843/1/2 844/1/2 848/1/2
f 848/1/2 844/1/2 849/1/2
f 846/1/2 847/1/2 850/1/2
f 845/1/2 846/1/2 850/1/2
f 850/1/2 847/1/2 851/1/2
f 842/1/2 848/1/2 852/1/2
f 851/1/2 847/1/2 855/1/2
f 852/1/2 853/1/2 856/1/2
f 842/1/2 852/1/2 856/1/2
f 856/1/2 853/1/2 857/1/2
f 857/1/2 853/1/2 858/1/2
f 854/1/2 855/1/2 859/1/2
f 855/1/2 847/1/2 860/1/2
f 859/1/2 855/1/2 860/1/2
f 860/1/2 847/1/2 861/1/2
f 857/1/2 858/1/2 862/1/2
f 858/1/2 859/1/2 862/1/2
f 859/1/2 860/1/2 862/1/2
f 862/1/2 860/1/2 863/1/2
f 863/1/2 860/1/2 864/1/2
f 864/1/2 860/1/2 865/1/2
f 863/1/2 864/1/2 866/1/2
f 866/1/2 864/1/2 867/1/2
f 868/1/2 869/1/2 871/1/2
f 871/1/2 869/1/2 872/1/2
f 870/1/2 871/1/2 874/1/2
f 872/1/2 873/1/2 874/1/2
f 871/1/2 872/1/2 874/1/2
f 874/1/2 873/1/2 875/1/2
f 875/1/2 873/1/2 876/1/2
f 876/1/2 873/1/2 877/1/2
f 875/1/2 876/1/2 878/1/2
f 878/1/2 876/1/2 879/1/2
f 883/1/3 881/1/3 880/1/3
f 884/2/3 882/2/3 881/2/3
f 884/1/3 881/1/3 883/1/3
f 885/2/3 882/2/3 884/2/3
f 888/1/3 887/1/3 886/1/3
f 889/1/3 887/1/3 888/1/3
f 892/1/3 890/1/3 889/1/3
f 893/1/3 890/1/3 892/1/3
f 894/1/3 892/1/3 891/1/3
f 895/1/3 892/1/3 894/1/3
f 899/1/3 897/1/3 896/1/3
f 900/1/3 897/1/3 899/1/3
f 901/1/3 897/1/3 900/1/3
f 904/1/3 899/1/3 898/1/3
f 904/1/3 900/1/3 899/1/3
f 905/1/3 900/1/3 904/1/3
f 906/4/3 901/4/3 900/4/3
f 906/1/3 900/1/3 905/1/3
f 907/4/3 906/4/3 905/4/3
f 908/4/3 901/4/3 906/4/3
f 908/4/3 906/4/3 907/4/3
f 909/1/3 902/1/3 901/1/3
f 909/4/3 901/4/3 908/4/3
f 911/1/3 909/1/3 908/1/3
f 912/1/3 902/1/3 909/1/3
f 912/1/3 909/1/3 911/1/3
f 913/1/3 904/1/3 903/1/3
f 914/1/3 904/1/3 913/1/3
f 915/4/3 911/4/3 910/4/3
f 915/4/3 912/4/3 911/4/3
f 916/4/3 912/4/3 915/4/3
f 917/1/3 915/1/3 914/1/3
f 917/1/3 916/1/3 915/1/3
f 918/1/3 916/1/3 917/1/3
f 919/4/3 912/4/3 916/4/3
f 919/1/3 916/1/3 918/1/3
f 920/1/3 902/1/3 912/1/3
f 920/4/3 912/4/3 919/4/3
f 921/1/3 902/1/3 920/1/3
f 922/1/3 919/1/3 918/1/3
f 922/1/3 920/1/3 919/1/3
f 923/1/3 920/1/3 922/1/3
f 929/1/3 925/1/3 924/1/3
f 930/1/3 925/1/3 929/1/3
f 931/1/3 927/1/3 926/1/3
f 932/1/3 927/1/3 931/1/3
f 933/1/3 929/1/3 928/1/3
f 934/1/3 929/1/3 933/1/3
f 937/1/3 936/1/3 935/1/3
f 938/1/3 936/1/3 937/1/3
f 941/1/3 940/1/3 939/1/3
f 942/1/3 940/1/3 941/1/3
f 946/1/3 943/1/3 942/1/3
f 947/1/3 943/1/3 946/1/3
f 948/1/3 945/1/3 944/1/3
f 949/1/3 945/1/3 948/1/3
f 954/1/3 951/1/3 950/1/3
f 955/1/3 951/1/3 954/1/3
f 956/1/3 951/1/3 955/1/3
f 958/1/3 953/1/3 952/1/3
f 959/1/3 953/1/3 958/1/3
f 960/3/3 956/3/3 955/3/3
f 961/1/3 957/1/3 956/1/3
f 961/3/3 956/3/3 960/3/3
f 962/1/3 957/1/3 961/1/3
f 963/1/3 961/1/3 960/1/3
f 964/1/3 961/1/3 963/1/3
f 967/1/3 966/1/3 965/1/3
f 968/1/3 966/1/3 967/1/3
f 972/1/3 971/1/3 970/1/3
f 973/1/3 971/1/3 972/1/3
f 975/3/3 968/3/3 967/3/3
f 976/1/3 969/1/3 968/1/3
f 976/3/3 968/3/3 975/3/3
f 977/1/3 969/1/3 976/1/3
f 978/1/3 975/1/3 974/1/3
f 978/1/3 976/1/3 975/1/3
f 979/1/3 976/1/3 978/1/3
f 984/3/3 981/3/3 980/3/3
f 985/3/3 981/3/3 984/3/3
f 986/1/3 983/1/3 982/1/3
f 987/1/3 983/1/3 986/1/3
f 990/3/3 989/3/3 988/3/3
f 991/3/3 989/3/3 990/3/3
f 994/3/3 993/3/3 992/3/3
f 995/3/3 993/3/3 994/3/3
f 1000/3/3 997/3/3 996/3/3
f 1001/3/3 997/3/3 1000/3/3
f 1002/1/3 999/1/3 998/1/3
f 1003/1/3 999/1/3 1002/1/3
f 1009/1/3 1005/1/3 1004/1/3
f 1010/1/3 1005/1/3 1009/1/3
f 1011/1/3 1005/1/3 1010/1/3
f 1014/1/3 1007/1/3 1006/1/3
f 1015/1/3 1007/1/3 1014/1/3
f 1016/1/3 1007/1/3 1015/1/3
f 1017/1/3 1009/1/3 1008/1/3
f 1017/1/3 1010/1/3 1009/1/3
f 1018/1/3 1010/1/3 1017/1/3
f 1019/1/3 1010/1/3 1018/1/3
f 1020/1/3 1012/1/3 1011/1/3
f 1021/1/3 1012/1/3 1020/1/3
f 1022/1/3 1012/1/3 1021/1/3
f 1024/3/3 1015/3/3 1014/3/3
f 1024/3/3 1014/3/3 1013/3/3
f 1025/3/3 1015/3/3 1024/3/3
f 1026/1/3 1016/1/3 1015/1/3
f 1026/3/3 1015/3/3 1025/3/3
f 1026/1/3 1017/1/3 1016/1/3
f 1026/1/3 1018/1/3 1017/1/3
f 1027/1/3 1018/1/3 1026/1/3
f 1028/1/3 1018/1/3 1027/1/3
f 1029/1/3 1023/1/3 1022/1/3
f 1029/1/3 1022/1/3 1021/1/3
f 1030/1/3 1023/1/3 1029/1/3
f 1031/1/3 1027/1/3 1026/1/3
f 1031/1/3 1026/1/3 1025/1/3
f 1032/1/3 1027/1/3 1031/1/3
f 1033/1/3 1023/1/3 1030/1/3
f 1034/1/3 1023/1/3 1033/1/3
f 1036/1/3 1027/1/3 1032/1/3
f 1037/1/3 1027/1/3 1036/1/3
f 1039/1/3 1027/1/3 1037/1/3
f 1041/1/3 1039/1/3 1038/1/3
f 1043/1/3 1035/1/3 1034/1/3
f 1044/1/3 1035/1/3 1043/1/3
f 1046/1/3 1041/1/3 1040/1/3
f 1047/1/3 1041/1/3 1046/1/3
f 1048/1/3 1027/1/3 1039/1/3
f 1048/1/3 1041/1/3 1047/1/3
f 1048/1/3 1039/1/3 1041/1/3
f 1051/1/3 1043/1/3 1042/1/3
f 1052/3/3 1047/3/3 1046/3/3
f 1052/3/3 1046/3/3 1045/3/3
f 1053/3/3 1047/3/3 1052/3/3
f 1054/1/3 1049/1/3 1048/1/3
f 1054/3/3 1047/3/3 1053/3/3
f 1054/1/3 1048/1/3 1047/1/3
f 1055/1/3 1049/1/3 1054/1/3
f 1056/1/3 1049/1/3 1055/1/3
f 1057/1/3 1049/1/3 1056/1/3
f 1060/1/3 1051/1/3 1050/1/3
f 1061/1/3 1043/1/3 1051/1/3
f 1061/1/3 1051/1/3 1060/1/3
f 1062/1/3 1043/1/3 1061/1/3
f 1063/1/3 1054/1/3 1053/1/3
f 1063/1/3 1055/1/3 1054/1/3
f 1064/1/3 1055/1/3 1063/1/3
f 1065/1/3 1058/1/3 1057/1/3
f 1065/1/3 1057/1/3 1056/1/3
f 1066/1/3 1058/1/3 1065/1/3
f 1067/1/3 1058/1/3 1066/1/3
f 1068/1/3 1060/1/3 1059/1/3
f 1068/1/3 1061/1/3 1060/1/3
f 1069/1/3 1061/1/3 1068/1/3
f 1070/1/3 1067/1/3 1066/1/3
f 1070/1/3 1068/1/3 1067/1/3
f 1071/1/3 1068/1/3 1070/1/3
f 1076/1/3 1073/1/3 1072/1/3
f 1077/1/3 1073/1/3 1076/1/3
f 1078/1/3 1073/1/3 1077/1/3
f 1079/1/3 1075/1/3 1074/1/3
f 1080/1/3 1075/1/3 1079/1/3
f 1082/1/3 1077/1/3 1076/1/3
f 1083/1/3 1077/1/3 1082/1/3
f 1084/1/3 1081/1/3 1080/1/3
f 1085/1/3 1081/1/3 1084/1/3
f 1089/1/3 1086/1/3 1085/1/3
f 1090/1/3 1086/1/3 1089/1/3
f 1091/1/3 1088/1/3 1087/1/3
f 1093/1/3 1091/1/3 1087/1/3
f 1093/1/3 1092/1/3 1091/1/3
f 1094/1/3 1092/1/3 1093/1/3
f 1095/1/3 1093/1/3 1087/1/3
f 1096/1/3 1093/1/3 1095/1/3
f 1102/1/3 1098/1/3 1097/1/3
f 1103/1/3 1098/1/3 1102/1/3
f 1104/1/3 1100/1/3 1099/1/3
f 1105/1/3 1100/1/3 1104/1/3
f 1108/1/3 1102/1/3 1101/1/3
f 1109/1/3 1102/1/3 1108/1/3
f 1110/1/3 1106/1/3 1105/1/3
f 1110/1/3 1105/1/3 1104/1/3
f 1111/1/3 1106/1/3 1110/1/3
f 1112/1/3 1108/1/3 1107/1/3
f 1113/1/3 1108/1/3 1112/1/3
f 1116/1/3 1115/1/3 1114/1/3
f 1117/1/3 1115/1/3 1116/1/3
f 1119/1/3 1118/1/3 1117/1/3
f 1120/1/3 1118/1/3 1119/1/3
f 1123/1/3 1122/1/3 1121/1/3
f 1124/1/3 1122/1/3 1123/1/3
f 1128/1/3 1126/1/3 1125/1/3
f 1129/1/3 1126/1/3 1128/1/3
f 1130/1/3 1128/1/3 1127/1/3
f 1131/1/3 1128/1/3 1130/1/3
f 1136/1/3 1133/1/3 1132/1/3
f 1137/1/3 1133/1/3 1136/1/3
f 1138/1/3 1135/1/3 1134/1/3
f 1139/1/3 1135/1/3 1138/1/3
f 1142/1/3 1141/1/3 1140/1/3
f 1143/1/3 1141/1/3 1142/1/3
f 1146/1/3 1145/1/3 1144/1/3
f 1147/1/3 1145/1/3 1146/1/3
f 1150/1/3 1149/1/3 1148/1/3
f 1151/1/3 1149/1/3 1150/1/3
f 1154/1/3 1153/1/3 1152/1/3
f 1155/1/3 1153/1/3 1154/1/3
f 1160/1/3 1157/1/3 1156/1/3
f 1161/1/3 1157/1/3 1160/1/3
f 1162/1/3 1159/1/3 1158/1/3
f 1163/1/3 1159/1/3 1162/1/3
f 1166/1/3 1165/1/3 1164/1/3
f 1167/1/3 1165/1/3 1166/1/3
f 1170/1/3 1169/1/3 1168/1/3
f 1171/1/3 1169/1/3 1170/1/3
f 1174/1/3 1173/1/3 1172/1/3
f 1175/1/3 1173/1/3 1174/1/3
f 1178/1/3 1177/1/3 1176/1/3
f 1179/1/3 1177/1/3 1178/1/3
f 1186/1/3 1181/1/3 1180/1/3
f 1187/1/3 1181/1/3 1186/1/3
f 1188/1/3 1183/1/3 1182/1/3
f 1189/1/3 1183/1/3 1188/1/3
f 1190/1/3 1185/1/3 1184/1/3
f 1191/1/3 1185/1/3 1190/1/3
f 1196/1/3 1193/1/3 1192/1/3
f 1197/1/3 1193/1/3 1196/1/3
f 1200/1/3 1195/1/3 1194/1/3
f 1201/1/3 1195/1/3 1200/1/3
f 1202/1/3 1199/1/3 1198/1/3
f 1203/1/3 1199/1/3 1202/1/3
f 1206/1/3 1205/1/3 1204/1/3
f 1207/1/3 1205/1/3 1206/1/3
f 1210/1/3 1209/1/3 1208/1/3
f 1211/1/3 1209/1/3 1210/1/3
f 1214/1/3 1213/1/3 1212/1/3
f 1215/1/3 1213/1/3 1214/1/3
f 1218/1/3 1217/1/3 1216/1/3
f 1219/1/3 1217/1/3 1218/1/3
f 1224/1/3 1221/1/3 1220/1/3
f 1225/1/3 1221/1/3 1224/1/3
f 1228/1/3 1223/1/3 1222/1/3
f 1229/1/3 1223/1/3 1228/1/3
f 1230/1/3 1227/1/3 1226/1/3
f 1231/1/3 1227/1/3 1230/1/3
f 1236/1/3 1233/1/3 1232/1/3
f 1237/1/3 1233/1/3 1236/1/3
f 1238/1/3 1235/1/3 1234/1/3
f 1239/1/3 1235/1/3 1238/1/3
f 1242/1/3 1241/1/3 1240/1/3
f 1243/1/3 1241/1/3 1242/1/3
f 1246/1/3 1245/1/3 1244/1/3
f 1247/1/3 1245/1/3 1246/1/3
f 1252/1/3 1249/1/3 1248/1/3
f 1253/1/3 1249/1/3 1252/1/3
f 1254/1/3 1251/1/3 1250/1/3
f 1255/1/3 1251/1/3 1254/1/3
f 1258/3/3 1257/3/3 1256/3/3
f 1259/3/3 1257/3/3 1258/3/3
f 1262/3/3 1261/3/3 1260/3/3
f 1263/3/3 1261/3/3 1262/3/3
f 1266/3/3 1265/3/3 1264/3/3
f 1267/3/3 1265/3/3 1266/3/3
f 1270/3/3 1269/3/3 1268/3/3
f 1271/3/3 1269/3/3 1270/3/3
f 1276/1/3 1273/1/3 1272/1/3
f 1277/1/3 1273/1/3 1276/1/3
f 1279/1/3 1275/1/3 1274/1/3
f 1280/1/3 1275/1/3 1279/1/3
f 1281/1/3 1275/1/3 1280/1/3
f 1283/3/3 1279/3/3 1278/3/3
f 1283/3/3 1280/3/3 1279/3/3
f 1284/3/3 1280/3/3 1283/3/3
f 1285/1/3 1282/1/3 1281/1/3
f 1285/3/3 1280/3/3 1284/3/3
f 1285/1/3 1281/1/3 1280/1/3
f 1286/1/3 1285/1/3 1284/1/3
f 1287/1/3 1282/1/3 1285/1/3
f 1287/1/3 1285/1/3 1286/1/3
f 1291/1/3 1289/1/3 1288/1/3
f 1292/1/3 1289/1/3 1291/1/3
f 1293/3/3 1291/3/3 1290/3/3
f 1293/3/3 1292/3/3 1291/3/3
f 1294/3/3 1292/3/3 1293/3/3
f 1295/1/3 1289/1/3 1292/1/3
f 1295/3/3 1292/3/3 1294/3/3
f 1296/1/3 1289/1/3 1295/1/3
f 1297/1/3 1289/1/3 1296/1/3
f 1298/1/3 1295/1/3 1294/1/3
f 1298/1/3 1296/1/3 1295/1/3
f 1299/1/3 1296/1/3 1298/1/3
f 1302/1/3 1301/1/3 1300/1/3
f 1303/1/3 1301/1/3 1302/1/3
f 1306/1/3 1305/1/3 1304/1/3
f 1307/1/3 1305/1/3 1306/1/3
f 1310/1/3 1309/1/3 1308/1/3
f 1311/1/3 1309/1/3 1310/1/3
f 1316/1/3 1313/1/3 1312/1/3
f 1317/1/3 1313/1/3 1316/1/3
f 1318/1/3 1315/1/3 1314/1/3
f 1319/1/3 1315/1/3 1318/1/3
f 1324/1/3 1321/1/3 1320/1/3
f 1325/1/3 1321/1/3 1324/1/3
f 1326/1/3 1323/1/3 1322/1/3
f 1327/1/3 1323/1/3 1326/1/3
f 1328/1/4 1329/1/4 1332/1/4
f 1332/1/4 1329/1/4 1333/1/4
f 1333/1/4 1329/1/4 1334/1/4
f 1330/1/4 1331/1/4 1336/1/4
f 1336/1/4 1331/1/4 1337/1/4
f 1332/1/4 1333/1/4 1338/1/4
f 1333/3/4 1334/3/4 1339/3/4
f 1338/1/4 1333/1/4 1339/1/4
f 1339/3/4 1334/3/4 1340/3/4
f 1334/1/4 1335/1/4 1341/1/4
f 1340/3/4 1334/3/4 1341/3/4
f 1341/1/4 1335/1/4 1342/1/4
f 1343/3/4 1344/3/4 1349/3/4
f 1346/1/4 1347/1/4 1350/1/4
f 1350/1/4 1347/1/4 1351/1/4
f 1348/1/4 1349/1/4 1353/1/4
f 1349/3/4 1344/3/4 1354/3/4
f 1353/1/4 1349/1/4 1354/1/4
f 1344/1/4 1345/1/4 1355/1/4
f 1354/3/4 1344/3/4 1355/3/4
f 1355/1/4 1345/1/4 1356/1/4
f 1353/1/4 1354/1/4 1357/1/4
f 1354/1/4 1355/1/4 1357/1/4
f 1352/1/4 1353/1/4 1357/1/4
f 1357/1/4 1355/1/4 1358/1/4
f 1359/3/4 1360/3/4 1364/3/4
f 1364/3/4 1360/3/4 1365/3/4
f 1360/1/4 1361/1/4 1366/1/4
f 1365/3/4 1360/3/4 1366/3/4
f 1366/1/4 1361/1/4 1367/1/4
f 1362/1/4 1363/1/4 1368/1/4
f 1368/1/4 1363/1/4 1369/1/4
f 1370/3/4 1371/3/4 1376/3/4
f 1371/3/4 1372/3/4 1376/3/4
f 1372/1/4 1373/1/4 1377/1/4
f 1376/3/4 1372/3/4 1377/3/4
f 1377/1/4 1373/1/4 1378/1/4
f 1374/1/4 1375/1/4 1379/1/4
f 1379/1/4 1375/1/4 1380/1/4
f 1381/3/4 1382/3/4 1386/3/4
f 1386/3/4 1382/3/4 1387/3/4
f 1382/1/4 1383/1/4 1388/1/4
f 1387/3/4 1382/3/4 1388/3/4
f 1388/1/4 1383/1/4 1389/1/4
f 1384/1/4 1385/1/4 1390/1/4
f 1390/1/4 1385/1/4 1391/1/4
f 1392/3/4 1393/3/4 1398/3/4
f 1393/3/4 1394/3/4 1398/3/4
f 1394/1/4 1395/1/4 1399/1/4
f 1398/3/4 1394/3/4 1399/3/4
f 1399/1/4 1395/1/4 1400/1/4
f 1396/1/4 1397/1/4 1401/1/4
f 1401/1/4 1397/1/4 1402/1/4
f 1403/1/4 1404/1/4 1407/1/4
f 1407/1/4 1404/1/4 1408/1/4
f 1405/3/4 1406/3/4 1410/3/4
f 1408/1/4 1409/1/4 1411/1/4
f 1410/3/4 1406/3/4 1411/3/4
f 1406/1/4 1407/1/4 1411/1/4
f 1407/1/4 1408/1/4 1411/1/4
f 1411/1/4 1409/1/4 1412/1/4
f 1412/1/4 1409/1/4 1413/1/4
f 1413/1/4 1409/1/4 1414/1/4
f 1412/1/4 1413/1/4 1415/1/4
f 1415/1/4 1413/1/4 1416/1/4
f 1417/1/4 1418/1/4 1421/1/4
f 1421/1/4 1418/1/4 1422/1/4
f 1419/3/4 1420/3/4 1424/3/4
f 1421/1/4 1422/1/4 1425/1/4
f 1424/3/4 1420/3/4 1425/3/4
f 1422/1/4 1423/1/4 1425/1/4
f 1420/1/4 1421/1/4 1425/1/4
f 1425/1/4 1423/1/4 1426/1/4
f 1426/1/4 1423/1/4 1427/1/4
f 1427/1/4 1423/1/4 1428/1/4
f 1426/1/4 1427/1/4 1429/1/4
f 1429/1/4 1427/1/4 1430/1/4
f 1431/1/4 1432/1/4 1435/1/4
f 1435/1/4 1432/1/4 1436/1/4
f 1433/1/4 1434/1/4 1437/1/4
f 1437/1/4 1434/1/4 1438/1/4
f 1439/1/4 1440/1/4 1441/1/4
f 1441/1/4 1440/1/4 1442/1/4
f 1443/1/4 1444/1/4 1445/1/4
f 1445/1/4 1444/1/4 1446/1/4
f 1447/1/4 1448/1/4 1449/1/4
f 1449/1/4 1448/1/4 1450/1/4
f 1451/1/4 1452/1/4 1453/1/4
f 1453/1/4 1452/1/4 1454/1/4
f 1455/1/4 1456/1/4 1459/1/4
f 1459/1/4 1456/1/4 1460/1/4
f 1457/1/4 1458/1/4 1461/1/4
f 1461/1/4 1458/1/4 1462/1/4
f 1463/1/4 1464/1/4 1467/1/4
f 1467/1/4 1464/1/4 1468/1/4
f 1465/1/4 1466/1/4 1471/1/4
f 1471/1/4 1466/1/4 1472/1/4
f 1469/1/4 1470/1/4 1473/1/4
f 1473/1/4 1470/1/4 1474/1/4
f 1475/1/4 1476/1/4 1477/1/4
f 1477/1/4 1476/1/4 1478/1/4
f 1479/1/4 1480/1/4 1481/1/4
f 1481/1/4 1480/1/4 1482/1/4
f 1483/1/4 1484/1/4 1485/1/4
f 1485/1/4 1484/1/4 1486/1/4
f 1487/1/4 1488/1/4 1489/1/4
f 1489/1/4 1488/1/4 1490/1/4
f 1491/1/4 1492/1/4 1495/1/4
f 1495/1/4 1492/1/4 1496/1/4
f 1493/1/4 1494/1/4 1499/1/4
f 1499/1/4 1494/1/4 1500/1/4
f 1497/1/4 1498/1/4 1501/1/4
f 1501/1/4 1498/1/4 1502/1/4
f 1503/1/4 1504/1/4 1507/1/4
f 1507/1/4 1504/1/4 1508/1/4
f 1505/1/4 1506/1/4 1509/1/4
f 1509/1/4 1506/1/4 1510/1/4
f 1511/1/4 1512/1/4 1513/1/4
f 1513/1/4 1512/1/4 1514/1/4
f 1515/1/4 1516/1/4 1517/1/4
f 1517/1/4 1516/1/4 1518/1/4
f 1519/1/4 1520/1/4 1521/1/4
f 1521/1/4 1520/1/4 1522/1/4
f 1523/1/4 1524/1/4 1525/1/4
f 1525/1/4 1524/1/4 1526/1/4
f 1527/1/4 1528/1/4 1533/1/4
f 1533/1/4 1528/1/4 1534/1/4
f 1529/1/4 1530/1/4 1535/1/4
f 1535/1/4 1530/1/4 1536/1/4
f 1531/1/4 1532/1/4 1537/1/4
f 1537/1/4 1532/1/4 1538/1/4
f 1539/1/4 1540/1/4 1541/1/4
f 1541/1/4 1540/1/4 1542/1/4
f 1543/1/4 1544/1/4 1545/1/4
f 1545/1/4 1544/1/4 1546/1/4
f 1547/1/4 1548/1/4 1549/1/4
f 1549/1/4 1548/1/4 1550/1/4
f 1551/1/4 1552/1/4 1553/1/4
f 1553/1/4 1552/1/4 1554/1/4
f 1555/1/4 1556/1/4 1559/1/4
f 1559/1/4 1556/1/4 1560/1/4
f 1557/1/4 1558/1/4 1561/1/4
f 1561/1/4 1558/1/4 1562/1/4
f 1562/1/4 1563/1/4 1564/1/4
f 1564/1/4 1563/1/4 1565/1/4
f 1566/1/4 1567/1/4 1568/1/4
f 1568/1/4 1567/1/4 1569/1/4
f 1570/1/4 1571/1/4 1575/1/4
f 1575/1/4 1571/1/4 1576/1/4
f 1572/1/4 1573/1/4 1577/1/4
f 1577/1/4 1573/1/4 1578/1/4
f 1574/1/4 1575/1/4 1579/1/4
f 1579/1/4 1575/1/4 1580/1/4
f 1581/1/4 1582/1/4 1588/1/4
f 1588/1/4 1582/1/4 1589/1/4
f 1583/1/4 1584/1/4 1590/1/4
f 1590/1/4 1584/1/4 1591/1/4
f 1585/3/4 1586/3/4 1593/3/4
f 1593/3/4 1586/3/4 1594/3/4
f 1594/3/4 1586/3/4 1595/3/4
f 1587/1/4 1588/1/4 1596/1/4
f 1596/1/4 1588/1/4 1597/1/4
f 1591/1/4 1592/1/4 1598/1/4
f 1598/1/4 1592/1/4 1599/1/4
f 1601/3/4 1602/3/4 1604/3/4
f 1602/3/4 1603/3/4 1604/3/4
f 1604/3/4 1603/3/4 1605/3/4
f 1599/1/4 1600/1/4 1606/1/4
f 1606/1/4 1600/1/4 1607/1/4
f 1608/3/4 1609/3/4 1612/3/4
f 1612/3/4 1609/3/4 1613/3/4
f 1613/3/4 1609/3/4 1614/3/4
f 1610/1/4 1611/1/4 1621/1/4
f 1621/1/4 1611/1/4 1622/1/4
f 1616/3/4 1617/3/4 1623/3/4
f 1615/3/4 1616/3/4 1623/3/4
f 1623/3/4 1617/3/4 1624/3/4
f 1618/1/4 1619/1/4 1625/1/4
f 1625/1/4 1619/1/4 1626/1/4
f 1620/1/4 1621/1/4 1629/1/4
f 1629/1/4 1621/1/4 1630/1/4
f 1626/1/4 1627/1/4 1631/1/4
f 1631/1/4 1627/1/4 1632/1/4
f 1628/1/4 1629/1/4 1633/1/4
f 1633/1/4 1629/1/4 1634/1/4
f 1635/1/4 1636/1/4 1640/1/4
f 1640/1/4 1636/1/4 1641/1/4
f 1637/1/4 1638/1/4 1645/1/4
f 1645/1/4 1638/1/4 1646/1/4
f 1639/1/4 1640/1/4 1647/1/4
f 1640/1/4 1641/1/4 1647/1/4
f 1641/1/4 1642/1/4 1647/1/4
f 1647/1/4 1642/1/4 1648/1/4
f 1648/1/4 1642/1/4 1649/1/4
f 1649/1/4 1642/1/4 1650/1/4
f 1643/3/4 1644/3/4 1652/3/4
f 1645/1/4 1646/1/4 1653/1/4
f 1652/3/4 1644/3/4 1653/3/4
f 1644/1/4 1645/1/4 1653/1/4
f 1646/1/4 1647/1/4 1653/1/4
f 1647/1/4 1648/1/4 1653/1/4
f 1653/1/4 1648/1/4 1654/1/4
f 1654/1/4 1648/1/4 1655/1/4
f 1655/1/4 1648/1/4 1656/1/4
f 1650/1/4 1651/1/4 1657/1/4
f 1649/1/4 1650/1/4 1657/1/4
f 1657/1/4 1651/1/4 1658/1/4
f 1654/1/4 1655/1/4 1659/1/4
f 1659/1/4 1655/1/4 1660/1/4
f 1660/1/4 1655/1/4 1661/1/4
f 1661/1/4 1655/1/4 1662/1/4
f 1658/1/4 1651/1/4 1663/1/4
f 1663/1/4 1651/1/4 1664/1/4
f 1664/1/4 1651/1/4 1665/1/4
f 1660/1/4 1661/1/4 1668/1/4
f 1668/1/4 1661/1/4 1669/1/4
f 1665/1/4 1666/1/4 1672/1/4
f 1664/1/4 1665/1/4 1672/1/4
f 1672/1/4 1666/1/4 1673/1/4
f 1673/1/4 1666/1/4 1674/1/4
f 1669/1/4 1670/1/4 1677/1/4
f 1668/1/4 1669/1/4 1677/1/4
f 1667/1/4 1668/1/4 1677/1/4
f 1677/1/4 1670/1/4 1678/1/4
f 1672/1/4 1673/1/4 1681/1/4
f 1671/1/4 1672/1/4 1681/1/4
f 1675/3/4 1676/3/4 1682/3/4
f 1678/1/4 1679/1/4 1683/1/4
f 1682/3/4 1676/3/4 1683/3/4
f 1677/1/4 1678/1/4 1683/1/4
f 1676/1/4 1677/1/4 1683/1/4
f 1683/1/4 1679/1/4 1684/1/4
f 1684/1/4 1679/1/4 1685/1/4
f 1685/1/4 1679/1/4 1686/1/4
f 1686/1/4 1679/1/4 1687/1/4
f 1680/1/4 1681/1/4 1688/1/4
f 1681/1/4 1673/1/4 1689/1/4
f 1688/1/4 1681/1/4 1689/1/4
f 1689/1/4 1673/1/4 1690/1/4
f 1684/1/4 1685/1/4 1691/1/4
f 1691/1/4 1685/1/4 1692/1/4
f 1686/1/4 1687/1/4 1693/1/4
f 1687/1/4 1688/1/4 1693/1/4
f 1688/1/4 1689/1/4 1693/1/4
f 1693/1/4 1689/1/4 1694/1/4
f 1694/1/4 1689/1/4 1695/1/4
f 1695/1/4 1689/1/4 1696/1/4
f 1694/1/4 1695/1/4 1697/1/4
f 1697/1/4 1695/1/4 1698/1/4
f 1699/1/4 1700/1/4 1702/1/4
f 1702/1/4 1700/1/4 1703/1/4
f 1701/1/4 1702/1/4 1706/1/4
f 1703/1/4 1704/1/4 1706/1/4
f 1702/1/4 1703/1/4 1706/1/4
f 1706/1/4 1704/1/4 1707/1/4
f 1707/1/4 1704/1/4 1708/1/4
f 1708/1/4 1704/1/4 1709/1/4
f 1705/1/4 1706/1/4 1711/1/4
f 1706/1/4 1707/1/4 1711/1/4
f 1711/1/4 1707/1/4 1712/1/4
f 1709/1/4 1710/1/4 1713/1/4
f 1708/1/4 1709/1/4 1713/1/4
f 1713/1/4 1710/1/4 1714/1/4
f 1705/1/4 1711/1/4 1715/1/4
f 1714/1/4 1710/1/4 1718/1/4
f 1715/1/4 1716/1/4 1719/1/4
f 1705/1/4 1715/1/4 1719/1/4
f 1719/1/4 1716/1/4 1720/1/4
f 1720/1/4 1716/1/4 1721/1/4
f 1717/1/4 1718/1/4 1722/1/4
f 1718/1/4 1710/1/4 1723/1/4
f 1722/1/4 1718/1/4 1723/1/4
f 1723/1/4 1710/1/4 1724/1/4
f 1720/1/4 1721/1/4 1725/1/4
f 1721/1/4 1722/1/4 1725/1/4
f 1722/1/4 1723/1/4 1725/1/4
f 1725/1/4 1723/1/4 1726/1/4
f 1726/1/4 1723/1/4 1727/1/4
f 1727/1/4 1723/1/4 1728/1/4
f 1726/1/4 1727/1/4 1729/1/4
f 1729/1/4 1727/1/4 1730/1/4
f 1731/1/4 1732/1/4 1735/1/4
f 1735/1/4 1732/1/4 1736/1/4
f 1733/1/4 1734/1/4 1737/1/4
f 1737/1/4 1734/1/4 1738/1/4
f 1739/1/4 1740/1/4 1743/1/4
f 1743/1/4 1740/1/4 1744/1/4
f 1741/1/4 1742/1/4 1745/1/4
f 1745/1/4 1742/1/4 1746/1/4
f 1747/1/4 1748/1/4 1750/1/4
f 1750/1/4 1748/1/4 1751/1/4
f 1749/1/4 1750/1/4 1753/1/4
f 1751/1/4 1752/1/4 1753/1/4
f 1750/1/4 1751/1/4 1753/1/4
f 1753/1/4 1752/1/4 1754/1/4
f 1754/1/4 1752/1/4 1755/1/4
f 1755/1/4 1752/1/4 1756/1/4
f 1754/1/4 1755/1/4 1757/1/4
f 1757/1/4 1755/1/4 1758/1/4
f 1767/3/5 1760/3/5 1759/3/5
f 1768/3/5 1762/3/5 1761/3/5
f 1769/3/5 1764/3/5 1763/3/5
f 1770/3/5 1766/3/5 1765/3/5
f 1771/3/5 1767/3/5 1759/3/5
f 1771/3/5 1768/3/5 1767/3/5
f 1772/3/5 1762/3/5 1768/3/5
f 1772/3/5 1768/3/5 1771/3/5
f 1773/3/5 1769/3/5 1763/3/5
f 1773/3/5 1770/3/5 1769/3/5
f 1774/3/5 1766/3/5 1770/3/5
f 1774/3/5 1770/3/5 1773/3/5
f 1775/3/5 1771/3/5 1759/3/5
f 1776/1/5 1772/1/5 1771/1/5
f 1776/3/5 1771/3/5 1775/3/5
f 1777/3/5 1762/3/5 1772/3/5
f 1777/1/5 1772/1/5 1776/1/5
f 1778/3/5 1762/3/5 1777/3/5
f 1779/3/5 1773/3/5 1763/3/5
f 1780/1/5 1774/1/5 1773/1/5
f 1780/3/5 1773/3/5 1779/3/5
f 1781/3/5 1766/3/5 1774/3/5
f 1781/1/5 1774/1/5 1780/1/5
f 1782/3/5 1766/3/5 1781/3/5
f 1783/3/5 1777/3/5 1776/3/5
f 1784/3/5 1777/3/5 1783/3/5
f 1785/3/5 1781/3/5 1780/3/5
f 1786/3/5 1781/3/5 1785/3/5
f 1795/3/5 1788/3/5 1787/3/5
f 1796/3/5 1790/3/5 1789/3/5
f 1797/3/5 1792/3/5 1791/3/5
f 1798/3/5 1794/3/5 1793/3/5
f 1799/3/5 1796/3/5 1795/3/5
f 1799/3/5 1795/3/5 1787/3/5
f 1800/3/5 1790/3/5 1796/3/5
f 1800/3/5 1796/3/5 1799/3/5
f 1801/3/5 1798/3/5 1797/3/5
f 1801/3/5 1797/3/5 1791/3/5
f 1802/3/5 1794/3/5 1798/3/5
f 1802/3/5 1798/3/5 1801/3/5
f 1803/3/5 1799/3/5 1787/3/5
f 1804/1/5 1800/1/5 1799/1/5
f 1804/3/5 1799/3/5 1803/3/5
f 1805/3/5 1790/3/5 1800/3/5
f 1805/1/5 1800/1/5 1804/1/5
f 1806/3/5 1790/3/5 1805/3/5
f 1807/3/5 1801/3/5 1791/3/5
f 1808/1/5 1802/1/5 1801/1/5
f 1808/3/5 1801/3/5 1807/3/5
f 1809/3/5 1794/3/5 1802/3/5
f 1809/1/5 1802/1/5 1808/1/5
f 1810/3/5 1794/3/5 1809/3/5
f 1811/3/5 1805/3/5 1804/3/5
f 1812/3/5 1805/3/5 1811/3/5
f 1813/3/5 1809/3/5 1808/3/5
f 1814/3/5 1809/3/5 1813/3/5
f 1823/1/5 1816/1/5 1815/1/5
f 1824/1/5 1816/1/5 1823/1/5
f 1825/1/5 1818/1/5 1817/1/5
f 1826/1/5 1818/1/5 1825/1/5
f 1827/1/5 1820/1/5 1819/1/5
f 1828/1/5 1820/1/5 1827/1/5
f 1829/1/5 1822/1/5 1821/1/5
f 1830/1/5 1822/1/5 1829/1/5
f 1839/1/5 1832/1/5 1831/1/5
f 1840/1/5 1832/1/5 1839/1/5
f 1841/1/5 1834/1/5 1833/1/5
f 1842/1/5 1834/1/5 1841/1/5
f 1843/1/5 1836/1/5 1835/1/5
f 1844/1/5 1836/1/5 1843/1/5
f 1845/1/5 1838/1/5 1837/1/5
f 1846/1/5 1838/1/5 1845/1/5
f 1853/1/5 1848/1/5 1847/1/5
f 1854/1/5 1848/1/5 1853/1/5
f 1859/1/5 1851/1/5 1850/1/5
f 1859/1/5 1850/1/5 1849/1/5
f 1860/1/5 1853/1/5 1852/1/5
f 1860/1/5 1854/1/5 1853/1/5
f 1860/1/5 1855/1/5 1854/1/5
f 1861/1/5 1855/1/5 1860/1/5
f 1862/1/5 1858/1/5 1857/1/5
f 1862/1/5 1857/1/5 1856/1/5
f 1863/1/5 1861/1/5 1860/1/5
f 1863/1/5 1862/1/5 1861/1/5
f 1863/1/5 1860/1/5 1859/1/5
f 1863/1/5 1859/1/5 1849/1/5
f 1864/1/5 1862/1/5 1863/1/5
f 1865/1/5 1858/1/5 1862/1/5
f 1865/1/5 1862/1/5 1864/1/5
f 1866/1/5 1858/1/5 1865/1/5
f 1868/1/5 1865/1/5 1864/1/5
f 1869/1/5 1865/1/5 1868/1/5
f 1870/1/5 1865/1/5 1869/1/5
f 1871/1/5 1865/1/5 1870/1/5
f 1872/1/5 1865/1/5 1871/1/5
f 1873/1/5 1865/1/5 1872/1/5
f 1875/1/5 1868/1/5 1867/1/5
f 1875/1/5 1869/1/5 1868/1/5
f 1876/1/5 1869/1/5 1875/1/5
f 1877/1/5 1874/1/5 1873/1/5
f 1877/1/5 1873/1/5 1872/1/5
f 1878/1/5 1874/1/5 1877/1/5
f 1879/1/5 1875/1/5 1867/1/5
f 1880/1/5 1875/1/5 1879/1/5
f 1881/1/5 1874/1/5 1878/1/5
f 1882/1/5 1874/1/5 1881/1/5
f 1883/1/5 1871/1/5 1870/1/5
f 1884/1/5 1871/1/5 1883/1/5
f 1891/1/5 1886/1/5 1885/1/5
f 1892/1/5 1886/1/5 1891/1/5
f 1893/1/5 1888/1/5 1887/1/5
f 1894/1/5 1888/1/5 1893/1/5
f 1897/1/5 1890/1/5 1889/1/5
f 1898/1/5 1890/1/5 1897/1/5
f 1899/1/5 1896/1/5 1895/1/5
f 1900/1/5 1896/1/5 1899/1/5
f 1905/1/5 1902/1/5 1901/1/5
f 1908/1/5 1904/1/5 1903/1/5
f 1909/1/5 1906/1/5 1905/1/5
f 1909/1/5 1905/1/5 1901/1/5
f 1910/1/5 1906/1/5 1909/1/5
f 1911/1/5 1908/1/5 1907/1/5
f 1911/1/5 1904/1/5 1908/1/5
f 1912/1/5 1904/1/5 1911/1/5
f 1913/1/5 1906/1/5 1910/1/5
f 1914/1/5 1906/1/5 1913/1/5
f 1915/1/5 1911/1/5 1907/1/5
f 1916/1/5 1911/1/5 1915/1/5
f 1921/1/5 1918/1/5 1917/1/5
f 1922/1/5 1918/1/5 1921/1/5
f 1925/1/5 1920/1/5 1919/1/5
f 1926/1/5 1920/1/5 1925/1/5
f 1927/1/5 1923/1/5 1922/1/5
f 1928/1/5 1923/1/5 1927/1/5
f 1931/1/5 1925/1/5 1924/1/5
f 1932/1/5 1925/1/5 1931/1/5
f 1933/1/5 1930/1/5 1929/1/5
f 1934/1/5 1930/1/5 1933/1/5
f 1941/1/5 1936/1/5 1935/1/5
f 1942/1/5 1936/1/5 1941/1/5
f 1943/1/5 1938/1/5 1937/1/5
f 1944/1/5 1938/1/5 1943/1/5
f 1945/1/5 1940/1/5 1939/1/5
f 1946/1/5 1940/1/5 1945/1/5
f 1951/1/5 1948/1/5 1947/1/5
f 1952/1/5 1948/1/5 1951/1/5
f 1953/1/5 1950/1/5 1949/1/5
f 1954/1/5 1950/1/5 1953/1/5
f 1959/1/5 1956/1/5 1955/1/5
f 1960/1/5 1956/1/5 1959/1/5
f 1961/1/5 1958/1/5 1957/1/5
f 1962/1/5 1958/1/5 1961/1/5
f 1967/1/5 1964/1/5 1963/1/5
f 1968/1/5 1964/1/5 1967/1/5
f 1969/1/5 1966/1/5 1965/1/5
f 1970/1/5 1966/1/5 1969/1/5
f 1974/1/5 1972/1/5 1971/1/5
f 1975/1/5 1972/1/5 1974/1/5
f 1978/1/5 1974/1/5 1973/1/5
f 1978/1/5 1976/1/5 1975/1/5
f 1978/1/5 1975/1/5 1974/1/5
f 1979/1/5 1976/1/5 1978/1/5
f 1981/1/5 1978/1/5 1977/1/5
f 1981/1/5 1980/1/5 1979/1/5
f 1981/1/5 1979/1/5 1978/1/5
f 1982/1/5 1980/1/5 1981/1/5
f 1983/1/5 1980/1/5 1982/1/5
f 1984/1/5 1980/1/5 1983/1/5
f 1987/1/5 1983/1/5 1982/1/5
f 1988/1/5 1983/1/5 1987/1/5
f 1991/1/5 1986/1/5 1985/1/5
f 1992/1/5 1986/1/5 1991/1/5
f 1993/1/5 1990/1/5 1989/1/5
f 1994/1/5 1990/1/5 1993/1/5
f 1999/1/5 1996/1/5 1995/1/5
f 2000/1/5 1996/1/5 1999/1/5
f 2001/1/5 1998/1/5 1997/1/5
f 2002/1/5 1998/1/5 2001/1/5
f 2007/1/5 2004/1/5 2003/1/5
f 2008/1/5 2004/1/5 2007/1/5
f 2009/1/5 2006/1/5 2005/1/5
f 2010/1/5 2006/1/5 2009/1/5
f 2015/1/5 2012/1/5 2011/1/5
f 2016/1/5 2012/1/5 2015/1/5
f 2017/1/5 2014/1/5 2013/1/5
f 2018/1/5 2014/1/5 2017/1/5
f 2023/1/5 2020/1/5 2019/1/5
f 2024/1/5 2020/1/5 2023/1/5
f 2029/1/5 2022/1/5 2021/1/5
f 2030/1/5 2022/1/5 2029/1/5
f 2031/1/5 2026/1/5 2025/1/5
f 2032/1/5 2026/1/5 2031/1/5
f 2033/1/5 2028/1/5 2027/1/5
f 2034/1/5 2028/1/5 2033/1/5
f 2038/1/5 2036/1/5 2035/1/5
f 2039/1/5 2036/1/5 2038/1/5
f 2042/1/5 2038/1/5 2037/1/5
f 2042/1/5 2040/1/5 2039/1/5
f 2042/1/5 2039/1/5 2038/1/5
f 2043/1/5 2040/1/5 2042/1/5
f 2046/1/5 2042/1/5 2041/1/5
f 2047/1/5 2042/1/5 2046/1/5
f 2048/1/5 2044/1/5 2043/1/5
f 2049/1/5 2044/1/5 2048/1/5
f 2051/1/5 2046/1/5 2045/1/5
f 2052/1/5 2046/1/5 2051/1/5
f 2053/1/5 2050/1/5 2049/1/5
f 2054/1/5 2050/1/5 2053/1/5
f 2059/1/5 2056/1/5 2055/1/5
f 2060/1/5 2056/1/5 2059/1/5
f 2061/1/5 2058/1/5 2057/1/5
f 2062/1/5 2058/1/5 2061/1/5
f 2067/1/5 2064/1/5 2063/1/5
f 2068/1/5 2064/1/5 2067/1/5
f 2069/1/5 2066/1/5 2065/1/5
f 2070/1/5 2066/1/5 2069/1/5
f 2075/1/5 2072/1/5 2071/1/5
f 2076/1/5 2072/1/5 2075/1/5
f 2077/1/5 2074/1/5 2073/1/5
f 2078/1/5 2074/1/5 2077/1/5
f 2082/1/5 2080/1/5 2079/1/5
f 2083/1/5 2080/1/5 2082/1/5
f 2085/1/5 2082/1/5 2081/1/5
f 2085/1/5 2084/1/5 2083/1/5
f 2085/1/5 2083/1/5 2082/1/5
f 2086/1/5 2084/1/5 2085/1/5
f 2087/1/5 2084/1/5 2086/1/5
f 2088/1/5 2084/1/5 2087/1/5
f 2089/1/5 2087/1/5 2086/1/5
f 2090/1/5 2087/1/5 2089/1/5
f 2095/1/5 2092/1/5 2091/1/5
f 2096/1/5 2092/1/5 2095/1/5
f 2097/1/5 2094/1/5 2093/1/5
f 2098/1/5 2094/1/5 2097/1/5
f 2103/1/5 2100/1/5 2099/1/5
f 2104/1/5 2100/1/5 2103/1/5
f 2105/1/5 2102/1/5 2101/1/5
f 2106/1/5 2102/1/5 2105/1/5
f 2111/1/5 2108/1/5 2107/1/5
f 2112/1/5 2108/1/5 2111/1/5
f 2113/1/5 2110/1/5 2109/1/5
f 2114/1/5 2110/1/5 2113/1/5
f 2119/1/5 2116/1/5 2115/1/5
f 2120/1/5 2116/1/5 2119/1/5
f 2121/1/5 2118/1/5 2117/1/5
f 2122/1/5 2118/1/5 2121/1/5
f 2125/1/5 2124/1/5 2123/1/5
f 2126/1/5 2124/1/5 2125/1/5
f 2129/1/5 2128/1/5 2127/1/5
f 2130/1/5 2128/1/5 2129/1/5
f 2131/3/6 2132/3/6 2139/3/6
f 2139/3/6 2132/3/6 2140/3/6
f 2133/3/6 2134/3/6 2141/3/6
f 2141/3/6 2134/3/6 2142/3/6
f 2135/3/6 2136/3/6 2143/3/6
f 2143/3/6 2136/3/6 2144/3/6
f 2137/3/6 2138/3/6 2145/3/6
f 2145/3/6 2138/3/6 2146/3/6
f 2147/3/6 2148/3/6 2155/3/6
f 2155/3/6 2148/3/6 2156/3/6
f 2149/3/6 2150/3/6 2157/3/6
f 2157/3/6 2150/3/6 2158/3/6
f 2151/3/6 2152/3/6 2159/3/6
f 2159/3/6 2152/3/6 2160/3/6
f 2153/3/6 2154/3/6 2161/3/6
f 2161/3/6 2154/3/6 2162/3/6
f 2163/1/6 2164/1/6 2171/1/6
f 2171/1/6 2164/1/6 2172/1/6
f 2165/1/6 2166/1/6 2173/1/6
f 2173/1/6 2166/1/6 2174/1/6
f 2167/1/6 2168/1/6 2175/1/6
f 2175/1/6 2168/1/6 2176/1/6
f 2169/1/6 2170/1/6 2177/1/6
f 2177/1/6 2170/1/6 2178/1/6
f 2179/1/6 2180/1/6 2183/1/6
f 2183/1/6 2180/1/6 2184/1/6
f 2181/1/6 2182/1/6 2185/1/6
f 2185/1/6 2182/1/6 2186/1/6
f 2187/1/6 2188/1/6 2191/1/6
f 2191/1/6 2188/1/6 2192/1/6
f 2189/1/6 2190/1/6 2193/1/6
f 2193/1/6 2190/1/6 2194/1/6
f 2195/1/6 2196/1/6 2199/1/6
f 2199/1/6 2196/1/6 2200/1/6
f 2197/1/6 2198/1/6 2201/1/6
f 2201/1/6 2198/1/6 2202/1/6
f 2203/2/6 2204/2/6 2205/2/6
f 2205/2/6 2204/2/6 2206/2/6
f 2205/1/6 2206/1/6 2208/1/6
f 2208/1/6 2206/1/6 2209/1/6
f 2207/1/6 2208/1/6 2211/1/6
f 2211/1/6 2208/1/6 2212/1/6
f 2209/1/6 2210/1/6 2213/1/6
f 2213/1/6 2210/1/6 2214/1/6
f 2215/1/6 2216/1/6 2219/1/6
f 2219/1/6 2216/1/6 2220/1/6
f 2217/1/6 2218/1/6 2221/1/6
f 2221/1/6 2218/1/6 2222/1/6
f 2223/1/6 2224/1/6 2227/1/6
f 2227/1/6 2224/1/6 2228/1/6
f 2225/1/6 2226/1/6 2229/1/6
f 2229/1/6 2226/1/6 2230/1/6
f 2231/1/6 2232/1/6 2233/1/6
f 2233/1/6 2232/1/6 2234/1/6
f 2235/1/6 2236/1/6 2240/1/6
f 2240/1/6 2236/1/6 2241/1/6
f 2237/1/6 2238/1/6 2242/1/6
f 2242/1/6 2238/1/6 2243/1/6
f 2239/1/6 2240/1/6 2245/1/6
f 2245/1/6 2240/1/6 2246/1/6
f 2243/1/6 2244/1/6 2247/1/6
f 2247/1/6 2244/1/6 2248/1/6
f 2249/1/6 2250/1/6 2253/1/6
f 2253/1/6 2250/1/6 2254/1/6
f 2251/1/6 2252/1/6 2255/1/6
f 2255/1/6 2252/1/6 2256/1/6
f 2257/1/6 2258/1/6 2261/1/6
f 2261/1/6 2258/1/6 2262/1/6
f 2259/1/6 2260/1/6 2263/1/6
f 2263/1/6 2260/1/6 2264/1/6
f 2265/1/6 2266/1/6 2269/1/6
f 2269/1/6 2266/1/6 2270/1/6
f 2267/1/6 2268/1/6 2273/1/6
f 2273/1/6 2268/1/6 2274/1/6
f 2271/1/6 2272/1/6 2276/1/6
f 2276/1/6 2272/1/6 2277/1/6
f 2275/1/6 2276/1/6 2279/1/6
f 2277/1/6 2278/1/6 2279/1/6
f 2276/1/6 2277/1/6 2279/1/6
f 2279/1/6 2278/1/6 2280/1/6
f 2280/1/6 2278/1/6 2281/1/6
f 2281/1/6 2278/1/6 2282/1/6
f 2280/1/6 2281/1/6 2283/1/6
f 2283/1/6 2281/1/6 2284/1/6
f 2285/1/6 2286/1/6 2289/1/6
f 2289/1/6 2286/1/6 2290/1/6
f 2287/1/6 2288/1/6 2291/1/6
f 2291/1/6 2288/1/6 2292/1/6
f 2293/1/6 2294/1/6 2297/1/6
f 2297/1/6 2294/1/6 2298/1/6
f 2295/1/6 2296/1/6 2299/1/6
f 2299/1/6 2296/1/6 2300/1/6
f 2301/1/6 2302/1/6 2305/1/6
f 2305/1/6 2302/1/6 2306/1/6
f 2303/1/6 2304/1/6 2307/1/6
f 2307/1/6 2304/1/6 2308/1/6
f 2309/1/6 2310/1/6 2313/1/6
f 2313/1/6 2310/1/6 2314/1/6
f 2311/1/6 2312/1/6 2315/1/6
f 2315/1/6 2312/1/6 2316/1/6
f 2317/1/6 2318/1/6 2321/1/6
f 2321/1/6 2318/1/6 2322/1/6
f 2319/1/6 2320/1/6 2323/1/6
f 2323/1/6 2320/1/6 2324/1/6
f 2325/1/6 2326/1/6 2329/1/6
f 2329/1/6 2326/1/6 2330/1/6
f 2327/1/6 2328/1/6 2335/1/6
f 2335/1/6 2328/1/6 2336/1/6
f 2331/1/6 2332/1/6 2337/1/6
f 2337/1/6 2332/1/6 2338/1/6
f 2333/1/6 2334/1/6 2339/1/6
f 2339/1/6 2334/1/6 2340/1/6
f 2341/1/6 2342/1/6 2344/1/6
f 2344/1/6 2342/1/6 2345/1/6
f 2345/1/6 2342/1/6 2346/1/6
f 2346/1/6 2342/1/6 2347/1/6
f 2343/1/6 2344/1/6 2349/1/6
f 2344/1/6 2345/1/6 2349/1/6
f 2349/1/6 2345/1/6 2350/1/6
f 2350/1/6 2345/1/6 2351/1/6
f 2347/1/6 2348/1/6 2352/1/6
f 2346/1/6 2347/1/6 2352/1/6
f 2352/1/6 2348/1/6 2353/1/6
f 2353/1/6 2348/1/6 2354/1/6
f 2355/1/6 2356/1/6 2361/1/6
f 2361/1/6 2356/1/6 2362/1/6
f 2357/1/6 2358/1/6 2363/1/6
f 2363/1/6 2358/1/6 2364/1/6
f 2359/1/6 2360/1/6 2368/1/6
f 2368/1/6 2360/1/6 2369/1/6
f 2365/1/6 2366/1/6 2370/1/6
f 2370/1/6 2366/1/6 2371/1/6
f 2367/1/6 2368/1/6 2373/1/6
f 2373/1/6 2368/1/6 2374/1/6
f 2371/1/6 2372/1/6 2375/1/6
f 2375/1/6 2372/1/6 2376/1/6
f 2377/1/6 2378/1/6 2381/1/6
f 2381/1/6 2378/1/6 2382/1/6
f 2379/1/6 2380/1/6 2383/1/6
f 2383/1/6 2380/1/6 2384/1/6
f 2385/1/6 2386/1/6 2389/1/6
f 2389/1/6 2386/1/6 2390/1/6
f 2387/1/6 2388/1/6 2391/1/6
f 2391/1/6 2388/1/6 2392/1/6
f 2393/1/6 2394/1/6 2397/1/6
f 2397/1/6 2394/1/6 2398/1/6
f 2395/1/6 2396/1/6 2401/1/6
f 2401/1/6 2396/1/6 2402/1/6
f 2398/1/6 2399/1/6 2403/1/6
f 2403/1/6 2399/1/6 2404/1/6
f 2400/1/6 2401/1/6 2407/1/6
f 2407/1/6 2401/1/6 2408/1/6
f 2405/1/6 2406/1/6 2409/1/6
f 2409/1/6 2406/1/6 2410/1/6
f 2411/1/6 2412/1/6 2416/1/6
f 2416/1/6 2412/1/6 2417/1/6
f 2413/1/6 2414/1/6 2421/1/6
f 2421/1/6 2414/1/6 2422/1/6
f 2415/1/6 2416/1/6 2423/1/6
f 2416/1/6 2417/1/6 2423/1/6
f 2417/1/6 2418/1/6 2423/1/6
f 2423/1/6 2418/1/6 2424/1/6
f 2419/1/6 2420/1/6 2425/1/6
f 2425/1/6 2420/1/6 2426/1/6
f 2423/1/6 2424/1/6 2428/1/6
f 2428/1/6 2424/1/6 2429/1/6
f 2427/1/6 2428/1/6 2432/1/6
f 2432/1/6 2428/1/6 2433/1/6
f 2429/1/6 2430/1/6 2434/1/6
f 2434/1/6 2430/1/6 2435/1/6
f 2431/1/6 2432/1/6 2438/1/6
f 2438/1/6 2432/1/6 2439/1/6
f 2435/1/6 2436/1/6 2440/1/6
f 2440/1/6 2436/1/6 2441/1/6
f 2437/1/6 2438/1/6 2443/1/6
f 2443/1/6 2438/1/6 2444/1/6
f 2441/1/6 2442/1/6 2445/1/6
f 2445/1/6 2442/1/6 2446/1/6
f 2447/1/6 2448/1/6 2451/1/6
f 2451/1/6 2448/1/6 2452/1/6
f 2449/1/6 2450/1/6 2453/1/6
f 2453/1/6 2450/1/6 2454/1/6
f 2455/1/6 2456/1/6 2459/1/6
f 2459/1/6 2456/1/6 2460/1/6
f 2457/1/6 2458/1/6 2463/1/6
f 2463/1/6 2458/1/6 2464/1/6
f 2460/1/6 2461/1/6 2465/1/6
f 2465/1/6 2461/1/6 2466/1/6
f 2462/1/6 2463/1/6 2469/1/6
f 2469/1/6 2463/1/6 2470/1/6
f 2466/1/6 2467/1/6 2471/1/6
f 2471/1/6 2467/1/6 2472/1/6
f 2468/1/6 2469/1/6 2473/1/6
f 2473/1/6 2469/1/6 2474/1/6
f 2475/1/6 2476/1/6 2479/1/6
f 2479/1/6 2476/1/6 2480/1/6
f 2477/1/6 2478/1/6 2481/1/6
f 2481/1/6 2478/1/6 2482/1/6
f 2483/1/6 2484/1/6 2486/1/6
f 2486/1/6 2484/1/6 2487/1/6
f 2485/1/6 2486/1/6 2490/1/6
f 2487/1/6 2488/1/6 2490/1/6
f 2486/1/6 2487/1/6 2490/1/6
f 2490/1/6 2488/1/6 2491/1/6
f 2491/1/6 2488/1/6 2492/1/6
f 2492/1/6 2488/1/6 2493/1/6
f 2489/1/6 2490/1/6 2495/1/6
f 2490/1/6 2491/1/6 2495/1/6
f 2495/1/6 2491/1/6 2496/1/6
f 2492/1/6 2493/1/6 2497/1/6
f 2493/1/6 2494/1/6 2497/1/6
f 2497/1/6 2494/1/6 2498/1/6
f 2489/1/6 2495/1/6 2500/1/6
f 2500/1/6 2495/1/6 2501/1/6
f 2501/1/6 2495/1/6 2502/1/6
f 2498/1/6 2494/1/6 2503/1/6
f 2503/1/6 2494/1/6 2504/1/6
f 2504/1/6 2494/1/6 2505/1/6
f 2499/1/6 2500/1/6 2507/1/6
f 2500/1/6 2501/1/6 2507/1/6
f 2507/1/6 2501/1/6 2508/1/6
f 2505/1/6 2506/1/6 2509/1/6
f 2504/1/6 2505/1/6 2509/1/6
f 2509/1/6 2506/1/6 2510/1/6
f 2499/1/6 2507/1/6 2511/1/6
f 2510/1/6 2506/1/6 2514/1/6
f 2511/1/6 2512/1/6 2515/1/6
f 2499/1/6 2511/1/6 2515/1/6
f 2515/1/6 2512/1/6 2516/1/6
f 2516/1/6 2512/1/6 2517/1/6
f 2513/1/6 2514/1/6 2520/1/6
f 2514/1/6 2506/1/6 2521/1/6
f 2520/1/6 2514/1/6 2521/1/6
f 2521/1/6 2506/1/6 2522/1/6
f 2517/1/6 2518/1/6 2523/1/6
f 2516/1/6 2517/1/6 2523/1/6
f 2519/1/6 2520/1/6 2526/1/6
f 2520/1/6 2521/1/6 2526/1/6
f 2523/1/6 2524/1/6 2527/1/6
f 2516/1/6 2523/1/6 2527/1/6
f 2527/1/6 2524/1/6 2528/1/6
f 2528/1/6 2524/1/6 2529/1/6
f 2525/1/6 2526/1/6 2530/1/6
f 2526/1/6 2521/1/6 2531/1/6
f 2530/1/6 2526/1/6 2531/1/6
f 2531/1/6 2521/1/6 2532/1/6
f 2528/1/6 2529/1/6 2533/1/6
f 2529/1/6 2530/1/6 2533/1/6
f 2530/1/6 2531/1/6 2533/1/6
f 2533/1/6 2531/1/6 2534/1/6
f 2534/1/6 2531/1/6 2535/1/6
f 2535/1/6 2531/1/6 2536/1/6
f 2534/1/6 2535/1/6 2537/1/6
f 2537/1/6 2535/1/6 2538/1/6
f 2539/1/6 2540/1/6 2542/1/6
f 2542/1/6 2540/1/6 2543/1/6
f 2541/1/6 2542/1/6 2546/1/6
f 2543/1/6 2544/1/6 2546/1/6
f 2542/1/6 2543/1/6 2546/1/6
f 2546/1/6 2544/1/6 2547/1/6
f 2547/1/6 2544/1/6 2548/1/6
f 2548/1/6 2544/1/6 2549/1/6
f 2545/1/6 2546/1/6 2552/1/6
f 2546/1/6 2547/1/6 2552/1/6
f 2552/1/6 2547/1/6 2553/1/6
f 2553/1/6 2547/1/6 2554/1/6
f 2548/1/6 2549/1/6 2555/1/6
f 2549/1/6 2550/1/6 2555/1/6
f 2555/1/6 2550/1/6 2556/1/6
f 2556/1/6 2550/1/6 2557/1/6
f 2552/1/6 2553/1/6 2559/1/6
f 2551/1/6 2552/1/6 2559/1/6
f 2559/1/6 2553/1/6 2560/1/6
f 2557/1/6 2558/1/6 2561/1/6
f 2556/1/6 2557/1/6 2561/1/6
f 2561/1/6 2558/1/6 2562/1/6
f 2551/1/6 2559/1/6 2563/1/6
f 2562/1/6 2558/1/6 2566/1/6
f 2563/1/6 2564/1/6 2567/1/6
f 2551/1/6 2563/1/6 2567/1/6
f 2567/1/6 2564/1/6 2568/1/6
f 2568/1/6 2564/1/6 2569/1/6
f 2565/1/6 2566/1/6 2572/1/6
f 2566/1/6 2558/1/6 2573/1/6
f 2572/1/6 2566/1/6 2573/1/6
f 2573/1/6 2558/1/6 2574/1/6
f 2569/1/6 2570/1/6 2575/1/6
f 2568/1/6 2569/1/6 2575/1/6
f 2575/1/6 2570/1/6 2576/1/6
f 2576/1/6 2570/1/6 2577/1/6
f 2571/1/6 2572/1/6 2578/1/6
f 2572/1/6 2573/1/6 2578/1/6
f 2578/1/6 2573/1/6 2579/1/6
f 2579/1/6 2573/1/6 2580/1/6
f 2576/1/6 2577/1/6 2581/1/6
f 2578/1/6 2579/1/6 2581/1/6
f 2577/1/6 2578/1/6 2581/1/6
f 2581/1/6 2579/1/6 2582/1/6
f 2582/1/6 2579/1/6 2583/1/6
f 2583/1/6 2579/1/6 2584/1/6
f 2582/1/6 2583/1/6 2585/1/6
f 2585/1/6 2583/1/6 2586/1/6
f 2587/1/6 2588/1/6 2590/1/6
f 2590/1/6 2588/1/6 2591/1/6
f 2589/1/6 2590/1/6 2594/1/6
f 2591/1/6 2592/1/6 2594/1/6
f 2590/1/6 2591/1/6 2594/1/6
f 2594/1/6 2592/1/6 2595/1/6
f 2593/1/6 2594/1/6 2597/1/6
f 2595/1/6 2596/1/6 2597/1/6
f 2594/1/6 2595/1/6 2597/1/6
f 2597/1/6 2596/1/6 2598/1/6
f 2598/1/6 2596/1/6 2599/1/6
f 2599/1/6 2596/1/6 2600/1/6
f 2598/1/6 2599/1/6 2601/1/6
f 2601/1/6 2599/1/6 2602/1/6
f 2602/1/6 2599/1/6 2603/1/6
f 2603/1/6 2599/1/6 2604/1/6
f 2602/1/6 2603/1/6 2605/1/6
f 2605/1/6 2603/1/6 2606/1/6
