# MagicaVoxel @ Ephtracy

# group
o 

# material
mtllib BerryBush.mtl
usemtl palette

# normals
vn -1 0 0
vn 1 0 0
vn 0 0 1
vn 0 0 -1
vn 0 -1 0
vn 0 1 0

# texcoords
vt 0.302734 0.5
vt 0.560547 0.5
vt 0.583984 0.5

# verts
v -1 0 1
v -1 0 0.7
v -1 0.3 1
v -1 0.3 0.7
v -1 0.7 0.2
v -1 0.7 -0.2
v -1 1.1 0.2
v -1 1.1 -0.2
v -0.9 1.4 -0.6
v -0.9 1.4 -0.9
v -0.9 1.7 -0.6
v -0.9 1.7 -0.9
v -0.8 0 0.7
v -0.8 0 0.4
v -0.8 0 0.1
v -0.8 0 -0.8
v -0.8 0.3 0.8
v -0.8 0.3 0.7
v -0.8 0.3 0.6
v -0.8 0.3 0.4
v -0.8 0.5 0.3
v -0.8 0.5 0.1
v -0.8 0.6 -0.4
v -0.8 0.6 -0.8
v -0.8 0.7 0.6
v -0.8 0.7 0.3
v -0.8 0.7 0.2
v -0.8 0.7 -0.2
v -0.8 1 -0.4
v -0.8 1 -0.7
v -0.8 1.1 0.2
v -0.8 1.1 -0.2
v -0.8 1.2 -0.7
v -0.8 1.2 -0.8
v -0.8 1.4 -0.6
v -0.8 1.4 -0.8
v -0.8 1.6 0.8
v -0.8 1.6 -0.6
v -0.5 0.3 -0.8
v -0.5 0.3 -1
v -0.5 0.7 -0.8
v -0.5 0.7 -1
v -0.5 1.3 1
v -0.5 1.3 0.8
v -0.5 1.6 1
v -0.5 1.6 0.8
v 0.1 1.1 -0.8
v 0.1 1.1 -1
v 0.1 1.4 -0.8
v 0.1 1.4 -1
v 0.2 0.3 1
v 0.2 0.3 0.8
v 0.2 0.6 1
v 0.2 0.6 0.8
v 0.2 1.6 0
v 0.2 1.6 -0.4
v 0.2 1.8 0
v 0.2 1.8 -0.4
v 0.6 1.5 0.9
v 0.6 1.5 0.8
v 0.6 1.6 0.8
v 0.6 1.6 0.6
v 0.6 1.8 0.9
v 0.6 1.8 0.6
v -0.7 0 1
v -0.7 0 0.8
v -0.7 0.3 1
v -0.7 0.3 0.8
v -0.5 1.4 -0.8
v -0.5 1.4 -0.9
v -0.5 1.6 -0.6
v -0.5 1.6 -0.8
v -0.5 1.7 -0.6
v -0.5 1.7 -0.9
v -0.2 1.3 1
v -0.2 1.3 0.8
v -0.2 1.6 1
v -0.2 1.6 0.8
v -0.1 0.3 -0.8
v -0.1 0.3 -1
v -0.1 0.7 -0.8
v -0.1 0.7 -1
v 0.4 1.1 -0.8
v 0.4 1.1 -1
v 0.4 1.3 -0.8
v 0.4 1.4 -0.8
v 0.4 1.4 -1
v 0.5 0.3 1
v 0.5 0.3 0.8
v 0.5 0.6 1
v 0.5 0.6 0.8
v 0.5 1.6 0
v 0.5 1.6 -0.4
v 0.5 1.8 0
v 0.5 1.8 -0.4
v 0.8 0 0.8
v 0.8 0 -0.5
v 0.8 0 -0.8
v 0.8 0.1 0.5
v 0.8 0.1 0.2
v 0.8 0.3 -0.5
v 0.8 0.3 -0.8
v 0.8 0.4 0.5
v 0.8 0.4 0.2
v 0.8 0.6 0.3
v 0.8 0.6 -0.6
v 0.8 0.7 0.5
v 0.8 0.7 0.3
v 0.8 0.9 0.1
v 0.8 0.9 -0.2
v 0.8 0.9 -0.5
v 0.8 0.9 -0.6
v 0.8 1 0.5
v 0.8 1 0.1
v 0.8 1.2 -0.2
v 0.8 1.2 -0.5
v 0.8 1.3 -0.5
v 0.8 1.3 -0.8
v 0.8 1.4 -0.2
v 0.8 1.4 -0.5
v 0.8 1.5 0.8
v 0.8 1.5 0.6
v 0.8 1.6 0.6
v 0.8 1.6 -0.2
v 0.8 1.6 -0.8
v 0.9 1.5 0.9
v 0.9 1.5 0.6
v 0.9 1.8 0.9
v 0.9 1.8 0.6
v 1 0.1 0.5
v 1 0.1 0.2
v 1 0.4 0.5
v 1 0.4 0.2
v 1 0.9 -0.2
v 1 0.9 -0.5
v 1 1.2 -0.2
v 1 1.2 -0.5
v -1 0 1
v -1 0.3 1
v -0.7 0 1
v -0.7 0.3 1
v -0.5 1.3 1
v -0.5 1.6 1
v -0.2 1.3 1
v -0.2 1.6 1
v 0.2 0.3 1
v 0.2 0.6 1
v 0.5 0.3 1
v 0.5 0.6 1
v 0.6 1.5 0.9
v 0.6 1.8 0.9
v 0.9 1.5 0.9
v 0.9 1.8 0.9
v -0.8 0.3 0.8
v -0.8 1.6 0.8
v -0.7 0 0.8
v -0.7 0.3 0.8
v -0.5 1.3 0.8
v -0.5 1.6 0.8
v -0.3 0.6 0.8
v -0.3 1 0.8
v -0.2 1.3 0.8
v -0.2 1.6 0.8
v -0.1 1 0.8
v -0.1 1.2 0.8
v 0.1 0.6 0.8
v 0.1 0.9 0.8
v 0.2 0.3 0.8
v 0.2 0.6 0.8
v 0.3 0.9 0.8
v 0.3 1.2 0.8
v 0.5 0.3 0.8
v 0.5 0.6 0.8
v 0.6 1.5 0.8
v 0.6 1.6 0.8
v 0.8 0 0.8
v 0.8 1.5 0.8
v 0.8 0.1 0.5
v 0.8 0.4 0.5
v 1 0.1 0.5
v 1 0.4 0.5
v -1 0.7 0.2
v -1 1.1 0.2
v -0.8 0.7 0.2
v -0.8 1.1 0.2
v 0.2 1.6 0
v 0.2 1.8 0
v 0.4 1.6 0
v 0.5 1.6 0
v 0.5 1.8 0
v 0.8 0.9 -0.2
v 0.8 1.2 -0.2
v 1 0.9 -0.2
v 1 1.2 -0.2
v -0.9 1.4 -0.6
v -0.9 1.7 -0.6
v -0.8 1.4 -0.6
v -0.8 1.6 -0.6
v -0.5 1.6 -0.6
v -0.5 1.7 -0.6
v -1 0 0.7
v -1 0.3 0.7
v -0.8 0 0.7
v -0.8 0.3 0.7
v 0.6 1.6 0.6
v 0.6 1.8 0.6
v 0.8 1.5 0.6
v 0.8 1.6 0.6
v 0.9 1.5 0.6
v 0.9 1.8 0.6
v 0.8 0.1 0.2
v 0.8 0.4 0.2
v 1 0.1 0.2
v 1 0.4 0.2
v -1 0.7 -0.2
v -1 1.1 -0.2
v -0.8 0.7 -0.2
v -0.8 1.1 -0.2
v 0.2 1.6 -0.4
v 0.2 1.8 -0.4
v 0.5 1.6 -0.4
v 0.5 1.8 -0.4
v 0.8 0.9 -0.5
v 0.8 1.2 -0.5
v 1 0.9 -0.5
v 1 1.2 -0.5
v -0.8 0 -0.8
v -0.8 0.6 -0.8
v -0.8 1.2 -0.8
v -0.8 1.4 -0.8
v -0.6 0.6 -0.8
v -0.6 0.8 -0.8
v -0.5 0.3 -0.8
v -0.5 0.7 -0.8
v -0.5 1.4 -0.8
v -0.5 1.6 -0.8
v -0.4 0.8 -0.8
v -0.4 1.2 -0.8
v -0.1 0.3 -0.8
v -0.1 0.7 -0.8
v 0.1 1.1 -0.8
v 0.1 1.4 -0.8
v 0.2 0.1 -0.8
v 0.2 0.5 -0.8
v 0.4 0 -0.8
v 0.4 0.1 -0.8
v 0.4 1.1 -0.8
v 0.4 1.3 -0.8
v 0.4 1.4 -0.8
v 0.4 1.6 -0.8
v 0.6 0.3 -0.8
v 0.6 0.5 -0.8
v 0.8 0 -0.8
v 0.8 0.3 -0.8
v 0.8 1.3 -0.8
v 0.8 1.6 -0.8
v -0.9 1.4 -0.9
v -0.9 1.7 -0.9
v -0.5 1.4 -0.9
v -0.5 1.7 -0.9
v -0.5 0.3 -1
v -0.5 0.7 -1
v -0.1 0.3 -1
v -0.1 0.7 -1
v 0.1 1.1 -1
v 0.1 1.4 -1
v 0.4 1.1 -1
v 0.4 1.4 -1
v -1 0 1
v -0.7 0 1
v -0.8 0 0.8
v -0.7 0 0.8
v 0.8 0 0.8
v -1 0 0.7
v -0.8 0 0.7
v -0.8 0 0.4
v -0.7 0 0.4
v -0.8 0 0.1
v -0.7 0 0.1
v 0.7 0 -0.5
v 0.8 0 -0.5
v 0.4 0 -0.7
v 0.7 0 -0.7
v -0.8 0 -0.8
v 0.4 0 -0.8
v 0.8 0 -0.8
v 0.8 0.1 0.5
v 1 0.1 0.5
v 0.8 0.1 0.2
v 1 0.1 0.2
v 0.2 0.3 1
v 0.5 0.3 1
v 0.2 0.3 0.8
v 0.5 0.3 0.8
v -0.5 0.3 -0.8
v -0.1 0.3 -0.8
v -0.5 0.3 -1
v -0.1 0.3 -1
v -1 0.7 0.2
v -0.8 0.7 0.2
v -1 0.7 -0.2
v -0.8 0.7 -0.2
v 0.8 0.9 -0.2
v 1 0.9 -0.2
v 0.8 0.9 -0.5
v 1 0.9 -0.5
v 0.1 1.1 -0.8
v 0.4 1.1 -0.8
v 0.1 1.1 -1
v 0.4 1.1 -1
v -0.5 1.3 1
v -0.2 1.3 1
v -0.5 1.3 0.8
v -0.2 1.3 0.8
v -0.9 1.4 -0.6
v -0.8 1.4 -0.6
v -0.8 1.4 -0.8
v -0.5 1.4 -0.8
v -0.9 1.4 -0.9
v -0.5 1.4 -0.9
v 0.6 1.5 0.9
v 0.9 1.5 0.9
v 0.6 1.5 0.8
v 0.8 1.5 0.8
v 0.8 1.5 0.6
v 0.9 1.5 0.6
v -1 0.3 1
v -0.7 0.3 1
v -0.8 0.3 0.8
v -0.7 0.3 0.8
v -1 0.3 0.7
v -0.8 0.3 0.7
v 0.8 0.4 0.5
v 1 0.4 0.5
v 0.8 0.4 0.2
v 1 0.4 0.2
v 0.2 0.6 1
v 0.5 0.6 1
v 0.2 0.6 0.8
v 0.5 0.6 0.8
v -0.5 0.7 -0.8
v -0.1 0.7 -0.8
v -0.5 0.7 -1
v -0.1 0.7 -1
v -1 1.1 0.2
v -0.8 1.1 0.2
v -1 1.1 -0.2
v -0.8 1.1 -0.2
v 0.8 1.2 -0.2
v 1 1.2 -0.2
v 0.8 1.2 -0.5
v 1 1.2 -0.5
v 0.1 1.4 -0.8
v 0.4 1.4 -0.8
v 0.1 1.4 -1
v 0.4 1.4 -1
v -0.5 1.6 1
v -0.2 1.6 1
v -0.8 1.6 0.8
v -0.5 1.6 0.8
v -0.2 1.6 0.8
v 0.6 1.6 0.8
v 0.6 1.6 0.6
v 0.8 1.6 0.6
v -0.5 1.6 0.5
v 0 1.6 0.5
v 0 1.6 0.3
v 0.4 1.6 0.3
v -0.5 1.6 0.2
v -0.3 1.6 0.2
v -0.3 1.6 0
v 0.2 1.6 0
v 0.4 1.6 0
v 0.5 1.6 0
v 0.6 1.6 -0.2
v 0.8 1.6 -0.2
v 0.2 1.6 -0.4
v 0.5 1.6 -0.4
v 0.4 1.6 -0.5
v 0.6 1.6 -0.5
v -0.8 1.6 -0.6
v -0.5 1.6 -0.6
v -0.5 1.6 -0.8
v 0.4 1.6 -0.8
v 0.8 1.6 -0.8
v -0.9 1.7 -0.6
v -0.5 1.7 -0.6
v -0.9 1.7 -0.9
v -0.5 1.7 -0.9
v 0.6 1.8 0.9
v 0.9 1.8 0.9
v 0.6 1.8 0.6
v 0.9 1.8 0.6
v 0.2 1.8 0
v 0.5 1.8 0
v 0.2 1.8 -0.4
v 0.5 1.8 -0.4

# faces
f 3/1/1 2/1/1 1/1/1
f 4/1/1 2/1/1 3/1/1
f 7/1/1 6/1/1 5/1/1
f 8/1/1 6/1/1 7/1/1
f 11/1/1 10/1/1 9/1/1
f 12/1/1 10/1/1 11/1/1
f 18/2/1 14/2/1 13/2/1
f 19/2/1 14/2/1 18/2/1
f 20/3/1 15/3/1 14/3/1
f 20/2/1 14/2/1 19/2/1
f 21/3/1 20/3/1 19/3/1
f 21/3/1 15/3/1 20/3/1
f 22/2/1 16/2/1 15/2/1
f 22/3/1 15/3/1 21/3/1
f 23/2/1 22/2/1 21/2/1
f 23/2/1 16/2/1 22/2/1
f 24/2/1 16/2/1 23/2/1
f 25/3/1 21/3/1 19/3/1
f 25/2/1 19/2/1 18/2/1
f 25/2/1 18/2/1 17/2/1
f 26/2/1 23/2/1 21/2/1
f 26/3/1 21/3/1 25/3/1
f 27/2/1 23/2/1 26/2/1
f 28/2/1 23/2/1 27/2/1
f 29/3/1 24/3/1 23/3/1
f 29/2/1 23/2/1 28/2/1
f 30/3/1 24/3/1 29/3/1
f 31/2/1 27/2/1 26/2/1
f 31/2/1 26/2/1 25/2/1
f 32/2/1 30/2/1 29/2/1
f 32/2/1 29/2/1 28/2/1
f 33/3/1 24/3/1 30/3/1
f 33/2/1 32/2/1 31/2/1
f 33/2/1 30/2/1 32/2/1
f 34/3/1 24/3/1 33/3/1
f 35/2/1 33/2/1 31/2/1
f 35/2/1 34/2/1 33/2/1
f 36/2/1 34/2/1 35/2/1
f 37/2/1 25/2/1 17/2/1
f 37/2/1 31/2/1 25/2/1
f 37/2/1 35/2/1 31/2/1
f 38/2/1 35/2/1 37/2/1
f 41/1/1 40/1/1 39/1/1
f 42/1/1 40/1/1 41/1/1
f 45/1/1 44/1/1 43/1/1
f 46/1/1 44/1/1 45/1/1
f 49/1/1 48/1/1 47/1/1
f 50/1/1 48/1/1 49/1/1
f 53/1/1 52/1/1 51/1/1
f 54/1/1 52/1/1 53/1/1
f 57/1/1 56/1/1 55/1/1
f 58/1/1 56/1/1 57/1/1
f 61/1/1 60/1/1 59/1/1
f 63/1/1 61/1/1 59/1/1
f 63/1/1 62/1/1 61/1/1
f 64/1/1 62/1/1 63/1/1
f 65/1/2 66/1/2 67/1/2
f 67/1/2 66/1/2 68/1/2
f 69/1/2 70/1/2 72/1/2
f 71/1/2 72/1/2 73/1/2
f 72/1/2 70/1/2 74/1/2
f 73/1/2 72/1/2 74/1/2
f 75/1/2 76/1/2 77/1/2
f 77/1/2 76/1/2 78/1/2
f 79/1/2 80/1/2 81/1/2
f 81/1/2 80/1/2 82/1/2
f 83/1/2 84/1/2 85/1/2
f 85/1/2 84/1/2 86/1/2
f 86/1/2 84/1/2 87/1/2
f 88/1/2 89/1/2 90/1/2
f 90/1/2 89/1/2 91/1/2
f 92/1/2 93/1/2 94/1/2
f 94/1/2 93/1/2 95/1/2
f 96/2/2 97/2/2 99/2/2
f 99/2/2 97/2/2 100/2/2
f 97/3/2 98/3/2 101/3/2
f 100/2/2 97/2/2 101/2/2
f 101/3/2 98/3/2 102/3/2
f 96/2/2 99/2/2 103/2/2
f 100/2/2 101/2/2 104/2/2
f 101/2/2 102/2/2 104/2/2
f 103/2/2 104/2/2 105/2/2
f 104/2/2 102/2/2 106/2/2
f 105/2/2 104/2/2 106/2/2
f 96/2/2 103/2/2 107/2/2
f 103/2/2 105/2/2 107/2/2
f 105/3/2 106/3/2 108/3/2
f 107/2/2 105/2/2 108/2/2
f 107/3/2 108/3/2 109/3/2
f 108/3/2 106/3/2 109/3/2
f 109/3/2 106/3/2 110/3/2
f 110/3/2 106/3/2 111/3/2
f 106/2/2 102/2/2 112/2/2
f 111/3/2 106/3/2 112/3/2
f 96/2/2 107/2/2 113/2/2
f 107/3/2 109/3/2 113/3/2
f 109/2/2 110/2/2 114/2/2
f 113/3/2 109/3/2 114/3/2
f 113/2/2 114/2/2 115/2/2
f 114/2/2 110/2/2 115/2/2
f 111/2/2 112/2/2 116/2/2
f 116/2/2 112/2/2 117/2/2
f 115/2/2 116/2/2 117/2/2
f 112/2/2 102/2/2 118/2/2
f 117/2/2 112/2/2 118/2/2
f 115/2/2 117/2/2 119/2/2
f 113/2/2 115/2/2 119/2/2
f 117/3/2 118/3/2 120/3/2
f 119/2/2 117/2/2 120/2/2
f 113/2/2 119/2/2 121/2/2
f 96/2/2 113/2/2 121/2/2
f 121/2/2 119/2/2 122/2/2
f 122/2/2 119/2/2 123/2/2
f 119/3/2 120/3/2 124/3/2
f 123/2/2 119/2/2 124/2/2
f 120/3/2 118/3/2 125/3/2
f 124/3/2 120/3/2 125/3/2
f 126/1/2 127/1/2 128/1/2
f 128/1/2 127/1/2 129/1/2
f 130/1/2 131/1/2 132/1/2
f 132/1/2 131/1/2 133/1/2
f 134/1/2 135/1/2 136/1/2
f 136/1/2 135/1/2 137/1/2
f 140/1/3 139/1/3 138/1/3
f 141/1/3 139/1/3 140/1/3
f 144/1/3 143/1/3 142/1/3
f 145/1/3 143/1/3 144/1/3
f 148/1/3 147/1/3 146/1/3
f 149/1/3 147/1/3 148/1/3
f 152/1/3 151/1/3 150/1/3
f 153/1/3 151/1/3 152/1/3
f 157/2/3 155/2/3 154/2/3
f 158/2/3 155/2/3 157/2/3
f 158/2/3 157/2/3 156/2/3
f 159/2/3 155/2/3 158/2/3
f 160/2/3 158/2/3 156/2/3
f 161/2/3 158/2/3 160/2/3
f 162/2/3 158/2/3 161/2/3
f 164/3/3 161/3/3 160/3/3
f 164/2/3 163/2/3 162/2/3
f 164/2/3 162/2/3 161/2/3
f 165/2/3 163/2/3 164/2/3
f 166/2/3 160/2/3 156/2/3
f 166/3/3 164/3/3 160/3/3
f 166/3/3 165/3/3 164/3/3
f 167/3/3 165/3/3 166/3/3
f 168/2/3 166/2/3 156/2/3
f 168/2/3 167/2/3 166/2/3
f 169/2/3 167/2/3 168/2/3
f 170/3/3 165/3/3 167/3/3
f 170/2/3 167/2/3 169/2/3
f 171/2/3 163/2/3 165/2/3
f 171/3/3 165/3/3 170/3/3
f 172/2/3 168/2/3 156/2/3
f 173/2/3 170/2/3 169/2/3
f 173/2/3 171/2/3 170/2/3
f 174/2/3 163/2/3 171/2/3
f 174/2/3 173/2/3 172/2/3
f 174/2/3 171/2/3 173/2/3
f 175/2/3 163/2/3 174/2/3
f 176/2/3 172/2/3 156/2/3
f 176/2/3 174/2/3 172/2/3
f 177/2/3 174/2/3 176/2/3
f 180/1/3 179/1/3 178/1/3
f 181/1/3 179/1/3 180/1/3
f 184/1/3 183/1/3 182/1/3
f 185/1/3 183/1/3 184/1/3
f 188/1/3 187/1/3 186/1/3
f 189/1/3 187/1/3 188/1/3
f 190/1/3 187/1/3 189/1/3
f 193/1/3 192/1/3 191/1/3
f 194/1/3 192/1/3 193/1/3
f 197/1/3 196/1/3 195/1/3
f 198/1/3 196/1/3 197/1/3
f 199/1/3 196/1/3 198/1/3
f 200/1/3 196/1/3 199/1/3
f 201/1/4 202/1/4 203/1/4
f 203/1/4 202/1/4 204/1/4
f 205/1/4 206/1/4 208/1/4
f 207/1/4 208/1/4 209/1/4
f 208/1/4 206/1/4 210/1/4
f 209/1/4 208/1/4 210/1/4
f 211/1/4 212/1/4 213/1/4
f 213/1/4 212/1/4 214/1/4
f 215/1/4 216/1/4 217/1/4
f 217/1/4 216/1/4 218/1/4
f 219/1/4 220/1/4 221/1/4
f 221/1/4 220/1/4 222/1/4
f 223/1/4 224/1/4 225/1/4
f 225/1/4 224/1/4 226/1/4
f 227/2/4 228/2/4 231/2/4
f 228/3/4 229/3/4 231/3/4
f 231/3/4 229/3/4 232/3/4
f 227/2/4 231/2/4 233/2/4
f 231/2/4 232/2/4 233/2/4
f 233/2/4 232/2/4 234/2/4
f 229/2/4 230/2/4 235/2/4
f 234/2/4 232/2/4 237/2/4
f 232/3/4 229/3/4 237/3/4
f 235/2/4 236/2/4 238/2/4
f 237/3/4 229/3/4 238/3/4
f 229/2/4 235/2/4 238/2/4
f 227/2/4 233/2/4 239/2/4
f 234/2/4 237/2/4 240/2/4
f 237/2/4 238/2/4 240/2/4
f 240/2/4 238/2/4 241/2/4
f 239/2/4 240/2/4 241/2/4
f 238/2/4 236/2/4 242/2/4
f 241/2/4 238/2/4 242/2/4
f 227/2/4 239/2/4 243/2/4
f 239/2/4 241/2/4 243/2/4
f 243/2/4 241/2/4 244/2/4
f 227/2/4 243/2/4 245/2/4
f 243/3/4 244/3/4 246/3/4
f 245/2/4 243/2/4 246/2/4
f 244/2/4 241/2/4 247/2/4
f 242/2/4 236/2/4 249/2/4
f 249/2/4 236/2/4 250/2/4
f 246/3/4 244/3/4 251/3/4
f 245/3/4 246/3/4 251/3/4
f 247/2/4 248/2/4 252/2/4
f 251/3/4 244/3/4 252/3/4
f 244/2/4 247/2/4 252/2/4
f 245/3/4 251/3/4 253/3/4
f 251/2/4 252/2/4 254/2/4
f 253/3/4 251/3/4 254/3/4
f 252/2/4 248/2/4 255/2/4
f 254/2/4 252/2/4 255/2/4
f 249/3/4 250/3/4 255/3/4
f 248/3/4 249/3/4 255/3/4
f 255/3/4 250/3/4 256/3/4
f 257/1/4 258/1/4 259/1/4
f 259/1/4 258/1/4 260/1/4
f 261/1/4 262/1/4 263/1/4
f 263/1/4 262/1/4 264/1/4
f 265/1/4 266/1/4 267/1/4
f 267/1/4 266/1/4 268/1/4
f 271/1/5 270/1/5 269/1/5
f 272/1/5 270/1/5 271/1/5
f 274/1/5 271/1/5 269/1/5
f 275/2/5 273/2/5 272/2/5
f 275/1/5 271/1/5 274/1/5
f 275/2/5 272/2/5 271/2/5
f 276/2/5 273/2/5 275/2/5
f 277/2/5 273/2/5 276/2/5
f 278/3/5 277/3/5 276/3/5
f 279/2/5 273/2/5 277/2/5
f 279/3/5 277/3/5 278/3/5
f 280/2/5 279/2/5 278/2/5
f 280/2/5 273/2/5 279/2/5
f 281/2/5 273/2/5 280/2/5
f 282/2/5 280/2/5 278/2/5
f 283/3/5 281/3/5 280/3/5
f 283/2/5 280/2/5 282/2/5
f 284/2/5 282/2/5 278/2/5
f 285/3/5 283/3/5 282/3/5
f 285/2/5 282/2/5 284/2/5
f 286/3/5 281/3/5 283/3/5
f 286/3/5 283/3/5 285/3/5
f 289/1/5 288/1/5 287/1/5
f 290/1/5 288/1/5 289/1/5
f 293/1/5 292/1/5 291/1/5
f 294/1/5 292/1/5 293/1/5
f 297/1/5 296/1/5 295/1/5
f 298/1/5 296/1/5 297/1/5
f 301/1/5 300/1/5 299/1/5
f 302/1/5 300/1/5 301/1/5
f 305/1/5 304/1/5 303/1/5
f 306/1/5 304/1/5 305/1/5
f 309/1/5 308/1/5 307/1/5
f 310/1/5 308/1/5 309/1/5
f 313/1/5 312/1/5 311/1/5
f 314/1/5 312/1/5 313/1/5
f 317/1/5 316/1/5 315/1/5
f 319/1/5 317/1/5 315/1/5
f 319/1/5 318/1/5 317/1/5
f 320/1/5 318/1/5 319/1/5
f 323/1/5 322/1/5 321/1/5
f 324/1/5 322/1/5 323/1/5
f 325/1/5 322/1/5 324/1/5
f 326/1/5 322/1/5 325/1/5
f 327/1/6 328/1/6 329/1/6
f 329/1/6 328/1/6 330/1/6
f 327/1/6 329/1/6 331/1/6
f 331/1/6 329/1/6 332/1/6
f 333/1/6 334/1/6 335/1/6
f 335/1/6 334/1/6 336/1/6
f 337/1/6 338/1/6 339/1/6
f 339/1/6 338/1/6 340/1/6
f 341/1/6 342/1/6 343/1/6
f 343/1/6 342/1/6 344/1/6
f 345/1/6 346/1/6 347/1/6
f 347/1/6 346/1/6 348/1/6
f 349/1/6 350/1/6 351/1/6
f 351/1/6 350/1/6 352/1/6
f 353/1/6 354/1/6 355/1/6
f 355/1/6 354/1/6 356/1/6
f 357/1/6 358/1/6 360/1/6
f 360/1/6 358/1/6 361/1/6
f 359/2/6 360/2/6 363/2/6
f 361/2/6 362/2/6 363/2/6
f 360/2/6 361/2/6 363/2/6
f 359/2/6 363/2/6 365/2/6
f 363/2/6 364/2/6 365/2/6
f 365/2/6 364/2/6 366/2/6
f 365/3/6 366/3/6 367/3/6
f 366/2/6 364/2/6 367/2/6
f 367/2/6 364/2/6 368/2/6
f 359/2/6 365/2/6 369/2/6
f 365/3/6 367/3/6 369/3/6
f 367/3/6 368/3/6 369/3/6
f 369/3/6 368/3/6 370/3/6
f 369/2/6 370/2/6 371/2/6
f 370/3/6 368/3/6 371/3/6
f 371/3/6 368/3/6 372/3/6
f 368/2/6 364/2/6 373/2/6
f 372/3/6 368/3/6 373/3/6
f 373/2/6 364/2/6 374/2/6
f 374/2/6 364/2/6 375/2/6
f 375/2/6 364/2/6 376/2/6
f 371/2/6 372/2/6 377/2/6
f 374/2/6 375/2/6 378/2/6
f 377/2/6 378/2/6 379/2/6
f 375/3/6 376/3/6 380/3/6
f 379/2/6 378/2/6 380/2/6
f 378/2/6 375/2/6 380/2/6
f 359/2/6 369/2/6 381/2/6
f 369/2/6 371/2/6 381/2/6
f 371/2/6 377/2/6 381/2/6
f 377/2/6 379/2/6 381/2/6
f 381/2/6 379/2/6 382/2/6
f 382/2/6 379/2/6 383/2/6
f 379/3/6 380/3/6 384/3/6
f 383/2/6 379/2/6 384/2/6
f 380/3/6 376/3/6 385/3/6
f 384/3/6 380/3/6 385/3/6
f 386/1/6 387/1/6 388/1/6
f 388/1/6 387/1/6 389/1/6
f 390/1/6 391/1/6 392/1/6
f 392/1/6 391/1/6 393/1/6
f 394/1/6 395/1/6 396/1/6
f 396/1/6 395/1/6 397/1/6
